<?xml version="1.0" encoding="UTF-8"?>
<svg version="1.1" viewBox="0 0 520.97 180.44" xmlns="http://www.w3.org/2000/svg">
 <g transform="translate(533.75 -132.25)">
  <path d="m-283.18 237.56c-32.315-17.231-54.997-47.307-73.078-83.518-73.738-36.12-118.71-14.713-177.47-20.879 49.008 12.913 85.271 34.074 93.957 73.078 76.159-7.4791 54.531 22.895 62.638 41.759 60.455-11.789 71.598 19.933 93.957 41.759z" fill="#333" stroke="#2e0000" stroke-dashoffset="2" stroke-width=".26099"/>
  <path d="m-439.77 206.24c23.779-20.647 48.078-40.88 83.518-52.199-4.0361 31.319-9.7519 62.638-20.879 93.957" fill="none" stroke="#808080" stroke-dashoffset="2" stroke-width="2.6099"/>
  <path d="m-293.93 278.52h41.759c-7.215 6.8322-18.909 25.055-21.906 33.996-1.8023-6.9598-11.338-27.036-19.853-33.996z" fill="#333" fill-rule="evenodd" stroke-width="0"/>
  <path d="m-263.37 237.56c32.315-17.231 54.997-47.307 73.078-83.518 73.738-36.12 118.71-14.713 177.47-20.879-49.008 12.913-85.271 34.074-93.957 73.078-76.159-7.4791-54.531 22.895-62.638 41.759-60.455-11.789-71.598 19.933-93.957 41.759z" fill="#333" stroke="#2e0000" stroke-dashoffset="2" stroke-width=".26099"/>
  <g transform="matrix(.26099 0 0 .26099 -173.87 212.65)" fill="#333" fill-rule="evenodd" stroke-width="0">
   <ellipse cx="-380" cy="172.36" rx="100" ry="160"/>
   <circle cx="-380" cy="-7.6378" r="60"/>
  </g>
  <path d="m-106.77 206.24c-23.779-20.647-48.078-40.88-83.518-52.199 4.0361 31.319 9.7519 62.638 20.879 93.957" fill="none" stroke="#808080" stroke-dashoffset="2" stroke-width="2.6099"/>
  <path d="m-288.39 208.78c-3.1693-10.955-3.2803-21.527 3.5691-31.23 8.7231 10.658 9.2704 20.498 9.8151 30.338z" fill="#333" fill-rule="evenodd" stroke-width="0"/>
  <path d="m-258.23 207.89c3.1693-10.955 3.2803-21.527-3.5691-31.23-8.7231 10.658-9.2704 20.498-9.8151 30.338z" fill="#333" fill-rule="evenodd" stroke-width="0"/>
 </g>
</svg>
