<?xml version="1.0" encoding="UTF-8"?>
<svg viewBox="0 0 204.22203 205.00732" xmlns="http://www.w3.org/2000/svg" xmlns:xlink="http://www.w3.org/1999/xlink">
 <defs>
  <filter id="ae">
   <feGaussianBlur stdDeviation="2.5832"/>
  </filter>
  <filter id="aa">
   <feGaussianBlur stdDeviation=".8462"/>
  </filter>
  <filter id="y">
   <feGaussianBlur stdDeviation=".5487"/>
  </filter>
  <filter id="z">
   <feGaussianBlur stdDeviation=".7876"/>
  </filter>
  <filter id="x">
   <feGaussianBlur stdDeviation=".5496"/>
  </filter>
  <filter id="ac">
   <feGaussianBlur stdDeviation="1.4755"/>
  </filter>
  <filter id="ad" x="-.11265" y="-.10372" width="1.2253" height="1.2074">
   <feGaussianBlur stdDeviation="1.1573"/>
  </filter>
  <filter id="g" x="-.45313" y="-.43617" width="1.9062" height="1.8723">
   <feGaussianBlur stdDeviation="5.3932"/>
  </filter>
  <linearGradient id="a">
   <stop stop-color="#fff" offset="0"/>
   <stop stop-color="#fff" stop-opacity="0" offset="1"/>
  </linearGradient>
  <linearGradient id="f" x1="-140.31" x2="-134.87" y1="18.54" y2="67.124" gradientUnits="userSpaceOnUse">
   <stop stop-color="#60931a" offset="0"/>
   <stop stop-color="#2b4407" offset="1"/>
  </linearGradient>
  <linearGradient id="v">
   <stop stop-color="#5e911a" stop-opacity=".5" offset="0"/>
   <stop stop-color="#406e0b" offset="1"/>
  </linearGradient>
  <linearGradient id="u" x1="-50.286" x2="-46.552" y1="152.85" y2="145.88" gradientUnits="userSpaceOnUse">
   <stop stop-color="#955f13" offset="0"/>
   <stop stop-color="#c48d2e" offset="1"/>
  </linearGradient>
  <linearGradient id="t" x1="50.331" x2="55.967" y1="214.44" y2="214.73" gradientUnits="userSpaceOnUse">
   <stop stop-color="#7c561d" offset="0"/>
   <stop stop-color="#bb8c43" offset="1"/>
  </linearGradient>
  <linearGradient id="s" x1="-92.591" x2="-26.404" y1="170.4" y2="193.99" gradientUnits="userSpaceOnUse">
   <stop stop-color="#8a4f00" offset="0"/>
   <stop stop-color="#e0a945" offset=".5"/>
   <stop stop-color="#af710c" offset="1"/>
  </linearGradient>
  <linearGradient id="w">
   <stop stop-color="#42260e" offset="0"/>
   <stop stop-color="#42260e" stop-opacity="0" offset="1"/>
  </linearGradient>
  <linearGradient id="r" x1="-112.52" x2="-81.155" y1="167.54" y2="182.72" gradientUnits="userSpaceOnUse">
   <stop stop-color="#3f1c00" offset="0"/>
   <stop stop-color="#3f1c00" stop-opacity="0" offset="1"/>
  </linearGradient>
  <linearGradient id="q" x1="-83.942" x2="-34.194" y1="174.47" y2="187.84" gradientUnits="userSpaceOnUse">
   <stop stop-color="#fff" stop-opacity="0" offset="0"/>
   <stop stop-color="#fff" offset=".4795"/>
   <stop stop-color="#fff" stop-opacity="0" offset="1"/>
  </linearGradient>
  <linearGradient id="n" x1="-18.307" x2="-147.86" y1="236.59" y2="201.73" gradientUnits="userSpaceOnUse">
   <stop stop-color="#daa240" offset="0"/>
   <stop stop-color="#fff" offset=".5"/>
   <stop stop-color="#b77e24" offset="1"/>
  </linearGradient>
  <linearGradient id="c" x1="-321.88" x2="-329.35" y1="150.61" y2="143.64" gradientUnits="userSpaceOnUse">
   <stop stop-color="#cd0001" offset="0"/>
   <stop stop-color="#cd0001" stop-opacity="0" offset="1"/>
  </linearGradient>
  <linearGradient id="ab" x1="87.31" x2="-199.26" y1="-107.37" y2="84.852" gradientTransform="matrix(-.33995 .44447 .40969 .36881 -240.67 142.67)" gradientUnits="userSpaceOnUse" xlink:href="#a"/>
  <linearGradient id="e" x1="-199.54" x2="-208.68" y1="-70.937" y2="78.478" gradientTransform="matrix(.44809 -.12041 .12041 .44809 -56.186 8.9469)" gradientUnits="userSpaceOnUse" xlink:href="#v"/>
  <linearGradient id="d" x1="87.31" x2="-199.26" y1="-107.37" y2="84.852" gradientTransform="matrix(.44809 -.12041 .12041 .44809 -56.459 9.1894)" gradientUnits="userSpaceOnUse" xlink:href="#v"/>
  <linearGradient id="p" x1="-30.62" x2="-75.429" y1="213.34" y2="194.92" gradientUnits="userSpaceOnUse" xlink:href="#a"/>
  <linearGradient id="o" x1="-16.013" x2="-41.594" y1="190.56" y2="188.8" gradientUnits="userSpaceOnUse" xlink:href="#w"/>
  <linearGradient id="m" x1="-42.386" x2="-62.574" y1="183.7" y2="176.27" gradientUnits="userSpaceOnUse" xlink:href="#a"/>
  <linearGradient id="l" x1="-41.027" x2="-38.878" y1="157.73" y2="190.82" gradientUnits="userSpaceOnUse" xlink:href="#a"/>
  <radialGradient id="k" cx="-59.021" cy="281.86" r="37.318" gradientTransform="matrix(.74501 -.00355 .00744 .50007 -17.146 134.96)" gradientUnits="userSpaceOnUse">
   <stop stop-color="#996722" offset="0"/>
   <stop stop-color="#553911" offset="1"/>
  </radialGradient>
  <radialGradient id="j" cx="-108.95" cy="208.65" r="27.021" gradientTransform="matrix(1 0 0 .8859 0 25.212)" gradientUnits="userSpaceOnUse">
   <stop stop-color="#3f230e" offset="0"/>
   <stop stop-color="#3f230e" stop-opacity="0" offset="1"/>
  </radialGradient>
  <radialGradient id="h" cx="-197.41" cy="227.28" r="9.2108" gradientTransform="matrix(1.3766 -.10257 .13478 1.809 43.71 -204.12)" gradientUnits="userSpaceOnUse">
   <stop stop-color="#fff" offset="0"/>
   <stop stop-color="#b37f2e" offset=".5"/>
   <stop stop-color="#553911" offset="1"/>
  </radialGradient>
  <radialGradient id="b" cx="-333.58" cy="130.94" r="14.439" gradientUnits="userSpaceOnUse">
   <stop stop-color="#d40000" offset="0"/>
   <stop stop-color="#800406" offset="1"/>
  </radialGradient>
  <radialGradient id="i" cx="-33.179" cy="232.86" r="39.88" gradientTransform="matrix(1 0 0 .60808 -.12447 86.85)" gradientUnits="userSpaceOnUse" xlink:href="#w"/>
 </defs>
 <g transform="translate(225.57 -46.019)">
  <path d="m-116.03 62.219s0.15372 14.979-4.9688 19.125c-2.2201 1.797-8.5625 0.375-8.5625 0.375s7.0326 7.7938 5.625 11.969c-1.3688 4.0599-11.375 5.9688-11.375 5.9688s6.5384 5.8399 7.3125 10.312c-0.77483 0.58464-9.5894 7.1631-14.531 5.875-6.7899-1.7698-13.125-16.469-13.125-16.469s-1.7874 11.983-6.5 12.75c-6.1732 1.0044-13.344-13.156-13.344-13.156s-4.8838 8.5439-9.0938 10.375c-7.5853 3.2992-24.781-0.78125-24.781-0.78125s16.815 5.7033 19.438 13.062c1.1368 3.1896-2.9375 9.7188-2.9375 9.7188s11.478-4.7785 15.594-1.5625c4.0022 3.1273 2.1562 15.062 2.1562 15.062s10.823-5.994 15.75-3.7812c1.4615 0.65637 2.713 2.302 3.7188 4.1875-0.31965 1.5384-0.86839 3.0699-1.5 4.5-0.44007 0.99638-0.90079 1.7666-1.3438 2.5938 0.78003-0.28854 1.6491-0.60096 2.5625-0.90625-0.75924 1.3883-1.4736 2.8044-2.1562 4.2812-4e-3 9e-3 4e-3 0.0227 0 0.0312-2.6756 5.7918-5.0044 12.038-8.5625 17.031-0.27407 0.38451-0.55398 0.75619-0.84375 1.125-1.1632 1.4834-2.4295 2.8335-3.9062 4-0.2095 0.16549-0.42556 0.31053-0.65625 0.4375-0.4622 0.25355-0.98318 0.43661-1.5 0.59375-0.77258 0.23695-1.5669 0.41731-2.3438 0.65625-0.25966 0.0793-0.53177 0.15095-0.78125 0.25-0.24008 0.0966-0.4928 0.21966-0.71875 0.34375-1.1015 0.60494-2.1256 1.2722-3.0938 1.9688-1.4523 1.045-2.7574 2.1644-3.9062 3.2812-0.38286 0.37219-0.74493 0.72553-1.0938 1.0938-5e-3 5e-3 5e-3 0.026 0 0.0312-0.34287 0.36238-0.69027 0.70981-1 1.0625-5e-3 6e-3 5e-3 0.0257 0 0.0312-0.93679 1.068-1.7452 2.0647-2.375 2.9375-1.2758 1.7658-1.9062 2.9688-1.9062 2.9688l0.1875-0.15625c-0.96119 1.1709-1.6709 2.4628-2.0938 3.8438-3.5957 11.742 14.74 26.459 40.938 32.906 10.95 2.6947 21.588 3.4081 30.562 2.5 9.7934 3.5216 25.625 2.842 42.438-2.6562 25.643-8.3861 44.003-25.414 40.844-37.281-0.46625-1.7511-1.3948-3.298-2.6875-4.625-0.9789-1.5666-2.753-3.7444-6.0938-6.125-0.44478-0.31723-0.90614-0.6469-1.4062-0.96875-0.0071-5e-3 -0.02415 5e-3 -0.03125 0-0.50858-0.32679-1.0248-0.67089-1.5938-1-4.6865-2.711-9.5023-4.7126-12.25-7.7188-6.829-7.4714-8.7832-19.663-15.156-27.281-0.62337-0.74782-1.2834-1.4424-2-2.0938 0.05954-3.0328 0.55347-6.133 2.0625-7.8125 4.6896-5.2193 20.656-4.0936 20.656-4.0936s-9.8575-7.1177-8.375-11.656c1.942-5.9453 17.844-5.8125 17.844-5.8125s-5.3374-8.2318-5.0312-12.812c0.55162-8.2534 12.062-21.688 12.062-21.688s-12.821 12.33-20.562 11.281c-3.3554-0.45453-7.2812-7.0938-7.2812-7.0938s-1.0034 12.414-5.75 14.594c-4.6157 2.1196-14.375-5-14.375-5s0.35274 12.358-3.875 15.719c-1.8309 1.4555-5.3046 1.5469-8.375 1.25 2.7668-3.986 6.4375-7.375 6.4375-7.375s-10.04 1.9419-11.969-1.5938c-2.5265-4.6315 6.75-14.312 6.75-14.312s-8.1462-1.5059-10.781-4.3438c-4.7478-5.1131-6.3438-19.938-6.3438-19.938z" filter="url(#ae)" opacity=".5"/>
  <g transform="translate(23.94 67.595)">
   <path d="m-207.72 46.095c1.1344 0.35798 2.3109 0.68894 3.4974 0.96722 7.5853 9.3048 20.574 18.175 35.98 23.618 14.327 5.0622 27.756 6.1107 37.401 3.6722l-5.3727 15.052c-0.58941-0.09703-1.2053-0.22125-2.6889-0.35667-2.0447-0.18665-4.4442-0.31175-6.3131 0.22701-2.9741 0.85736-6.464 3.2267-9.3449 5.378-1.9493 1.4556-2.5885 2.0508-3.4475 2.7833-0.24073-1.2576-0.60624-2.9304-1.1125-4.7071-1.0313-3.6194-2.4874-7.7199-5.3862-9.4924-3.6065-2.2053-8.8088-1.2611-13.226-0.06225-1.8219 0.49451-3.3405 1.0615-4.6981 1.5636 0.44296-0.82714 0.87561-1.5717 1.3157-2.5681 0.71208-1.6123 1.3451-3.3685 1.6303-5.0993s0.22079-3.5452-0.77011-4.9852c-1.2051-1.7512-3.1526-2.4668-5.207-2.7173s-4.3118-0.04947-6.4238 0.31508c-2.4554 0.42384-4.4536 0.98787-5.9359 1.4579 0.21245-1.0392 0.37073-1.5321 0.6047-3.4192 0.38925-3.1394 0.66721-6.8282-0.38497-9.587-1.6881-4.4263-6.0766-8.649-10.118-12.04z" fill="url(#ab)"/>
   <path d="m-147.8 74.682s-1.3015-9.096-3.4973-13.015c-2.0667-3.6885-8.7286-9.2032-8.7286-9.2032s7.846-4.911 8.185-8.9362c0.38233-4.5398-7.4158-11.481-7.4158-11.481s10.025-1.889 11.394-5.9489c1.4076-4.175-5.6207-11.963-5.6207-11.963s6.3405 1.4214 8.5606-0.37559c5.1225-4.1463 4.9625-19.138 4.9625-19.138s1.5766 14.841 6.3244 19.954c2.6351 2.8378 10.785 4.3199 10.785 4.3199s-9.2644 9.6902-6.7379 14.322c1.9287 3.5356 11.977 1.5936 11.977 1.5936s-9.9221 9.1468-9.4306 15.045c0.37389 4.4873 8.9698 10.101 8.9698 10.101s-8.7848 4.3199-11.809 7.9852c-1.7552 2.1274-3.2483 7.6096-3.2483 7.6096z" fill="url(#f)"/>
   <path d="m-140.1 6.3632c-0.72121 3.268-1.9127 6.419-4.1537 8.2328-1.6094 1.3027-3.9051 1.2311-5.8616 1.0947-0.45598-0.0318-0.43685-0.06922-0.84271-0.11887 0.55248 0.71911 1.1172 1.4456 1.7232 2.3896 0.82024 1.2779 1.6005 2.7083 2.1057 4.1486s0.76183 2.9227 0.29034 4.3211c-0.46176 1.3695-1.5435 2.3895-2.7856 3.2108s-2.6917 1.4578-4.0807 1.9674c-1.2697 0.46582-2.4411 0.7863-3.4006 1.0339 0.72447 0.72695 1.6168 1.6573 2.528 2.7589 1.9646 2.3749 4.0591 5.2806 3.8124 8.2092-0.22492 2.6706-2.5159 4.9194-4.5918 6.714-1.1126 0.96186-2.1258 1.7226-2.9042 2.2668 0.61395 0.52411 1.1939 0.99097 2.573 2.3114 1.9516 1.8686 4.1627 4.1658 5.3255 6.2412 1.2277 2.191 2.0797 5.4679 2.688 8.2711 0.50268 2.3164 0.6806 3.604 0.77397 4.2212l0.0598-1e-3c5.2856-6.8232 9.4004-17.813 10.911-30.858 1.6243-14.028-0.13229-27.289-4.1699-36.415z" fill="url(#e)" opacity=".5"/>
   <path d="m-138.95 2.9414c-0.15086 1.0185-0.33677 2.0614-0.56477 3.0945 4.0376 9.1258 5.7942 22.387 4.17 36.415-1.5105 13.046-5.6254 24.035-10.911 30.858l12.943 0.78597c0.14335-0.49942 0.27648-1.0289 0.71675-2.2495 0.60681-1.6823 1.3875-3.625 2.4601-4.9251 1.7069-2.0688 4.7053-4.0397 7.3231-5.6012 1.7713-1.0566 2.4382-1.3636 3.2852-1.7986-0.83081-0.61199-1.9194-1.4619-3.0328-2.4581-2.2681-2.0295-4.733-4.5566-4.9738-7.4467-0.29961-3.5957 2.2804-7.4006 4.7611-10.498 1.0232-1.2776 1.9891-2.2907 2.8492-3.1979-0.76495 0.07381-1.4659 0.16713-2.3534 0.18196-1.436 0.02401-2.9485-0.06285-4.3159-0.41672s-2.6689-1.0127-3.3603-2.28c-0.84077-1.5413-0.6555-3.3238-0.0918-5.0351s1.5309-3.4323 2.5646-4.9832c1.2018-1.8031 2.3399-3.1971 3.2218-4.2139-0.83602-0.17982-1.2535-0.21956-2.7164-0.66636-2.4338-0.74331-5.2284-1.7588-6.8605-3.5165-2.6186-2.82-4.1071-7.7111-5.1143-12.048z" fill="url(#d)"/>
   <g transform="matrix(.813 .8628 -.8628 .813 45.301 136.57)">
    <path d="m-147.8 74.682s-1.3015-9.096-3.4973-13.015c-2.0667-3.6885-8.7286-9.2032-8.7286-9.2032s7.846-4.911 8.185-8.9362c0.38233-4.5398-7.4158-11.481-7.4158-11.481s10.025-1.889 11.394-5.9489c1.4076-4.175-5.6207-11.963-5.6207-11.963s6.3405 1.4214 8.5606-0.37559c5.1225-4.1463 4.9625-19.138 4.9625-19.138s1.5766 14.841 6.3244 19.954c2.6351 2.8378 10.785 4.3199 10.785 4.3199s-9.2644 9.6902-6.7379 14.322c1.9287 3.5356 11.977 1.5936 11.977 1.5936s-9.9221 9.1468-9.4306 15.045c0.37389 4.4873 8.9698 10.101 8.9698 10.101s-8.7848 4.3199-11.809 7.9852c-1.7552 2.1274-3.2483 7.6096-3.2483 7.6096z" fill="url(#f)"/>
    <path d="m-140.1 6.3632c-0.72121 3.268-1.9127 6.419-4.1537 8.2328-1.6094 1.3027-3.9051 1.2311-5.8616 1.0947-0.45598-0.0318-0.43685-0.06922-0.84271-0.11887 0.55248 0.71911 1.1172 1.4456 1.7232 2.3896 0.82024 1.2779 1.6005 2.7083 2.1057 4.1486s0.76183 2.9227 0.29034 4.3211c-0.46176 1.3695-1.5435 2.3895-2.7856 3.2108s-2.6917 1.4578-4.0807 1.9674c-1.2697 0.46582-2.4411 0.7863-3.4006 1.0339 0.72447 0.72695 1.6168 1.6573 2.528 2.7589 1.9646 2.3749 4.0591 5.2806 3.8124 8.2092-0.22492 2.6706-2.5159 4.9194-4.5918 6.714-1.1126 0.96186-2.1258 1.7226-2.9042 2.2668 0.61395 0.52411 1.1939 0.99097 2.573 2.3114 1.9516 1.8686 4.1627 4.1658 5.3255 6.2412 1.2277 2.191 2.0797 5.4679 2.688 8.2711 0.50268 2.3164 0.6806 3.604 0.77397 4.2212l0.0598-1e-3c5.2856-6.8232 9.4004-17.813 10.911-30.858 1.6243-14.028-0.13229-27.289-4.1699-36.415z" fill="url(#e)" opacity=".5"/>
    <path d="m-138.95 2.9414c-0.15086 1.0185-0.33677 2.0614-0.56477 3.0945 4.0376 9.1258 5.7942 22.387 4.17 36.415-1.5105 13.046-5.6254 24.035-10.911 30.858l12.943 0.78597c0.14335-0.49942 0.27648-1.0289 0.71675-2.2495 0.60681-1.6823 1.3875-3.625 2.4601-4.9251 1.7069-2.0688 4.7053-4.0397 7.3231-5.6012 1.7713-1.0566 2.4382-1.3636 3.2852-1.7986-0.83081-0.61199-1.9194-1.4619-3.0328-2.4581-2.2681-2.0295-4.733-4.5566-4.9738-7.4467-0.29961-3.5957 2.2804-7.4006 4.7611-10.498 1.0232-1.2776 1.9891-2.2907 2.8492-3.1979-0.76495 0.07381-1.4659 0.16713-2.3534 0.18196-1.436 0.02401-2.9485-0.06285-4.3159-0.41672s-2.6689-1.0127-3.3603-2.28c-0.84077-1.5413-0.6555-3.3238-0.0918-5.0351s1.5309-3.4323 2.5646-4.9832c1.2018-1.8031 2.3399-3.1971 3.2218-4.2139-0.83602-0.17982-1.2535-0.21956-2.7164-0.66636-2.4338-0.74331-5.2284-1.7588-6.8605-3.5165-2.6186-2.82-4.1071-7.7111-5.1143-12.048z" fill="url(#d)"/>
   </g>
   <g transform="matrix(.39322 -1.1184 1.1184 .39322 -172.28 -113.45)">
    <path d="m-147.8 74.682s-1.3015-9.096-3.4973-13.015c-2.0667-3.6885-8.7286-9.2032-8.7286-9.2032s7.846-4.911 8.185-8.9362c0.38233-4.5398-7.4158-11.481-7.4158-11.481s10.025-1.889 11.394-5.9489c1.4076-4.175-5.6207-11.963-5.6207-11.963s6.3405 1.4214 8.5606-0.37559c5.1225-4.1463 4.9625-19.138 4.9625-19.138s1.5766 14.841 6.3244 19.954c2.6351 2.8378 10.785 4.3199 10.785 4.3199s-9.2644 9.6902-6.7379 14.322c1.9287 3.5356 11.977 1.5936 11.977 1.5936s-9.9221 9.1468-9.4306 15.045c0.37389 4.4873 8.9698 10.101 8.9698 10.101s-8.7848 4.3199-11.809 7.9852c-1.7552 2.1274-3.2483 7.6096-3.2483 7.6096z" fill="url(#f)"/>
    <path d="m-140.1 6.3632c-0.72121 3.268-1.9127 6.419-4.1537 8.2328-1.6094 1.3027-3.9051 1.2311-5.8616 1.0947-0.45598-0.0318-0.43685-0.06922-0.84271-0.11887 0.55248 0.71911 1.1172 1.4456 1.7232 2.3896 0.82024 1.2779 1.6005 2.7083 2.1057 4.1486s0.76183 2.9227 0.29034 4.3211c-0.46176 1.3695-1.5435 2.3895-2.7856 3.2108s-2.6917 1.4578-4.0807 1.9674c-1.2697 0.46582-2.4411 0.7863-3.4006 1.0339 0.72447 0.72695 1.6168 1.6573 2.528 2.7589 1.9646 2.3749 4.0591 5.2806 3.8124 8.2092-0.22492 2.6706-2.5159 4.9194-4.5918 6.714-1.1126 0.96186-2.1258 1.7226-2.9042 2.2668 0.61395 0.52411 1.1939 0.99097 2.573 2.3114 1.9516 1.8686 4.1627 4.1658 5.3255 6.2412 1.2277 2.191 2.0797 5.4679 2.688 8.2711 0.50268 2.3164 0.6806 3.604 0.77397 4.2212l0.0598-1e-3c5.2856-6.8232 9.4004-17.813 10.911-30.858 1.6243-14.028-0.13229-27.289-4.1699-36.415z" fill="url(#e)" opacity=".5"/>
    <path d="m-138.95 2.9414c-0.15086 1.0185-0.33677 2.0614-0.56477 3.0945 4.0376 9.1258 5.7942 22.387 4.17 36.415-1.5105 13.046-5.6254 24.035-10.911 30.858l12.943 0.78597c0.14335-0.49942 0.27648-1.0289 0.71675-2.2495 0.60681-1.6823 1.3875-3.625 2.4601-4.9251 1.7069-2.0688 4.7053-4.0397 7.3231-5.6012 1.7713-1.0566 2.4382-1.3636 3.2852-1.7986-0.83081-0.61199-1.9194-1.4619-3.0328-2.4581-2.2681-2.0295-4.733-4.5566-4.9738-7.4467-0.29961-3.5957 2.2804-7.4006 4.7611-10.498 1.0232-1.2776 1.9891-2.2907 2.8492-3.1979-0.76495 0.07381-1.4659 0.16713-2.3534 0.18196-1.436 0.02401-2.9485-0.06285-4.3159-0.41672s-2.6689-1.0127-3.3603-2.28c-0.84077-1.5413-0.6555-3.3238-0.0918-5.0351s1.5309-3.4323 2.5646-4.9832c1.2018-1.8031 2.3399-3.1971 3.2218-4.2139-0.83602-0.17982-1.2535-0.21956-2.7164-0.66636-2.4338-0.74331-5.2284-1.7588-6.8605-3.5165-2.6186-2.82-4.1071-7.7111-5.1143-12.048z" fill="url(#d)"/>
   </g>
  </g>
  <g transform="translate(-73.189 -13.443)">
   <path d="m-51.742 145.46c-2.6672-0.029-5.2201 2.0841-5.9994 5.198-0.89065 3.5588 0.86977 7.0769 3.9202 7.8404s6.235-1.5093 7.1256-5.0681-0.86977-7.0553-3.9202-7.8187c-0.3813-0.0954-0.74521-0.14747-1.1262-0.15161zm-0.7797 1.7976c0.35266-0.0373 0.70487-5e-3 1.0613 0.0866 1.9008 0.48672 3.0024 2.7125 2.4474 4.9814s-2.5609 3.7138-4.4616 3.2271-2.9807-2.7125-2.4258-4.9814c0.45092-1.8435 1.8505-3.1523 3.3787-3.3138z" fill="url(#u)"/>
   <path transform="matrix(1.2627 .31692 -.34663 1.1545 104.02 -70.002)" d="m-27.46 270.38c0 10.305-16.708 18.659-37.318 18.659s-37.318-8.3539-37.318-18.659 16.708-18.659 37.318-18.659 37.318 8.3539 37.318 18.659z" fill="url(#k)"/>
   <path d="m-88.281 197.03c-15.784-0.0389-27.888 4.602-30.344 12.781-3.572 11.897 14.631 26.812 40.656 33.344 2.8248 0.70897 5.6216 1.2932 8.375 1.75-25.974-6.5442-44.13-21.461-40.562-33.344 3.1813-10.596 22.538-15.202 45.125-11.469-8.1328-2.0412-16.075-3.0448-23.25-3.0625z" fill="url(#j)"/>
   <path transform="rotate(38.5)" d="m49.936 203.46h5.7256v22.156h-5.7256z" fill="url(#t)"/>
   <path d="m-117.59 207.01s4.5662-8.5386 13.378-13.378c1.8721-1.0282 4.3089-0.96443 5.9849-2.2884 11.762-9.2912 12.038-30.249 25.348-37.142 6.4096-3.3193 14.76-1.7957 21.651 0.35206 6.4632 2.0144 13.662 5.3195 16.899 11.266 6.003 11.03-1.7389 25.43 0.52808 37.67 0.74169 4.0046 3.7593 8.2585 6.3025 13.038 4.9398 9.2838 3.203 14.246 3.203 14.246s-7.9887-20.469-44.711-29.397c-33.51-8.1465-48.584 5.6329-48.584 5.6329z" fill="url(#s)"/>
   <path d="m-88.406 197.16c-5.7151-0.0141-10.939 0.59612-15.406 1.75 9.4122-1.3767 21.176-0.718 33.375 2.3438 26.025 6.5317 44.228 21.478 40.656 33.375-1.5671 5.2193-7.0626 8.9987-14.938 11.031 10.667-1.5602 18.321-5.7734 20.219-12.094 3.572-11.897-14.631-26.812-40.656-33.344-8.1328-2.0412-16.075-3.0448-23.25-3.0625z" fill="url(#i)"/>
   <path d="m-65.031 152.28c-2.7702 0.10515-5.4402 0.69276-7.8438 1.9375-13.31 6.8929-13.582 27.834-25.344 37.125-1.676 1.3239-4.1279 1.2531-6 2.2812-8.8119 4.8395-13.375 13.375-13.375 13.375s2.4231-2.1677 7.4062-4.2812c2.2326-2.8413 5.7202-6.4858 10.469-9.0938 1.8721-1.0282 4.2927-0.95732 5.9688-2.2812 11.762-9.2912 12.034-30.232 25.344-37.125 2.003-1.0373 4.2217-1.6236 6.5-1.8438-1.0428-0.0756-2.0988-0.1327-3.125-0.0937z" fill="url(#r)"/>
   <path d="m-62.625 157.72c-2.6991-0.0338-5.0814 0.4439-7 1.4375-4.9274 2.5517-9.346 15.225-12.5 22.375-2.4936 5.6527-5.0464 12.051-9.5625 17.312 6.3305-0.2445 13.859 0.38507 22.688 2.5312 14.296 3.4753 24.221 8.6962 31.031 13.781-0.34799-0.96439-0.64674-1.9676-0.84375-3.0312-1.3706-7.4003 0.24556-14.509 1.125-20.812s2.4584-18.531 0.28125-22.531-8.1365-7.0926-14.156-8.9688c-3.2261-1.0055-6.6878-1.832-9.875-2.0312-0.3975-0.0248-0.80191-0.0577-1.1875-0.0625z" fill="url(#q)" filter="url(#aa)" opacity=".5"/>
   <path d="m-72.686 192.69-6.9688 6c3.2511 0.41297 6.7114 1.0393 10.406 1.9375 18.303 4.4496 29.467 11.779 36.062 18l0.5625 0.1875s-3.9801-10.945-7.9688-14.938c-3.857-3.8605-9.2973-5.8861-14.438-7.7188-5.6496-2.0142-17.656-3.4688-17.656-3.4688z" fill="url(#p)" filter="url(#y)"/>
   <path d="m-51.219 154.56c5.4091 2.0687 10.745 5.1718 13.406 10.062 6.003 11.03-1.7357 25.416 0.53125 37.656 0.74169 4.0046 3.7693 8.2828 6.3125 13.062 2.2706 4.2674 3.1086 7.5897 3.375 9.9688 2.431 3.2555 3.3125 5.4688 3.3125 5.4688s1.721-4.9662-3.2188-14.25c-2.5432-4.7796-5.5708-9.0267-6.3125-13.031-2.267-12.24 5.503-26.657-0.5-37.688-3.2362-5.9463-10.443-9.2356-16.906-11.25z" fill="url(#o)"/>
   <path d="m-88.957 198.07c-15.889-0.0383-28.073 4.5422-30.545 12.615-3.5957 11.742 14.728 26.464 40.926 32.91s50.794 1.71 54.389-10.033-15.169-26.023-41.366-32.47c-8.1867-2.0146-16.182-3.0053-23.404-3.0227zm0.8808 1.2338c6.8566 0.0165 14.501 0.712 22.209 2.8685 24.079 6.7365 41.031 20.009 38.85 31.245-2.2221 11.445-26.342 15.219-51.213 9.0989s-42.263-20.097-38.85-31.245c2.3469-7.6641 13.919-12.004 29.004-11.967z" fill="url(#n)"/>
   <path d="m-67.463 190.79 9.7668-29.726s12.055 1.574 15.046 6.1046c3.2123 4.8653 0.02646 11.685-0.26397 17.517-0.20754 4.168 0.36595 10.296-1.0559 12.474-3.1682 2.296-7.5795-1.8989-11.351-2.9196-4.0615-1.0992-12.143-3.4504-12.143-3.4504z" fill="url(#m)" filter="url(#z)"/>
   <path d="m-52.469 156.14s6.0526 4.0293 8.4688 6.6875c1.5982 1.7584 3.1079 3.751 3.875 6 0.9124 2.6749 0.68434 5.6113 0.6875 8.4375 0.0049 4.3563-1.0625 18.84-1.0625 18.84s1.9718-12.111 2.4751-15.676c1.5728-14.757 0.11291-16.716-8.9438-23.102-2.8421-0.74492-5.5-1.1875-5.5-1.1875z" fill="url(#l)" filter="url(#x)"/>
   <path transform="matrix(.81081 0 0 .81081 64.651 28.709)" d="m-191.19 222.8c0 5.087-4.1238 9.2108-9.2108 9.2108s-9.2108-4.1238-9.2108-9.2108 4.1238-9.2108 9.2108-9.2108 9.2108 4.1238 9.2108 9.2108z" fill="url(#h)"/>
  </g>
  <path d="m-108.20816,129.82097c-.38002.0299-.75093.12929-1.125.25s-.73694.23946-1.0625.4375c-2.27888,1.38623-3.29828,4.53885-2.3125,7.59375 .23563.73021.56187,1.40998.96875,2-1.23945.49205-2.45516,1.04011-3.625,1.65625l-.0312.0312-.25.125c-.36727.19569-.73341.3868-1.09375.59375-.0444.0264-.0808.0671-.125.0937-.40643.23647-.80482.4908-1.1875.75-.45262.30655-.88699.63507-1.3125.96875-.11116.0878-.23469.16027-.34375.25-.17585.14373-.32968.28871-.5.4375-.63928.56211-1.23079,1.17492-1.78125,1.8125-.0915.1052-.19241.20515-.28125.3125-.15932.19387-.31836.39291-.46875.59375-.11637.15453-.23302.30991-.34375.46875-.21353.30758-.40176.61398-.59375.9375-.23905.40281-.48352.80639-.6875,1.21875-.81586,1.64956-1.34896,3.37511-1.6875,5.15625-.0847.44515-.15864.89175-.21875,1.34375-.12011.90431-.18436,1.82145-.21875,2.75-.13806,3.71263.34527,7.60456.90625,11.53125 .42123,2.94657.87112,5.91287 1.15625,8.84375 .14235,1.46478.25796,2.90468.28125,4.34375 .00017.0102-.00017.0211 0,.0312 .0443,2.86724-.20161,5.6655-.96875,8.34375-.003.01.003.0217 0,.0312-.12622.43844-.28248.88094-.4375,1.3125-.18051.50252-.4648.94727-.78125,1.375-.005.007.005.0243 0,.0312-.15412.20696-.32768.39659-.5.59375-.005.006.005.025 0,.0312-.88565,1.00981-1.94448,1.93627-2.59375,3.09375-4.91835,8.76813-4.28125,18.40625-4.28125,18.40625s.0742-.15793.0937-.21875c-.19768,1.50502-.15352,2.97682.21875,4.375 3.15971,11.86723 26.51367,14.66737 52.15625,6.28125s44.00346-25.41401 40.84375-37.28125c-.46625-1.75113-1.39475-3.29803-2.6875-4.625-.97825-1.55897-2.74672-3.7562-6.0625-6.125-.0067-.005-.02449.005-.03125,0-.44478-.31723-.90614-.6469-1.40625-.96875-.0071-.005-.02415.005-.03125,0-.50858-.32679-1.02482-.67089-1.59375-1-2.33484-1.35064-4.71645-2.53929-6.84375-3.75-2.13203-1.21812-4.03242-2.46567-5.40625-3.96875-.52489-.57427-1.02834-1.18676-1.5-1.8125-5.6537-7.50486-7.79965-18.39692-13.65625-25.4375-.005-.006.005-.0252 0-.0312-1.46709-1.75998-3.16958-3.27773-5.21875-4.4375-3.68231-2.08409-8.11261-2.45447-12.53125-2.03125h-.03125c-1.38513.13384-2.77091.36071-4.125.625 .0215-.82631-.10005-1.71046-.375-2.5625-.98577-3.05489-3.65237-4.99071-6.3125-4.78125zm-.21875,2.03125c1.66738-.11648 3.36197,1.1208 4,3.0625 .32863,1.00012.31265,2.00859.0312,2.875-.24622.0612-.50721.12415-.75.1875-1.47135.38391-2.96461.82764-4.46875,1.34375-.69684-.5409-1.27858-1.29086-1.59375-2.25-.59245-1.803-.0865-3.67965 1.125-4.625 .27955-.21819.5866-.35797.9375-.46875 .23382-.074.48055-.10836.71875-.125z" filter="url(#ac)" opacity=".5"/>
  <g transform="matrix(.84865 -.52895 .52895 .84865 -140.92 -18.301)">
   <path d="m-51.742 145.46c-2.6672-0.029-5.2201 2.0841-5.9994 5.198-0.89065 3.5588 0.86977 7.0769 3.9202 7.8404s6.235-1.5093 7.1256-5.0681-0.86977-7.0553-3.9202-7.8187c-0.3813-0.0954-0.74521-0.14747-1.1262-0.15161zm-0.7797 1.7976c0.35266-0.0373 0.70487-5e-3 1.0613 0.0866 1.9008 0.48672 3.0024 2.7125 2.4474 4.9814s-2.5609 3.7138-4.4616 3.2271-2.9807-2.7125-2.4258-4.9814c0.45092-1.8435 1.8505-3.1523 3.3787-3.3138z" fill="url(#u)"/>
   <path transform="matrix(1.2627 .31692 -.34663 1.1545 104.02 -70.002)" d="m-27.46 270.38c0 10.305-16.708 18.659-37.318 18.659s-37.318-8.3539-37.318-18.659 16.708-18.659 37.318-18.659 37.318 8.3539 37.318 18.659z" fill="url(#k)"/>
   <path d="m-88.281 197.03c-15.784-0.0389-27.888 4.602-30.344 12.781-3.572 11.897 14.631 26.812 40.656 33.344 2.8248 0.70897 5.6216 1.2932 8.375 1.75-25.974-6.5442-44.13-21.461-40.562-33.344 3.1813-10.596 22.538-15.202 45.125-11.469-8.1328-2.0412-16.075-3.0448-23.25-3.0625z" fill="url(#j)"/>
   <path transform="rotate(38.5)" d="m49.936 203.46h5.7256v22.156h-5.7256z" fill="url(#t)"/>
   <path d="m-117.59 207.01s4.5662-8.5386 13.378-13.378c1.8721-1.0282 4.3089-0.96443 5.9849-2.2884 11.762-9.2912 12.038-30.249 25.348-37.142 6.4096-3.3193 14.76-1.7957 21.651 0.35206 6.4632 2.0144 13.662 5.3195 16.899 11.266 6.003 11.03-1.7389 25.43 0.52808 37.67 0.74169 4.0046 3.7593 8.2585 6.3025 13.038 4.9398 9.2838 3.203 14.246 3.203 14.246s-7.9887-20.469-44.711-29.397c-33.51-8.1465-48.584 5.6329-48.584 5.6329z" fill="url(#s)"/>
   <path d="m-88.406 197.16c-5.7151-0.0141-10.939 0.59612-15.406 1.75 9.4122-1.3767 21.176-0.718 33.375 2.3438 26.025 6.5317 44.228 21.478 40.656 33.375-1.5671 5.2193-7.0626 8.9987-14.938 11.031 10.667-1.5602 18.321-5.7734 20.219-12.094 3.572-11.897-14.631-26.812-40.656-33.344-8.1328-2.0412-16.075-3.0448-23.25-3.0625z" fill="url(#i)"/>
   <path d="m-65.031 152.28c-2.7702 0.10515-5.4402 0.69276-7.8438 1.9375-13.31 6.8929-13.582 27.834-25.344 37.125-1.676 1.3239-4.1279 1.2531-6 2.2812-8.8119 4.8395-13.375 13.375-13.375 13.375s2.4231-2.1677 7.4062-4.2812c2.2326-2.8413 5.7202-6.4858 10.469-9.0938 1.8721-1.0282 4.2927-0.95732 5.9688-2.2812 11.762-9.2912 12.034-30.232 25.344-37.125 2.003-1.0373 4.2217-1.6236 6.5-1.8438-1.0428-0.0756-2.0988-0.1327-3.125-0.0937z" fill="url(#r)"/>
   <path d="m-62.625 157.72c-2.6991-0.0338-5.0814 0.4439-7 1.4375-4.9274 2.5517-9.346 15.225-12.5 22.375-2.4936 5.6527-5.0464 12.051-9.5625 17.312 6.3305-0.2445 13.859 0.38507 22.688 2.5312 14.296 3.4753 24.221 8.6962 31.031 13.781-0.34799-0.96439-0.64674-1.9676-0.84375-3.0312-1.3706-7.4003 0.24556-14.509 1.125-20.812s2.4584-18.531 0.28125-22.531-8.1365-7.0926-14.156-8.9688c-3.2261-1.0055-6.6878-1.832-9.875-2.0312-0.3975-0.0248-0.80191-0.0577-1.1875-0.0625z" fill="url(#q)" filter="url(#aa)" opacity=".5"/>
   <path d="m-72.686 192.69-6.9688 6c3.2511 0.41297 6.7114 1.0393 10.406 1.9375 18.303 4.4496 29.467 11.779 36.062 18l0.5625 0.1875s-3.9801-10.945-7.9688-14.938c-3.857-3.8605-9.2973-5.8861-14.438-7.7188-5.6496-2.0142-17.656-3.4688-17.656-3.4688z" fill="url(#p)" filter="url(#y)"/>
   <path d="m-51.219 154.56c5.4091 2.0687 10.745 5.1718 13.406 10.062 6.003 11.03-1.7357 25.416 0.53125 37.656 0.74169 4.0046 3.7693 8.2828 6.3125 13.062 2.2706 4.2674 3.1086 7.5897 3.375 9.9688 2.431 3.2555 3.3125 5.4688 3.3125 5.4688s1.721-4.9662-3.2188-14.25c-2.5432-4.7796-5.5708-9.0267-6.3125-13.031-2.267-12.24 5.503-26.657-0.5-37.688-3.2362-5.9463-10.443-9.2356-16.906-11.25z" fill="url(#o)"/>
   <path d="m-88.957 198.07c-15.889-0.0383-28.073 4.5422-30.545 12.615-3.5957 11.742 14.728 26.464 40.926 32.91s50.794 1.71 54.389-10.033-15.169-26.023-41.366-32.47c-8.1867-2.0146-16.182-3.0053-23.404-3.0227zm0.8808 1.2338c6.8566 0.0165 14.501 0.712 22.209 2.8685 24.079 6.7365 41.031 20.009 38.85 31.245-2.2221 11.445-26.342 15.219-51.213 9.0989s-42.263-20.097-38.85-31.245c2.3469-7.6641 13.919-12.004 29.004-11.967z" fill="url(#n)"/>
   <path d="m-67.463 190.79 9.7668-29.726s12.055 1.574 15.046 6.1046c3.2123 4.8653 0.02646 11.685-0.26397 17.517-0.20754 4.168 0.36595 10.296-1.0559 12.474-3.1682 2.296-7.5795-1.8989-11.351-2.9196-4.0615-1.0992-12.143-3.4504-12.143-3.4504z" fill="url(#m)" filter="url(#z)"/>
   <path d="m-52.469 156.14s6.0526 4.0293 8.4688 6.6875c1.5982 1.7584 3.1079 3.751 3.875 6 0.9124 2.6749 0.68434 5.6113 0.6875 8.4375 0.0049 4.3563-1.0625 18.84-1.0625 18.84s1.9718-12.111 2.4751-15.676c1.5728-14.757 0.11291-16.716-8.9438-23.102-2.8421-0.74492-5.5-1.1875-5.5-1.1875z" fill="url(#l)" filter="url(#x)"/>
   <path transform="matrix(.81081 0 0 .81081 64.651 28.709)" d="m-191.19 222.8c0 5.087-4.1238 9.2108-9.2108 9.2108s-9.2108-4.1238-9.2108-9.2108 4.1238-9.2108 9.2108-9.2108 9.2108 4.1238 9.2108 9.2108z" fill="url(#h)"/>
  </g>
  <path d="m-116.06038,128.61864c-4.28123,0-7.75,3.46877-7.75,7.75 0,.33186.022.64787.0625.96875-3.28606.89912-5.71875,3.89743-5.71875,7.46875 0,1.48834.42912,2.88185 1.15625,4.0625l.0312.0312 .0625.0937c.0318.0495.0609.10757.0937.15625 .11818.17464.2435.33578.375.5 .38539.48111.82473.93521 1.3125,1.3125 .0697.0543.14719.1043.21875.15625 .15064.10833.31029.18373.46875.28125 .0763.0476.14068.11131.21875.15625 .25873.14682.53632.28944.8125.40625l.0625.0312c.21169.0873.43562.15013.65625.21875 .19694.0618.39031.11021.59375.15625 .13307.0297.2707.0398.40625.0625 .0868.0147.1622.0507.25.0625l.25.0312c.25734.026.51687.0625.78125.0625 .26758,0 .55191-.0359.8125-.0625 .704-.0715 1.3645-.2529 2-.5 .10328.14898.19941.29627.3125.4375 .38539.48111.82473.93521 1.3125,1.3125 .0697.0543.14719.1043.21875.15625 .15064.10833.31029.18373.46875.28125 .0763.0476.14068.11131.21875.15625 .25873.14682.53632.28944.8125.40625l.0625.0312c.21169.0873.43562.15013.65625.21875 .19694.0618.39031.11021.59375.15625 .13307.0297.2707.0398.40625.0625 .0868.0147.1622.0507.25.0625l.25.0312c.25734.026.51687.0625.78125.0625 .80273,0 1.58433-.14758 2.3125-.375 .24273-.0755.4869-.15193.71875-.25 .46368-.19689.90013-.43919 1.3125-.71875s.80555-.5868 1.15625-.9375c.17533-.17586.34204-.37058.5-.5625 .95394-1.1559 1.56494-2.58091 1.71875-4.15625 .0265-.26071.0312-.51367.0312-.78125 0-.23552-.0107-.45733-.0312-.6875-.003-.0306.003-.0633 0-.0937-.0201-.19799-.059-.40045-.0937-.59375-.0112-.0632-.0185-.12491-.0312-.1875-.005-.0232-.0263-.0394-.0312-.0625-.0474-.22325-.09-.44077-.15625-.65625-.0392-.12607-.0796-.25178-.125-.375-.0428-.11729-.0767-.22921-.125-.34375-.0363-.0857-.0858-.16586-.125-.25-.0669-.14344-.1121-.29896-.1875-.4375-.0292-.0537-.0634-.10336-.0937-.15625-.21699-.37734-.47354-.72751-.75-1.0625-.78989-.95713-1.80948-1.72842-2.96875-2.21875 .0931-.14713.198-.28392.28125-.4375 .24335-.44797.44165-.91045.59375-1.40625 .0755-.24304.13588-.46621.1875-.71875 .10326-.50463.15625-1.02735.15625-1.5625 0-.23675-.0105-.48741-.0312-.71875-.003-.032.003-.0619 0-.0937-.0199-.19545-.0597-.37162-.0937-.5625-.0111-.0624-.0187-.12564-.0312-.1875-.0761-.37185-.18524-.74337-.3125-1.09375-.12971-.35513-.29013-.70258-.46875-1.03125l-.0937-.15625c-.097-.16874-.20321-.33939-.3125-.5-.013-.0192-.0181-.0434-.0312-.0625-.12377-.17846-.26802-.36375-.40625-.53125-1.4218-1.72283-3.56056-2.8125-5.96875-2.8125z" filter="url(#ad)" opacity=".5"/>
  <g transform="matrix(.53689 0 0 .53689 62.722 61.896)">
   <path d="m-317.65 135.92c0 7.9742-6.4644 14.439-14.439 14.439s-14.439-6.4644-14.439-14.439 6.4644-14.439 14.439-14.439 14.439 6.4644 14.439 14.439z" fill="url(#b)"/>
   <path d="m-320.94 126.75c1.3016 2.1685 2.0312 4.7243 2.0312 7.4375 0 7.9742-6.4633 14.438-14.438 14.438-4.4373 0-8.3827-2.0066-11.031-5.1562 2.5406 4.1307 7.0761 6.9062 12.281 6.9062 7.9742 0 14.438-6.4946 14.438-14.469 0-3.4887-1.2215-6.6604-3.2812-9.1562z" fill="url(#c)"/>
   <path transform="matrix(.27091 -.03909 .03252 .12719 -245.05 115.75)" d="m-317.65 135.92c0 7.9742-6.4644 14.439-14.439 14.439s-14.439-6.4644-14.439-14.439 6.4644-14.439 14.439-14.439 14.439 6.4644 14.439 14.439z" fill="#500"/>
   <path transform="matrix(.16546 -.03178 .01986 .10341 -282.62 100.61)" d="m-317.65 135.92c0 7.9742-6.4644 14.439-14.439 14.439s-14.439-6.4644-14.439-14.439 6.4644-14.439 14.439-14.439 14.439 6.4644 14.439 14.439z" fill="#fff" filter="url(#g)"/>
  </g>
  <g transform="matrix(.53689 0 0 .53689 66.243 73.161)">
   <path d="m-317.65 135.92c0 7.9742-6.4644 14.439-14.439 14.439s-14.439-6.4644-14.439-14.439 6.4644-14.439 14.439-14.439 14.439 6.4644 14.439 14.439z" fill="url(#b)"/>
   <path d="m-320.94 126.75c1.3016 2.1685 2.0312 4.7243 2.0312 7.4375 0 7.9742-6.4633 14.438-14.438 14.438-4.4373 0-8.3827-2.0066-11.031-5.1562 2.5406 4.1307 7.0761 6.9062 12.281 6.9062 7.9742 0 14.438-6.4946 14.438-14.469 0-3.4887-1.2215-6.6604-3.2812-9.1562z" fill="url(#c)"/>
   <path transform="matrix(.27091 -.03909 .03252 .12719 -245.05 115.75)" d="m-317.65 135.92c0 7.9742-6.4644 14.439-14.439 14.439s-14.439-6.4644-14.439-14.439 6.4644-14.439 14.439-14.439 14.439 6.4644 14.439 14.439z" fill="#500"/>
   <path transform="matrix(.16546 -.03178 .01986 .10341 -282.62 100.61)" d="m-317.65 135.92c0 7.9742-6.4644 14.439-14.439 14.439s-14.439-6.4644-14.439-14.439 6.4644-14.439 14.439-14.439 14.439 6.4644 14.439 14.439z" fill="#fff" filter="url(#g)"/>
  </g>
  <g transform="matrix(.53689 0 0 .53689 57.089 70.345)">
   <path d="m-317.65 135.92c0 7.9742-6.4644 14.439-14.439 14.439s-14.439-6.4644-14.439-14.439 6.4644-14.439 14.439-14.439 14.439 6.4644 14.439 14.439z" fill="url(#b)"/>
   <path d="m-320.94 126.75c1.3016 2.1685 2.0312 4.7243 2.0312 7.4375 0 7.9742-6.4633 14.438-14.438 14.438-4.4373 0-8.3827-2.0066-11.031-5.1562 2.5406 4.1307 7.0761 6.9062 12.281 6.9062 7.9742 0 14.438-6.4946 14.438-14.469 0-3.4887-1.2215-6.6604-3.2812-9.1562z" fill="url(#c)"/>
   <path transform="matrix(.27091 -.03909 .03252 .12719 -245.05 115.75)" d="m-317.65 135.92c0 7.9742-6.4644 14.439-14.439 14.439s-14.439-6.4644-14.439-14.439 6.4644-14.439 14.439-14.439 14.439 6.4644 14.439 14.439z" fill="#500"/>
   <path transform="matrix(.16546 -.03178 .01986 .10341 -282.62 100.61)" d="m-317.65 135.92c0 7.9742-6.4644 14.439-14.439 14.439s-14.439-6.4644-14.439-14.439 6.4644-14.439 14.439-14.439 14.439 6.4644 14.439 14.439z" fill="#fff" filter="url(#g)"/>
  </g>
 </g>
</svg>
