<?xml version="1.0" encoding="UTF-8"?>
<svg viewBox="0 0 744.09448819 1052.3622047" xmlns="http://www.w3.org/2000/svg">
 <defs>
  <linearGradient id="c" x1="320.21" x2="458.44" gradientUnits="userSpaceOnUse">
   <stop stop-color="#ff0" offset="0"/>
   <stop stop-color="#ff0" stop-opacity="0" offset="1"/>
  </linearGradient>
  <linearGradient id="b" x1="301.3" x2="506.74" gradientUnits="userSpaceOnUse">
   <stop stop-color="#fff" offset="0"/>
   <stop stop-color="#fff" stop-opacity="0" offset="1"/>
  </linearGradient>
  <radialGradient id="a" cx="652.86" cy="445.95" r="46.78" gradientTransform="matrix(1 0 0 .85523 0 64.56)" gradientUnits="userSpaceOnUse">
   <stop stop-color="#fd5" offset="0"/>
   <stop stop-color="#fd5" stop-opacity="0" offset="1"/>
  </radialGradient>
 </defs>
 <path d="m450.65 959.63 11.345-605.05s105.88-37.815-15.126-41.597-143.7-3.7815-143.7-3.7815l7.5631 3.7815 7.5631 26.471 22.689 3.7815v608.83l109.66 7.563z" fill="url(#b)" fill-rule="evenodd" stroke="#000" stroke-linejoin="round" stroke-opacity=".9875" stroke-width="3.7435"/>
 <path d="m458.21 362.14c-11.345 94.539 3.7816 177.73-11.345 94.539s-3.7815-121.01-15.126-83.194-3.7815 90.757-15.126 37.815 0-94.539-11.345-52.942-3.7816 94.539-11.345 41.597 41.597-49.16-7.5631-52.942l-49.16-3.7815 7.5631 3.7815" fill="none" stroke="#000" stroke-width="3.7435"/>
 <path d="m397.71 305.42c10.885 11.675 5.0928-32.571 0-52.942" fill="none" stroke="#000" stroke-width="3.7435"/>
 <path d="m405.27 316.76c-4.6666 18.666 46.439-11.205 49.16-30.252 6.5184-45.629-1.107-82.364-34.034-105.88-29.89-21.35-18.908-4.831-18.908-45.378 0-36.249 18.44-56.255-15.126-22.689-19.62 19.62-38.417 33.646-49.16 60.505-13.984 34.96-15.126 53.777-15.126 94.539 0 16.62 30.549 12.364 41.597 15.126 8.065 2.0162 2.683 13.415 3.7815 18.908" fill="url(#c)" fill-rule="evenodd" stroke="#000" stroke-width="3.7435"/>
 <path d="m318.29 275.17c13.835 3.4588 17.497 23.875 30.252 30.252" fill="#ffd42a" fill-rule="evenodd" stroke="#000" stroke-width="3.7435"/>
 <path d="m455.14 955.86c2.3193-0.69267 2.9535 0.9681 4.6101 2.1474 5.2101 5.0448 8.9744 11.256 13.284 17.062 4.2927 6.7649 5.1881 14.594 6.0833 22.348 0.05371 3.6621 0.9954 7.232 1.7793 10.786l-20.716 11.96c-0.40969-3.6629-0.72864-7.3601-1.4395-10.982-2.4115-7.1165-6.12-13.644-9.264-20.511-2.8838-6.6186-6.8574-12.763-8.1822-20.007-0.90354-1.1171-0.50433-3.4494-2.6515-3.2782l16.497-9.5246z" fill="#17280b" fill-rule="evenodd"/>
 <path d="m463.74 958.54c5.3368-0.67846 9.1686 1.4122 13.658 3.9384 14.116 8.9866 23.702 22.303 32.643 36.103 5.4212 8.9583 8.4499 18.894 10.917 28.964 2.3692 6.2361 3.6566 12.738 4.8884 19.26l-21.651 12.5c-2.2181-6.2968-3.9178-12.609-4.9323-19.235-4.0636-9.7586-11.568-16.569-19.092-24.245-10.016-12.733-18.07-25.981-24.266-40.94-2.8831-3.029-5.0882-5.5083-9.1831-6.522l17.017-9.825z" fill="#17280b" fill-rule="evenodd"/>
 <path d="m461.82 941.15c6.6089-1.5954 13.2-1.4662 19.861-0.38944 10.324 2.105 18.427 8.6956 26.828 14.572 14.885 6.48 28.93 14.028 41.445 24.41 9.5584 9.4601 15.248 21.193 18.421 34.07l0.20968 3.7165-21.448 12.383-1.5132-2.9639c-6.3557-11.592-16.665-20.466-25.798-29.81-11.175-9.8172-23.232-18.602-34.364-28.498-8.9817-4.9715-17.706-10.479-27.259-14.323-4.2526-1.3508-8.8114-1.9468-12.88-3.6412l16.497-9.5245z" fill="#17280b" fill-rule="evenodd"/>
 <path d="m475.75 935.66c12.812-1.6864 25.594-3.6165 38.369-5.5974 25.268-3.838 50.689-5.9552 76.235-6.0081 10.591 0.00119 20.785-1.5446 30.897 2.2099 4.1493 1.1706 6.7417 3.8459 9.6619 6.6034l-18.674 10.781c-4.5569-1.7337-9.0719-3.6256-14.097-4.0429-12.837-2.2353-25.387-1.4824-38.029 1.9077-25.913 4.6934-52.214 8.429-78.617 7.3838-7.6474-0.4387-15.435-0.97368-22.725-3.435l16.978-9.8025z" fill="#17280b" fill-rule="evenodd"/>
 <path d="m458.55 929.26c17.201-6.729 33.952-14.421 50.343-22.921 27.516-14.36 57.055-23.724 87.476-29.403 15.079-3.6233 26.65 0.25703 38.076 9.5382 4.0748 3.8556 5.5814 8.2771 6.3512 13.62l0.04886 1.8508-18.948 10.94-0.29267-1.7101c-2.185-5.454-3.856-9.2646-9.9447-11.545-16.836-6.9489-34.708-6.0803-52.152-1.4116-28.086 7.1971-56.425 14.45-82.809 26.708-11.671 5.9849-23.56 12.525-36.559 14.963l18.409-10.629z" fill="#17280b" fill-rule="evenodd"/>
 <path d="m540.41 924.31c-4.991 2.0878-10.096 3.8438-15.302 5.3081-19.477 5.1301-39.677 6.1618-59.682 7.4901-13.427 1.2422-26.969 1.1935-40.151 4.0766-4.891-4.2525 13.641-8.6608 19.725-6.5826 7.7398-0.1752 15.422-0.60031 23.17-0.40464 9.41 1.734 14.059 7.5122 17.494 15.997 2.9178 7.4362 2.9571 15.391 3.6509 23.222 0.34751 5.874-0.15097 11.701-0.72699 17.539-8.6433 20.567-26.93 16.519-40.269 5.3773-16.621-19.478-20.324-44.783-25.692-68.927-4.2555-19.853-16.423-10.419 10.284-23.757-3.9688 9.0887-6.1084 18.504-7.297 28.299-1.7244 10.886-0.8537 21.908-2.4972 32.777-0.89931 8.8183-5.0589 15.51-10.526 22.022-67.531 41.524-11.011-2.2792-18.626 12.808-4.7551 11.792-9.7792 23.541-14.833 35.161-33.115 22.621-4.569-3.4846 5.0126-12.224 15.786-14.688 33.614-26.61 52.031-37.688 60.009-39.417 49.681-22.011 16.145-12.902-6.6331 2.0344-13.393 3.463-20.228 4.5617-14.243-0.44062-23.715-9.7661-31.263-20.976-5.662-9.1986-8.1288-18.569-7.8014-29.129-2.4072-8.6316-21.24 0.72351-28.235 2.6948-13.581 2.6964-25.84 9.0347-38.491 14.352 7.3406-4.2138-31.031 13.441-23.572 9.4398 21.641-11.61 25.658-16.178 16.65-7.3732-5.0855 6.0496-9.0342 12.674-11.028 20.083 1.0008 4.4634 3.05 8.6016 4.8935 12.718 3.0292 2.4013 6.8364 2.1655 10.597 2.2201 6.649 0.45867 12.137-3.2637 18.009-6.002 15.795-9.3278 34.691-11.634 50.737-20.037-42.801 28.828-7.8153-1.8983 0.14027-13.814-25.589 5.9116-50.188 14.72-73.641 26.456-15.645 7.9765-30.39 17.552-46.402 24.798-7.1665 4.1599-14.733 6.6379-19.097 4.851 0.31596-9.0748 6.2258-17.266 11.28-24.734 12.017-12.662 28.712-20.545 45.73-24.12 17.463-3.3738 35.198-2.8562 52.854-2.0551 10.003 0.54562 35.364 2.1541-11.428 9.7971-9.9794 1.6301-19.503-5.3518-29.223-8.139-32.328-4.4359-62.471-18.115-94.117-24.957-14.266-0.832-28.903-1.4669-42.97 1.4978-6.6817 1.6765-13.031 4.3506-19.176 7.3939 16.025-11.744 25.381-8.9399 45.129-10.095 20.154-1.0924 40.319-0.08094 60.482-0.47348 24.751-1.2905 49.355-4.1681 74.146-4.6219 10.508 0.38457 17.73 3.6802 22.484 11.378-12.665 10.212-20.891 13.621-34.855 13.234-7.8535-1.2797-15.673-3.0132-23.582-4.2219-6.7498-1.5599-13.646-2.1932-20.456-3.4172-14.279-0.3009-28.681 0.96502-42.873 2.5817-14.48-1.0796-55.471 20.248-12.463-2.6649-4.4511 4.9716-8.059 9.2889-4.5975 14.974 9.2912 2.5033 19.248 1.5648 28.791 1.2034 13.362 1.0784 25.994-2.4475 38.945-4.9634 12.336-2.7295 25.522-2.3744 37.709-3.4328-20.838 15.168-37.898 7.1527-60.374 7.7903-22.011 9.1028 19.937-24.681 3.3648-0.26427-2.3157 6.9451-3.9069 14.333-3.9727 21.505 19.377-7.0918 38.295-15.477 57.968-21.972 23.338-7.73 42.332-21.984 67.084-25.392 14.392 0.27137 30.584 4.2671 33.595 20.175 0.25366 6.6999-2.6509 9.8633-7.5677 13.627-19.757 13.303-41.606 21.441-63.62 29.912-3.1488 1.3168-12.274 5.8617-9.4463 3.9504 48.327-32.668-1.7156 21.041-12.23 35.637-13.042 20.902-29.461 33.307-49.383 43.271 3.5535-10.322 11.129-18.854 18.388-26.845 19.446-17.777 42.869-30.354 65.108-44.215 9.2176-6.7202 18.552-17.421 2.436-19.977-27.935 2.1841-55.647 6.9854-83.667 8.7891 2.056-2.8644-33.561 6.5078-33.355 6.3882 23.817-13.875 25.302-18.635 18.168-6.3016-3.7726 12.035-12.445 29.121 6.0866 28.899 16.852-1.9832 32.87-7.9466 49.196-12.305-7.2796 8.8584-21.964 8.2703-39.755 10.241-31.362 3.8963-62.928 4.5097-94.461 3.2462-16.776-0.7346-33.509 1.0013-50.281 0.8637 1.3197-7.0374 12.073-8.8756 30.935-20.47 6.5415-4.0208-13.309 7.6685-20.102 11.249-2.5284 1.3329 4.866-3 7.2989-4.5 30.552-19 62.028-36.308 95.779-48.769 11.354-4.3347 23.402-5.5682 35.424-6.4136 15.476-1.4985 30.944-3.0557 46.428-4.4659 19.529-1.0118 38.908-3.5196 58.367-5.3479 18.75-1.4859 37.255 2.5322 55.949 1.715 15.033-4.0105 30.322-7.1281 45.329-11.247 8.5492-2.6589 17.19-4.9658 25.432-8.3537 35.816-22.918-31.551 24.935 6.4328-4.5114 4.5838-4.4735 11.358-8.1604 5.2474-13.147-4.1928-2.0789-8.6997-3.104-13.203-4.1767-5.471-0.74332-10.361 2.1322-15.139 4.5881-14.953 6.4975-30.606 11.182-45.262 18.36 7.1767-4.0985 14.18-8.5177 21.53-12.296 4.1929-2.155-7.5171 5.7311-11.591 8.1039l-25.262 14.183c-0.171-0.6249-0.12379-1.2724-0.18567-1.9086 0.79381-4.6613 4.5403-7.704 7.8047-10.881 12.68-8.0546 25.83-15.239 39.296-21.831-3.7092 2.23 15.667-7.3114 11.924-5.139l-18.144 10.249 2.2562-1.9124c4.0763-4.3504 8.4254-8.3763 12.905-12.3 5.6327-6.1655-6.5272 0.66376-8.7343 1.6326-13.459 5.3559-27.275 9.7056-41.006 14.297-19.437 4.842-38.093 13.608-58.068 16.172-5.3619 0.22113 9.7012-4.6614 14.798-6.3402 4.6696 4.4553 9.8886 0.97193 15.606-0.8086 7.3098-2.0689 14.219-5.1926 21.256-7.9935 7.7282-3.0794 15.648-5.6035 23.468-8.4287 6.4059-2.7494 13.111-4.0177 19.948-5.0513 15.002-4.4942-10.83 20.411-11.611 2.7712-1.2941-5.3172-3.9767-9.8426-5.6546-15.06-0.41583-5.0014-1.9327-9.0503-4.4163-13.053 26.479-20.702 16.817-11.845 10.189-0.65583-2.3954 3.1501-5.3055 6.3329-8.13 9.0475-1.2246 2.6118-3.4005 4.4735-5.3014 6.5269-6.0855 3.8733-11.867 8.0616-17.316 12.771 0.07221 3.6024-2.6446 3.1384 3.3336 2.444 28.902-15.229-22.526 14.744-0.22214 0.69031 13.02-7.9943-9.1167 5.554 27.49-15.984 6.0714-3.5723-24.497 13.923-18.335 10.509 24.45-13.547 16.284-18.069 25.996-8.8683 3.0775 6.1132 2.9833 12.901 3.1765 19.572 2.8114 11.659-1.1374 21.018-9.3089 29.468l-26.293 15.18c7.6686-9.5738 14.458-19.981 14.728-32.597-0.5933-6.5637-1.4104-13.13-3.2965-19.503-3.7506-5.9725 21.231-18.287 15.076-14.845-7.6249 4.2649-15.15 8.7067-22.665 13.162-5.2517 3.1138 28.437-16.731 15.911-9.0732-13.325 8.2418-26.432 17.296-40.99 23.104-1.6573-0.59002-3.8545 0.71954-3.8201-2.1631 4.8244-4.7037 10.165-8.7893 16.191-12.122 2.937-2.4938 5.9629-4.8547 8.0958-8.1402 1.7353-3.7545 0.1511-1.1379 2.7447-5.9384 7.8144-10.8 17.151-20.134 31.079-23.17 3.998 3.0034 6.8584 5.6425 7.6864 11.165 1.0934 5.4756 1.1799 11.094 3.9466 16.046 0.689 14.55-16.887 19.546-29.885 21.186-7.1174 1.0283-14.081 2.333-20.646 5.454-7.9162 2.9317-15.939 5.5582-23.806 8.624-6.9956 2.6677-13.894 5.6274-21.046 7.8724-4.9235 0.86277-8.3281 2.5465-12.075-1.2298 3.5612-3.0132 18.322-18.242 30.072-19.566 21.492-7.4174 43.054-14.764 65.135-20.252 9.7015-2.2055 19.765-3.543 28.989-7.3591 2.9563-1.2048 6.26-3.8029 7.4568-0.89497-3.8878 4.0196-8.3385 7.6497-12.138 11.856-12.21 7.4558-24.172 15.997-37.819 20.926-26.515 12.906 13.178-7.1316 3.0099-2.5942-4.2045 3.8177-8.2224 7.7641-11.11 12.789-32.566 23.503-8.6626 4.2839 26.144-14.223 12.458-6.1905 25.484-10.708 38.815-14.638 4.0764-1.7112 7.7929-3.5912 12.352-2.9791 4.841 0.45581 9.6751 0.84698 13.689 3.8963 3.0861 4.8781 3.4127 6.2462-1.314 10.876-15.398 12.871-34.176 21.553-51.882 30.752-9.5934 4.2282-19.531 7.4222-29.5 10.702-14.924 4.9744-30.076 9.0909-45.658 11.437-22.279 3.2406-44.729 5.3538-67.277 4.825-16.269-1.7436-32.188-3.9226-48.453-0.37573-14.895 1.8525-29.891 3.0614-44.892 3.5793-14.098 0.26889-27.374 2.6865-40.136 9.134-14.238 6.0576-75.486 39.332-22.297 6.2263 3.5515-2.2104-7.2113 4.2418-10.817 6.3627-48.993 29.644-55.979 29.774-23.641 16.901 19.891-2.7259 39.863-4.7129 59.867-6.3987 29.496-2.9137 59.627-5.4848 88.988-0.08625 24.738 7.9299-0.65302 12.63-16.425 22.195-15.56 6.2088-32.154 12.415-49.085 12.24-15.293-4.4253-13.386-15.277-7.1836-28.266 16.876-24.017 53.388-33.771 81.106-38.144 21.891-2.2099 46.045-6.056 67.376 0.61627 6.2888 3.7444 12.798 8.1064 5.6721 15.296-21.371 14.016-44.037 26.28-63.364 43.208-11.709 10.711-22.664 21.923-32.073 34.746-27.664 18.001-22.821 14.356-11.731-7.9872 24.678-36.508 50.721-67.23 94.89-81.857 9.9093-3.4399 53.732-20.52 11.05 0.43949 5.6607-3.9735 9.2845-5.9188 6.9078-13.246-13.815-11.398-30.068-13.598-48.081-11.811-23.239 3.4711-42.053 15.289-63.799 23.495-14.301 5.1278-28.929 11.525-43.883 13.839-4.5091-5.5719-2.2931-12.641 1.5576-20.111 9.4049-15.144 27.132-23.541 44.364-27.292 17.017-1.8456 53.676-0.12039 12.61 19.786-12.752 7.3599-29.467 3.7357-43.577 6.8205-12.25 1.6883-24.447 4.4939-36.887 3.7754-7.7452-0.62944-15.983-0.50891-22.786-4.6704-3.5827-4.95-2.2331-8.102 1.372-13.112 21.34-13.038 40.275-25.736 65.645-28.04 11.236-0.49816 22.032 0.49452 32.962 3.1406 7.6265 0.27971 15.196 0.83223 22.735 2.1014 7.412 1.235 14.295 3.8332 21.621 5.3542 14.516 0.17055 17.232-2.1494-4.2703 9.355-12.593-2.6448-25.457-3.2213-38.304-2.2444-23.761 2.0915-47.591 3.494-71.458 3.0697-19.277-0.37686-38.586 0.80576-57.816-1.0654-19.848-3.0626-25.081-5.2422 4.138-18.349 7.3967-3.7968 15.023-7.0358 22.963-9.5807 16.848-4.7588 34.149-7.3694 51.712-6.5448 34.211 0.64191 70.18 2.383 99.59 21.797 22.771 22.677-2.0036 35.683-25.61 36.598-16.832 0.74265-33.668 1.712-50.51 0.70148-25.311 0.92702 24.219-18.788 1.548-3.1754-4.0571 8.9773-8.0723 18.039-13.761 26.167 4.9878-0.66058 19.934-4.3594 27.771-9.8589 18.398-8.6774 35.594-19.537 53.61-28.959 17.752-8.9645 38.253-20.354 58.098-17.483 4.2088 13.427-35.902 35.078-47.64 41.238-14.931 7.9601-31.641 11.569-47.252 18.025-4.3473 1.5825-8.4319 3.5647-13.178 3.2124-3.5333-0.38175-6.9941-0.33491-9.9777-2.5774-2.9867-3.663-5.5322-6.9634-6.1977-11.965 0.53668-6.8096 2.8607-12.724 7.5229-18.06 16.131-16.027 38.803-24.18 59.539-32.444 12.119-4.6991 24.057-9.9007 36.644-13.286 7.3597-2.0031 16.557-5.7181 21.948 0.93517 3.3464 9.3269 7.3916 18.232 15.004 24.971 7.431 8.2936 13.426 22.11 23.662 25.364 7.4468-1.5704 14.667-3.8821 22.072-5.6265 26.142 2.2355-63.316 40.3-0.20504 3.6352 2.1708-1.2612-4.33 2.5424-6.495 3.8136-18.869 11.43-36.94 24.055-53.582 38.583-17.194 15.369-32.765 31.564-54.596 40.85-4.1601-10.092 1.4129-21.556 7.4376-30.892 18.202-21.975 56.467-31.935 23.485-15.613 5.4157-6.3802 8.5773-12.019 8.4219-20.807 0.26643-10.762 1.0823-21.525 1.6291-32.276 1.6896-10.929 4.2177-21.873 11.367-30.649 20.596-13.234 23.035-20.632 38.506-4.4116 15.659 19.189 25.869 41.852 30.312 66.26 2.3256 20.859 7.8506 14.085-13.833 29.174-0.12253 0.0853 4.4307-4.0781 2.0534-4.5008-0.5965-5.4387-1.0476-10.874-1.361-16.334-0.79-7.6722-2.6932-15.063-4.9352-22.48-3.7254-7.8416-7.5937-15.441-16.934-16.32-6.665 0.25432-13.331 0.27403-19.814-1.5329-10.919-8.5866 12.6-10.783 21.366-17.141 16.359-6.8376 34.138-9.5232 51.734-10.764 16.014-0.72183 32.015-0.16026 47.985-0.73692 3.5244-0.7052 7.0487-1.3524 10.468-2.5174l-17.249 9.9586z" fill="#112b00" fill-rule="evenodd"/>
 <path d="m405.39 937.51c29.761-22.671 13.021-0.7428 6.3326 8.4737-2.756 3.7396-5.7204 7.3146-8.7057 10.87l-21.624 12.485c2.0197-3.1025 4.0702-6.1851 6.0308-9.3261 9.7433-14.624 17.944-25.087 35.185-32.444l-17.219 9.9414z" fill="#112b00" fill-rule="evenodd"/>
 <path d="m405.64 916.47c-7.6721 18.414-26.565 30.347-42.216 41.807-15.05 10.02-7.6902 5.2626-22.057 14.306l-32.09 18.527c10.438-6.8025 4.9131-3.1134 16.539-11.12 21.392-16.16 42.176-33.235 60.824-52.55l19.001-10.97z" fill="#250" fill-rule="evenodd"/>
 <path d="m483.86 939.23c9.1012 7.4951 12.47 18.749 17.154 29.115 3.0731 5.3566 5.0483 11.174 6.9753 17.004l-25.195 14.546c-2.2663-5.6889-4.7854-11.249-7.189-16.881-5.752-10.365-10.659-20.747-10.605-32.895l18.86-10.889z" fill="#250" fill-rule="evenodd"/>
 <path d="m460.48 893.02c3.2746-1.161 5.474-0.00423 8.4909 0.85925 9.0257 7.0011 12.062 18.317 15.091 28.908 2.2299 12.047 5.4209 24.02 7.0469 36.155l-24.713 14.268c-3.0046-11.65-4.9962-23.577-9.1252-34.955-2.8355-11.049-4.7842-22.274-7.4386-33.326-1.9187-0.99761-3.3345-2.4308-5.8493-2.3844l16.497-9.5245z" fill="#250" fill-rule="evenodd"/>
 <path d="m447.92 915.3c0.20166 14.577-8.3316 28.732-14.88 41.562-6.6432 13.797-14.801 26.848-20.076 41.26l-21.912 12.651c1.0904-11.938 3.1693-23.644 8.4971-34.575 8.4194-17.803 19.156-33.875 29.949-50.262l18.423-10.636z" fill="#250" fill-rule="evenodd"/>
 <path d="m449.79 925.11c11.484 8.9116 17.625 23.492 22.68 36.76 4.0916 10.449 4.7744 21.096 4.0529 32.039l-21.368 12.337c-4.3462-8.9407-9.4454-17.441-14.657-25.916-6.9619-14.532-11.684-29.64-7.2049-45.694l16.497-9.5245z" fill="#250" fill-rule="evenodd"/>
 <path d="m444.73 909.67c-0.43995 5.3353-3.8064 10.026-6.2611 14.702-10.211 15.199-25.684 26.28-40.495 36.723-16.122 10.441-3.9216 2.7077-37.496 21.727l25.793-14.891c-21.893 13.01-26.781 16.379-15.457 8.8451 14.948-11.306 28.942-24.132 41.957-37.567 5.0387-6.1811 11.04-11.914 14.24-19.309l17.72-10.231z" fill="#250" fill-rule="evenodd"/>
 <path d="m394.13 944.34c-1.3404-0.89022-45.257 23.57-44.908 23.387 22.801-11.942 39.042-22.757 11.37-5.0612-19.925 12.877-38.488 27.671-57.964 41.191l-29.321 16.929c14.638-11.287 28.806-23.235 44.329-33.319 30.356-19.318 60.624-40.523 94.195-53.346l-17.701 10.219z" fill="#250" fill-rule="evenodd"/>
 <path d="m401.36 983.14c39.236-24.627-9.3441 8.9716-16.515 14.148l-37.483 21.641c22.817-16.656 46.407-32.235 71.247-45.747l-17.249 9.9586z" fill="#250" fill-rule="evenodd"/>
 <path d="m373.55 931.17c-3.4624 8.9663-9.2291 17.01-14.742 24.858-5.381 7.8228-11.842 14.638-18.929 20.877-12.957 10.115-27.799 17.414-42.049 25.428-3.7437 1.4964-7.7386 2.2301-11.656 3.0994-3.4347 1.262-6.7453 2.8441-10.106 4.2939-1.7293 0.8939-3.5767 0.858-5.4458 1.1671l19.538-11.28c1.4305-0.21699 3.294 0.64603 4.6449-0.70462 3.5092-1.5613 6.9655-3.2773 10.582-4.5689 4.5392-1.0922 9.1226-2.0897 13.374-4.0916-2.5264 1.5238-25.997 16.346-1.8335-0.09201 7.0809-5.4377 12.292-12.541 17.274-19.922 6.5138-9.5469 11.99-19.923 20.348-28.094l19.001-10.97z" fill="#250" fill-rule="evenodd"/>
 <path d="m338.55 957.33c-13.812 8.7922-28.405 17.115-43.669 23.564-13.335 2.7538-62.122 31.13-12.875 3.243l-6.8003 4.1978-26.974 15.573 5.2911-3.3264c21.969-12.833 42.764-26.814 67.083-34.54 19.15-7.587 18.953-9.8389 1.3474 0.87007l16.597-9.5821z" fill="#250" fill-rule="evenodd"/>
 <path d="m311.8 992.33c-7.3282 1.5016-14.772 2.2361-22.15 3.4057-10.387 1.9748-20.492 5.2239-30.791 7.6565l-1.9486 0.2958 20.943-12.092 4.0181-1.4907c10.11-3.053 20.248-6.4907 30.787-7.6542 5.4247-0.44036 11.032-1.5764 16.36-0.0628l-17.219 9.9414z" fill="#250" fill-rule="evenodd"/>
 <path d="m338.54 972.28c-25.733 4.5975-51.727 7.3973-77.497 11.875-20.016 3.1625-39.846 7.5793-59.319 13.181l30.086-17.37c23.04-8.9571 46.688-16.541 71.239-20.063 17.067-2.1391 36.724-5.5103 52.71 2.436l-17.219 9.9414z" fill="#250" fill-rule="evenodd"/>
 <path d="m341.58 938.34c-15.936 0.67181-31.872 0.88471-47.821 1.561-15.122 0.40951-30.228 1.4209-45.36 1.1759l28.203-16.283c16.107-1.6488 32.286-2.8743 48.484-2.9801 10.852 0.27642 25.052-0.40924 33.617 6.6396l-17.124 9.8866z" fill="#250" fill-rule="evenodd"/>
 <path d="m302.44 928.16c-8.3442 2.1441-16.383 5.2199-24.65 7.6718-23.094 6.315-46.919 9.287-70.659 11.933l38.93-22.476c19.604-2.258 39.255-3.3483 58.892-5.1395 4.929-0.44541 9.8381-1.6414 14.706-1.9306l-17.219 9.9414z" fill="#250" fill-rule="evenodd"/>
 <path d="m291.71 954.72c-24.465 16.738-52.451 22.956-81.28 26.922-8.1251 0.72145-16.219 1.6988-24.368 2.1028l24.42-14.099c10.826-2.1581 21.659-4.2879 32.421-6.7525 10.811-2.2754 72.619-17.719 31.347 1.9072l17.46-10.08z" fill="#250" fill-rule="evenodd"/>
 <path d="m321.16 958.91c-16.919 7.6178-33.808 15.264-51.125 21.965-16.41 5.8172-33.066 10.875-49.721 15.931l33.057-19.086c17.629-6.7178 35.445-12.878 53.567-18.152 10.445-3.557 20.812-7.7363 31.441-10.6l-17.219 9.9415z" fill="#250" fill-rule="evenodd"/>
 <path d="m307.17 958.55c-29.583 12.576-60.262 21.716-91.672 28.324-14.599 2.9114-29.388 4.6694-44.239 5.5237l30.845-17.809c17.875-3.6171 35.829-6.8567 53.608-10.933 24.267-5.7244 48.259-13.253 72.814-17.437l-21.357 12.33z" fill="#250" fill-rule="evenodd"/>
 <path d="m401.74 974.92c-0.61079 7.3598-5.4598 14.242-8.8962 20.834-5.3705 7.1531-9.573 15.944-17.308 20.777l-19.676 11.36c3.7197-5.8105 7.3532-11.72 11.374-17.351 5.449-8.8525 10.91-17.782 17.527-25.817l16.978-9.8024z" fill="#250" fill-rule="evenodd"/>
 <path d="m370.99 936.14c4.7109 13.417-2.3784 29.03-7.0569 41.774l-5.4835 11.39-34.303 19.805 4.1018-10.592c7.9603-17.836 15.898-35.68 25.763-52.575l16.978-9.8025z" fill="#250" fill-rule="evenodd"/>
 <path d="m368.79 961.91c2.6561 6.582 2.0754 13.814 1.492 20.748-0.08401 5.6734-0.63292 11.287-1.3803 16.904l-24.481 14.134c0.08704-5.7626 0.47614-11.472 1.753-17.119 1.4023-8.1275 2.9997-16.245 4.6752-24.308l17.941-10.358z" fill="#250" fill-rule="evenodd"/>
 <path d="m390.96 974.58c6.5991 7.5665 5.1968 16.827 3.1579 26.141l-27.506 15.881c3.2119-10.749 4.6685-21.771 7.8513-32.497l16.497-9.5245z" fill="#250" fill-rule="evenodd"/>
 <path d="m396.89 928.81c9.1426 7.0739 9.5496 20.888 9.7856 31.523-1.0014 12.493-0.48033 26.414-7.0187 37.508l-21.045 12.151c-2.9269-9.7505-3.5032-20.969-3.0047-31.721 0.40389-13.299 2.2649-26.689 4.2655-39.636l17.017-9.825z" fill="#250" fill-rule="evenodd"/>
 <path d="m414.25 922.29c9.7094 3.1539 14.012 13.191 17.25 22.082 1.7152 10.318 4.3333 19.586 8.9972 28.892 2.5936 5.2188 3.7283 10.547 4.1074 16.285l-23.192 13.39c-2.9799-4.8123-4.4276-9.866-5.6041-15.421-2.1109-9.9863-5.3496-19.123-10.861-27.816-4.0127-8.9118-6.2757-18.121-7.6765-27.609l16.978-9.8025z" fill="#250" fill-rule="evenodd"/>
 <path d="m461.62 903.59c14.76-0.04653 29.461 1.2485 44.03 3.5635 10.828 1.8272 21.116 5.1458 30.596 10.66l-23.984 13.847c-12.428-3.0638-24.852-6.0987-37.724-6.5449-11.038-1.877-21.599-4.1229-30.402-11.432l17.484-10.094z" fill="#250" fill-rule="evenodd"/>
 <path d="m476.13 902.34c12.721-8.9831 23.654-13.745 37.997-16.563 3.5228-0.50474 7.076-0.53443 10.617-0.73565l-21.536 12.434c-3.632 0.22756-7.2776 0.3678-10.883 0.88904-10.116 1.5865-31.885 10.671 1.7966-6.412l-17.992 10.388z" fill="#250" fill-rule="evenodd"/>
 <path d="m449.79 887.67c4.2528-0.74934 8.5878-0.85266 12.88-1.3378 10.745-0.53128 21.426-1.8648 32.14-2.7655 5.0224-0.6011 10.075-0.6319 15.122-0.70255l-21.125 12.197c-6.1817 0.96351-12.357 1.9898-18.575 2.6959-9.5041 1.1235-19.162 1.9376-28.693 0.77566-2.7214-0.38794-5.6772-0.50773-8.2454-1.3378l16.497-9.5245z" fill="#250" fill-rule="evenodd"/>
 <path d="m467.17 872.97c2.2115-0.06802 4.2762-0.69918 6.4104-1.1462 7.015-1.8663 14.141-3.2796 21.226-4.852 3.9353-0.87543 7.7027-2.2825 11.494-3.6165l-20.747 11.978c-4.012 1.4104-7.9835 2.9808-12.128 3.9823-6.0729 1.6442-12.086 3.1927-18.44 3.2435-1.4172 0.01066-2.9298 0.62232-4.3125-0.06502l16.497-9.5245z" fill="#250" fill-rule="evenodd"/>
 <path d="m448.89 894.97c3.5229 6.7277 2.2052 14.228 1.7037 21.488-0.99103 5.6686-1.895 11.352-2.7967 17.034l-21.872 12.628c0.31109-5.3621 0.63131-10.722 1.1384-16.077 0.97519-8.329 1.5689-16.83 4.1255-24.854l17.701-10.219z" fill="#250" fill-rule="evenodd"/>
 <path d="m490.64 890.49c-39.277 22.804-1.4387-0.1186 12.792-6.5388l-23.174 13.379c-24.571 10.609 64.749-36.195-8.0276 3.788l18.409-10.629z" fill="#250" fill-rule="evenodd"/>
 <path d="m492.57 886.64c-7.2686 2.0864-14.436 4.6671-21.743 6.7528 2.1934-2.7638-12.999 5.4132-9.9234 3.6842l18.709-10.365-2.3906 2.1467-20.791 12.003c11.983-7.4737 23.797-17.112 37.812-20.989 4.9134-1.4066 10.23-3.2536 15.306-3.036l-16.978 9.8025z" fill="#250" fill-rule="evenodd"/>
 <path d="m333.41 922.76c-4.7668 5.7993-11.601 9.9121-17.771 14.197-13.254 8.5467-57.728 33.272-13.811 8.2864l-18.267 10.547c64.931-37.978-19.123 11.616 8.5032-5.2219 8.1787-5.8976 16.366-11.798 24.329-17.983l17.017-9.825z" fill="#250" fill-rule="evenodd"/>
 <path d="m376.33 936.14c-4.4213 7.16-12.863 12.674-19.541 18.037l-8.5077 6.4039-32.271 18.631 8.4927-6.3952c11.795-8.6426 23.989-17.138 34.848-26.875l16.978-9.8025z" fill="#250" fill-rule="evenodd"/>
 <path d="m371.47 927.95c15.972-11.749 19.637-12.894 16.411 2.6423-3.5088 11.002-9.7445 21.025-17.306 29.69-12.273 12.107-27.828 21.024-43.974 26.907-7.3351 2.6762-14.988 4.1284-22.6 5.728-5.9134 1.0491-11.405 3.178-16.994 5.3086l-2.1298-1.1779 20.248-11.69 2.7936 0.79472c5.446-2.0922 10.915-3.9373 16.648-5.1087 8.4345-2.5354 16.927-4.8626 25.381-7.3335 8.608-2.9216-26.121 19.394-3.0156 0.22231 7.2519-8.5845 11.344-19.636 16.784-29.389 6.2621-15.261 6.8339-18.229 24.251-26.119l-16.497 9.5246z" fill="#250" fill-rule="evenodd"/>
 <path d="m356.25 930.59c-1.2071 11.574 35.356-16.471-19.387 15.014-20.342 6.7557-41.793 8.2619-62.985 10.122l-7.3004 0.50611 29.217-16.868 9.75-1.9204c16.696-2.7259 33.756-5.9279 50.584-2.9622-17.687 10.259-16.809 15.468-16.476 5.6917l16.597-9.5821z" fill="#250" fill-rule="evenodd"/>
 <path d="m245.21 937.62c-7.9593 2.2915-16.354 2.637-24.584 3.0766l-4.8246-0.03496 23.776-13.727 5.1671-0.16281c5.8207 0.13665 11.731 0.135 17.483 1.0233l-17.017 9.825z" fill="#250" fill-rule="evenodd"/>
 <path d="m315.25 921.61c-6.659 1.422-13.431 1.1321-20.182 0.97286-5.511 0.09783-10.989 0.51893-16.505 0.44856l22.624-13.062c5.0035-0.06113 9.9552 0.32307 14.951 0.44855 5.6087-0.12226 11.41-0.81298 16.812 0.97288l-17.701 10.219z" fill="#250" fill-rule="evenodd"/>
 <path d="m316.09 917.39c-3.2041 0.54199-6.4426 0.49785-9.6766 0.56063-1.9682-0.09752-3.9002-0.43373-5.8504-0.65066l19.318-11.153c1.8145 0.29285 3.5885 0.93052 5.453 0.8801 2.5882 0.05383 5.2061-0.10699 7.7345 0.56063l-16.978 9.8025z" fill="#250" fill-rule="evenodd"/>
 <path d="m328.42 913.75c2.2183-6.7762 2.3608-8.3456-2.7813-12.706-9.9006-3.2467-19.766-5.9272-29.273-10.28l29.002-16.745c8.0675 3.7493 15.683 7.9109 21.696 14.654 3.1694 5.5421 3.8396 8.688-0.01703 14.321l-18.627 10.754z" fill="#250" fill-rule="evenodd"/>
 <path d="m297.04 909.15c-18.944 3.8102-37.716 3.0776-56.666 0.1287l35.597-20.552c12.766 1.9639 27.864 2.6052 38.402 10.416l-17.333 10.007z" fill="#250" fill-rule="evenodd"/>
 <path d="m326.52 903.85c-9.1135 7.1928-14.952 9.6858-24.293 12.017-5.3824 1.1882-10.847 1.1968-16.318 1.0764-6.1712 0.7231-11.827-0.634-17.638-2.3088l21.558-12.446c5.3409 1.1971 10.697 2.9709 16.161 3.1614 4.9791-0.23731 9.9449-0.33198 14.922-0.27002 14.018-2.7898-9.992 4.2414-10.988 8.3527l16.597-9.5821z" fill="#250" fill-rule="evenodd"/>
 <path d="m317.15 922.81c-4.6883 0.62641-9.4263 0.67058-14.147 1.0588-5.041 0.46962-10.074 0.32243-15.12 0.18456l21.526-12.428c4.8329-0.12066 9.6567-0.33759 14.481 0.18455 3.4928 0.40169 7.0764 0.344 10.479 1.0588l-17.219 9.9414z" fill="#250" fill-rule="evenodd"/>
 <path d="m385.45 911.9c1.231 1.9277 0.88763 4.4407 0.96195 6.6756 2.3607 7.0721 0.41279 14.158-1.4453 21.101-1.2335 6.1385-2.5714 12.239-4.3307 18.245l-19.853 11.462c0.9606-5.6297 1.5911-11.172 1.9565-16.874 1.1215-7.9356 2.8608-15.648 5.2518-23.299 0.08389-2.6199-0.13099-5.3397 0.96194-7.7863l16.497-9.5246z" fill="#112b00" fill-rule="evenodd"/>
 <path d="m444.28 927.94c0.46843 1.631 1.6683 2.7934 2.5968 4.1872 3.4455 6.631 5.1891 13.936 7.8016 20.896 2.7817 10.885 3.7237 22.094 5.9258 33.094l0.54839 4.4698-22.811 13.17-1.2832-4.0455c-2.6552-10.75-6.8521-21.154-7.1812-32.369 0.01303-8.2006-1.787-16.125-1.8694-24.321-0.2378-1.8584-0.47787-3.7841-0.22473-5.5567l16.497-9.5246z" fill="#112b00" fill-rule="evenodd"/>
 <path d="m462.38 890.21c11.566-1.9353 18.917 10.477 24.807 18.48 6.0116 9.2546 9.4138 18.948 11.267 29.682l-29.023 16.756c-6.7872-8.2604-12.276-16.925-15.287-27.361-1.8009-8.3621-0.87505-23.118-8.7429-27.755l16.978-9.8025z" fill="#112b00" fill-rule="evenodd"/>
 <path d="m454.84 914.14c2.7773 15.851-7.5866 30.84-15.747 43.905-11.895 21.652-23.775 26.293-46.763 39.281l23.644-13.651c-38.507 22.907-14.989 9.0952-8.7388-7.2369 9.7407-17.025 19.09-34.296 28.7-51.384l18.904-10.914z" fill="#112b00" fill-rule="evenodd"/>
 <path d="m391.95 936.69c-27.78 9.9356-57.486 11.405-86.646 13.321l-13.004 0.91228 37.781-21.813 15.416-2.3048c21.49-1.5713 43.506-4.1758 64.889-0.76008l-18.436 10.644z" fill="#112b00" fill-rule="evenodd"/>
 <path d="m355.92 930.83c-20.257 7.7634-42.01 10.613-63.542 11.838-14.112-0.61444-47.38 19.804-1.9134-5.3261l-26.807 15.477c20.813-12.351 38.892-26.359 62.97-29.925 15.348-1.7903 31.087-3.9573 46.511-2.0054l-17.219 9.9415z" fill="#112b00" fill-rule="evenodd"/>
 <path d="m305.22 897.72c-15.246 11.723-32.335 20.488-50.874 25.148-7.1215 1.7695-14.431 2.0702-21.717 2.4852-3.3103 0.32135-6.6207 0.04728-9.9291-0.06035l20.935-12.087c3.5286-0.15049 7.0562-0.39513 10.591-0.32172 8.2266-0.47056 16.418-1.3983 24.308-3.9811 42.965-12.225-26.109 16.939 7.026 0.16809l19.66-11.351z" fill="#112b00" fill-rule="evenodd"/>
 <path d="m543.38 889.01c4.6445-0.90046 9.4148-0.99773 14.127-1.3195 10.625-1.0181 21.306-1.3337 31.966-0.77409l3.7319 0.30907-22.679 13.094-4.8025 0.30903c-9.7632 0.43373-19.577 0.51934-29.284-0.77405-3.1507-0.28185-6.6222-0.20249-9.556-1.3195l16.497-9.5246z" fill="#112b00" fill-rule="evenodd"/>
 <path d="m406.84 95.004c0.23413 2.7484-1.6856 4.8706-2.8758 7.171-2.2942 2.8373-4.9914 5.3087-7.5962 7.8525-2.9802 2.8394-6.4029 5.1662-9.6095 7.7451-3.0399 2.1166-4.3865 5.1728-6.0352 8.324-1.8933 3.9463-4.2286 7.6584-6.4462 11.422-1.256 4.0259-3.305 7.4848-5.8571 10.897-1.9562 2.5587-4.4402 4.6378-6.7482 6.8617-1.8299 2.2359-3.521 4.5738-5.2206 6.9082-2.1488 2.7464-3.5377 5.9147-5.0268 9.0381-0.96784 3.9133-1.989 7.8131-3.0048 11.713-0.20912 3.9191-0.59088 7.7103-1.446 11.565-0.76937 3.3288-2.3841 6.3904-3.7647 9.4975-0.9269 2.5084-0.81673 5.1706-1.0077 7.7856 0.55202 3.3226 0.275 6.7101 0.18654 10.06 0.87516 3.5038 0.92848 7.1172 1.1252 10.699-0.26089 3.1555 0.3058 6.1182 0.77742 9.1915 0.52031 3.2761 0.52327 6.5943 0.60994 9.8998 0.25328 3.4014 0.39456 6.8238 0.48466 10.236 0.0885 3.6623-0.16329 7.3232-0.33519 10.98 0.44948 3.4902 0.15738 7.0203 0.02995 10.524-0.9582 3.0234 0.56991 4.6312 1.485 6.8131 3.0623 1.3962 6.1056 2.7717 9.1027 4.305 2.7681 1.7922 5.8609 2.2828 9.0042 2.8874 1.1401-0.20302 3.4248 0.71479 3.5315 0.73705l-16.834 9.5553c-3.0644-0.83368-3.5767-3.2062-4.8064-5.9539-1.8231-6.0769-2.6155-12.363-3.8256-18.58-0.41396-3.9483-1.9262-7.5042-3.3861-11.121-0.96658-3.5188-2.3146-6.8636-3.7771-10.194-1.6732-6.1799-0.77604-12.634-0.63551-18.952 0.43317-5.807-0.3824-11.624-0.72242-17.424-0.29413-7.9118-0.06349-15.648-1.0101-23.518-0.77102-6.3145-0.73713-12.582-0.07876-18.869 0.6051-3.5604 2.7824-5.5536 5.1783-7.9574 2.78-1.8479 3.9598-4.5289 5.376-7.3402 1.4682-3.62 3.807-6.7833 5.9676-10.009 1.9411-3.6108 3.6386-7.3092 5.6248-10.897 2.3478-3.2365 5.4708-5.7081 8.5063-8.2417 4.6479-3.6161 9.8178-6.5305 14.873-9.5407 63.579-41.342-5.4127 9.9785 8.6734-6.9378l0.19354-1.4778 18.925-10.926-0.91106 1.8921c-11.003 7.3101-45.481 29.496-6.8108 5.8625-5.133 3.0762-10.308 6.13-15.125 9.6862-3.1754 2.4615-6.4556 4.7915-8.5871 8.2883-2.1046 3.8234-4.3132 7.5838-6.4637 11.381-2.0298 3.2954-4.1004 6.5842-5.9447 9.9956-1.5948 2.7848-2.9664 5.5993-5.6657 7.5074-2.3415 2.3442-4.5052 3.9649-4.5208 7.5777 1.1257 5.6985 2.2128 11.393 3.0791 17.137 0.73354 7.9094 1.0958 15.888 0.49077 23.817-0.34594 6.074-1.1811 12.18-0.71779 18.255 0.30832 6.2904 1.3833 12.565 0.78042 18.868-0.1375 4.1933 0.12361 7.2691 2.2991 11.047 1.4591 3.5135 2.8191 6.9836 4.6539 10.389 2.5145 6.0884 4.3705 12.044 3.4999 18.768 0.03204 2.8377-0.38222 5.5704 1.5371 7.8414-11.796 6.9294-12.193 10.246-21.785 9.9657-3.3839-0.4545-6.7714-0.7596-9.8636-2.3912-2.5314-1.7031-5.1325-3.3012-7.5445-5.2046-1.4744-2.1309-3.0076-3.1054-2.4178-6.2746-0.13297-3.5167-0.41003-7.0546 0.0338-10.56-0.17003-3.5309-0.41782-7.0657-0.31973-10.602 0.07767-3.5581 0.26897-7.1356 0.30075-10.69-0.30996-3.209-0.62576-6.4137-1.1265-9.6016-0.08711-3.119-0.11451-6.253-0.48202-9.362-0.50092-3.5528-1.2031-7.1201-1.0925-10.718-0.10962-3.4306-0.4012-6.8954 0.22165-10.295 0.19938-2.5961 0.14304-5.2331 0.94401-7.7488 1.0603-2.8733 2.2882-5.6938 2.5308-8.7852 0.85867-3.9839 1.9072-7.9004 2.1665-11.981 0.62517-3.875 1.0842-7.826 2.6064-11.483 1.7684-3.155 3.3365-6.4386 5.5548-9.3429 1.8459-2.4615 3.7034-4.9031 5.743-7.2099 1.956-1.9397 4.0195-3.8289 5.5277-6.157 2.4084-3.6142 4.5335-7.3995 6.5042-11.271 1.6915-3.6785 3.4411-7.3132 5.4408-10.842 1.9869-3.1014 3.9421-6.2462 6.7184-8.7185 3.2077-2.5828 6.5359-5.0283 9.6174-7.7496 2.6196-2.5407 5.3502-4.9975 7.6206-7.8666 1.764-2.8928 3.4332-5.883 5.4057-8.6315l16.497-9.5246z" fill="#ffd42a" fill-rule="evenodd"/>
 <path d="m363.94 315.82c-5.952 0.44193-9.3061-2.4064-13.53-6.0267-3.474-4.2603-4.6507-9.0695-5.3199-14.358-1.0747-6.6246-2.5654-13.264-3.4247-19.952-0.12402-5.7566-0.53113-11.16-2.5768-16.407-4.1998-5.7554-5.4712-12.254-6.4554-19.136l22.395-12.93c1.9151 6.7596 3.4295 13.473 4.1229 20.483 1.4984 5.0504 3.4624 9.9906 4.7788 15.136 1.045 7.2348 1.4565 14.307 0.54038 21.617 1.5098 5.0076 3.1122 9.6761 7.1311 13.312 2.8377 3.2374 5.5358 6.5326 9.5582 8.3198l-17.219 9.9415z" fill="#fff6d5" fill-rule="evenodd"/>
 <path d="m405.67 304.75c-19.17 11.893-16.19 11.931-16.582-2.8494-1.2982-10.208-0.1965-20.406 1.1811-30.529-0.18586-5.9376-0.44682-11.887-0.85393-17.813-0.25715-2.9786-1.7801-5.4839-2.8824-7.9863l18.805-10.857c1.1825 2.5241 2.4516 5.0285 3.5139 7.6217 1.6952 5.4194 3.0791 10.77 3.1287 16.5 1.7502 9.9338 2.3526 19.899-0.04477 29.873-3.5208 15.428-4.3838 16.679-22.762 25.565l16.497-9.5246z" fill="#fc0" fill-rule="evenodd"/>
 <path d="m348.55 302.15c-4.2142-8.7572-1.3089-18.333-1.4404-27.593-0.20821-6.5067-1.1929-12.897-2.2222-19.297 0.22593-4.6495-0.17834-9.0856-0.76323-13.641-0.95812-4.1651-1.82-8.1632-2.1259-12.423-0.24991-5.8057-0.85247-11.551-0.90186-17.381 0.04441-2.9952 0.4003-5.9696 0.66849-8.9486l20.045-11.573c0.26714 2.724 0.62536 5.4425 0.65426 8.185-0.03463 6.0801-0.72853 12.136-0.50201 18.191 0.23884 4.3463-0.29795 8.7614 1.3281 12.884 0.86928 4.1987 1.6409 8.419 2.4326 12.677 0.76256 6.3125 2.3344 12.323 3.495 18.562 1.3702 9.6663 2.7589 19.46-0.80066 28.887l-19.867 11.47z" fill="#fea" fill-rule="evenodd"/>
 <path transform="matrix(3.7435 0 0 3.7435 -2041.4 -1497.6)" d="m616.98 471.6a46.786 40 0 1 1 0.99855 0.98699" fill="url(#a)" fill-rule="evenodd"/>
</svg>
