<?xml version="1.0" encoding="UTF-8"?>
<svg viewBox="0 0 262.34338 327.57755" xmlns="http://www.w3.org/2000/svg">
 <path d="m254.95 326.72c-1.1546-0.46676-3.052-2.4632-4.2163-4.4366-2.5287-4.2858-6.704-4.9035-9.7794-1.4467-5.002 5.6223-15.96 7.3622-26.146 4.1514-6.8024-2.1442-8.4572-4.026-20.579-23.401-7.3309-11.717-11.139-16.736-15.952-21.023-4.0052-3.5671-7.5176-7.8733-9.5838-11.75-3.4999-6.5666-5.1309-7.4042-7.5876-3.8968-1.841 2.6284-2.0046 6.7004-0.40968 10.201 0.8853 1.943 0.85736 2.8665-0.12244 4.0471-1.0444 1.2584-4.1294 1.5269-17.397 1.5143-8.8702-0.00842-16.795-0.43713-17.61-0.95267-1.2415-0.78501-1.0296-1.41 1.3033-3.8451 2.3471-2.4498 3.8334-3.0055 9.4388-3.529 6.5992-0.61625 6.7082-0.6759 13.447-7.3628 7.354-7.2976 8.7058-11.255 4.9929-14.615-2.5904-2.3443-28.867-13.68-31.711-13.68-1.6739 0-3.3012 1.2767-5.4168 4.25-4.3709 6.1429-6.3619 8.2996-8.9315 9.6748-3.5617 1.9061-10.14 12.803-10.14 16.796 0 4.6972 1.5962 7.2792 4.5 7.2792 2.3867 0 5.3309 3.5025 4.0342 4.7992-0.83544 0.83545-36.614 1.3864-38.534 0.5934-1.8451-0.76181 4.1657-3.2024 8.1682-3.3165 4.3704-0.12462 5.81-1.1083 7.9752-5.4494 1.132-2.2697 4.6747-6.8267 7.8726-10.127 6.4472-6.653 9.984-12.312 9.984-15.975 0-3.9078-6.8422-16.515-12.74-23.476-3.0067-3.5482-9.2376-12.18-13.846-19.181s-8.8473-13.018-9.4188-13.372c-1.8538-1.1457-6.613-11.776-9.4004-20.996-1.4964-4.95-4.042-12.6-5.6571-17-3.3909-9.2383-6.2199-18.652-7.9639-26.5-0.6722-3.025-1.6203-6.8168-2.107-8.4262-2.6736-8.8419-1.9651-22.17 1.5927-29.964 2.0165-4.4172 4.2991-14.977 4.9172-22.749 0.45495-5.7198 0.25789-6.883-1.4239-8.405-1.0736-0.97158-1.952-2.3026-1.952-2.9579s-0.69409-2.5827-1.5424-4.2832c-2.4943-5-8.4815-7.5784-23.458-10.102-7.3805-1.2439-14.955-2.9032-16.831-3.6873-2.928-1.2234-3.2289-1.6469-2.1197-2.9833 3.0178-3.6362 15.462-9.1146 24.952-10.985 7.8359-1.5442 12.515-3.8037 16.617-8.0243 2.3295-2.3969 5.5062-4.6484 7.0594-5.0032s6.6488-1.9148 11.324-3.4665c11.035-3.6628 16.594-4.412 22.071-2.9743 6.7125 1.7621 20.689 11.449 26.184 18.149 2.6155 3.1886 9.0038 9.4312 14.196 13.872 9.1947 7.8647 14.535 14.045 17.982 20.812 1.2348 2.4239 3.3655 4.1138 7.8794 6.2492 3.4028 1.6098 6.8619 2.9315 7.6869 2.9371 2.6791 0.01817 11.611 5.7605 16.383 10.533 9.4528 9.4528 20.002 27.432 26.065 44.424 1.4651 4.1058 3.0187 7.9308 3.4525 8.5 1.056 1.3855 2.8586 8.8714 3.6204 15.035 0.33991 2.75 1.4592 7.475 2.4873 10.5s3.0685 10.9 4.5342 17.5 3.7432 15.515 5.0611 19.812 2.3961 8.8062 2.3961 10.022c0 3.5053 6.7362 25.982 9.79 32.667 1.1307 2.475 3.7012 9.3993 5.7122 15.387 2.1159 6.3005 5.6528 14.095 8.3952 18.5 2.6064 4.187 5.671 9.6376 6.8102 12.113 3.4082 7.4045 7.2924 16.22 7.2924 16.551 0 0.17029-1.0125 0.45341-2.25 0.62916-1.9915 0.28283-2.2134 0.80868-1.9318 4.5764 0.17504 2.3413 1.872 7.6197 3.771 11.73 4.1955 9.0807 5.0856 12.995 3.4128 15.011-1.3748 1.6566-3.4061 1.8188-6.6014 0.52706z"/>
</svg>
