<?xml version="1.0" encoding="UTF-8" standalone="yes"?>
<svg fill="none" stroke-linecap="square" stroke-miterlimit="10" version="1.1" viewBox="0.0 0.0 335.5196850393701 465.12073490813646" xmlns="http://www.w3.org/2000/svg">
 <clipPath id="a">
  <path d="m0 0h335.52v465.12h-335.52v-465.12z"/>
 </clipPath>
 <g clip-path="url(#a)">
  <path d="m0 0h335.52v465.12h-335.52z" fill="#000" fill-opacity="0"/>
  <path d="m181.99 173c22.771-20.09 56.669-33.213 84.566-32.737 27.896 0.47588 43.715 14.447 39.463 34.853-4.2521 20.406-27.649 42.804-58.368 55.875z" fill="#e69138"/>
  <path d="m181.99 173c22.771-20.09 56.669-33.213 84.566-32.737 27.896 0.47588 43.715 14.447 39.463 34.853-4.2521 20.406-27.649 42.804-58.368 55.875z" stroke="#000" stroke-linecap="butt" stroke-linejoin="round"/>
  <path d="m212.65 179.32c14.803-13.01 36.799-21.512 54.881-21.214 18.081 0.29793 28.314 9.3316 25.532 22.539-2.7826 13.208-17.975 27.716-37.907 36.199z" fill="#f6b26b"/>
  <path d="m212.65 179.32c14.803-13.01 36.799-21.512 54.881-21.214 18.081 0.29793 28.314 9.3316 25.532 22.539-2.7826 13.208-17.975 27.716-37.907 36.199z" stroke="#000" stroke-linecap="butt" stroke-linejoin="round"/>
  <path d="m145.3 168.72c-22.771-20.09-56.669-33.213-84.566-32.737-27.896 0.47588-43.715 14.447-39.463 34.853 4.2521 20.406 27.649 42.804 58.368 55.875z" fill="#e69138"/>
  <path d="m145.3 168.72c-22.771-20.09-56.669-33.213-84.566-32.737-27.896 0.47588-43.715 14.447-39.463 34.853 4.2521 20.406 27.649 42.804 58.368 55.875z" stroke="#000" stroke-linecap="butt" stroke-linejoin="round"/>
  <path d="m121.91 175.62c-14.803-13.01-36.799-21.512-54.881-21.214-18.081 0.29791-28.314 9.3316-25.532 22.539 2.7826 13.208 17.975 27.716 37.907 36.199z" fill="#f6b26b"/>
  <path d="m121.91 175.62c-14.803-13.01-36.799-21.512-54.881-21.214-18.081 0.29791-28.314 9.3316-25.532 22.539 2.7826 13.208 17.975 27.716 37.907 36.199z" stroke="#000" stroke-linecap="butt" stroke-linejoin="round"/>
  <path d="m94.771 163.98c-18.334-11.035-61.115-38.945-76.83-66.213s-19.424-91.486-17.46-97.395c1.9642-5.9091 18.114 61.228 29.246 61.94 11.131 0.71165 34.123-62.867 37.543-57.67 3.4198 5.197-20.735 76.535-17.024 88.852 3.7105 12.317 35.795-19.791 39.287-14.949 3.4925 4.8414-24.735 29.758-18.332 43.998 6.4025 14.239 52.819 34.531 56.747 41.438 3.9285 6.9063-14.842 11.035-33.176 0z" fill="#783f04"/>
  <path d="m94.771 163.98c-18.334-11.035-61.115-38.945-76.83-66.213s-19.424-91.486-17.46-97.395c1.9642-5.9091 18.114 61.228 29.246 61.94 11.131 0.71165 34.123-62.867 37.543-57.67 3.4198 5.197-20.735 76.535-17.024 88.852 3.7105 12.317 35.795-19.791 39.287-14.949 3.4925 4.8414-24.735 29.758-18.332 43.998 6.4025 14.239 52.819 34.531 56.747 41.438 3.9285 6.9063-14.842 11.035-33.176 0z" stroke="#000" stroke-linecap="butt" stroke-linejoin="round" stroke-width="3"/>
  <path d="m236.43 167.39c18.334-11.035 61.115-38.945 76.83-66.213s19.424-91.486 17.46-97.395c-1.9643-5.9091-18.114 61.228-29.246 61.94-11.131 0.71165-34.123-62.867-37.543-57.67-3.4198 5.197 20.735 76.535 17.024 88.852-3.7105 12.317-35.795-19.791-39.287-14.949-3.4925 4.8414 24.735 29.758 18.332 43.998-6.4025 14.239-52.819 34.531-56.747 41.438-3.9285 6.9063 14.842 11.035 33.176 0z" fill="#783f04"/>
  <path d="m236.43 167.39c18.334-11.035 61.115-38.945 76.83-66.213s19.424-91.486 17.46-97.395c-1.9643-5.9091-18.114 61.228-29.246 61.94-11.131 0.71165-34.123-62.867-37.543-57.67-3.4198 5.197 20.735 76.535 17.024 88.852-3.7105 12.317-35.795-19.791-39.287-14.949-3.4925 4.8414 24.735 29.758 18.332 43.998-6.4025 14.239-52.819 34.531-56.747 41.438-3.9285 6.9063 14.842 11.035 33.176 0z" stroke="#000" stroke-linecap="butt" stroke-linejoin="round" stroke-width="3"/>
  <path d="m39.849 300.37c0-83.834 55.016-151.8 122.88-151.8 32.59 0 63.846 15.993 86.891 44.46s35.991 67.077 35.991 107.34c0 83.834-55.016 151.8-122.88 151.8-67.866 0-122.88-67.961-122.88-151.8z" fill="#e69138"/>
  <path d="m39.849 300.37c0-83.834 55.016-151.8 122.88-151.8 32.59 0 63.846 15.993 86.891 44.46s35.991 67.077 35.991 107.34c0 83.834-55.016 151.8-122.88 151.8-67.866 0-122.88-67.961-122.88-151.8z" stroke="#000" stroke-linecap="butt" stroke-linejoin="round" stroke-width="3"/>
  <path d="m59.916 396.61c0-35.459 46.034-64.205 102.82-64.205 56.785 0 102.82 28.745 102.82 64.205 0 35.459-46.034 64.205-102.82 64.205s-102.82-28.745-102.82-64.205z" fill="#f6b26b"/>
  <path d="m59.916 396.61c0-35.459 46.034-64.205 102.82-64.205 56.785 0 102.82 28.745 102.82 64.205 0 35.459-46.034 64.205-102.82 64.205s-102.82-28.745-102.82-64.205z" stroke="#000" stroke-linecap="butt" stroke-linejoin="round" stroke-width="3"/>
  <path d="m101.84 353.5c0-23.587 27.258-42.709 60.882-42.709s60.882 19.121 60.882 42.709c0 23.587-27.258 42.709-60.882 42.709s-60.882-19.121-60.882-42.709z" fill="#c00"/>
  <path d="m101.84 353.5c0-23.587 27.258-42.709 60.882-42.709s60.882 19.121 60.882 42.709c0 23.587-27.258 42.709-60.882 42.709s-60.882-19.121-60.882-42.709z" stroke="#000" stroke-linecap="butt" stroke-linejoin="round" stroke-width="3"/>
  <path d="m201.21 327.01c3.7846 5.9011 19.4 37.882 18.738 38.377-0.66153 0.49506-19.585-29.01-22.708-35.406-3.1231-6.3961 0.18454-8.8714 3.9691-2.9703z" fill="#ea9999"/>
  <path d="m67.991 267.71c0-21.004 13.044-38.032 29.134-38.032 7.7268 0 15.137 4.0069 20.601 11.139 5.4637 7.1323 8.5331 16.806 8.5331 26.892 0 21.004-13.044 38.031-29.134 38.031s-29.134-17.027-29.134-38.031z" fill="#efefef"/>
  <path d="m67.991 267.71c0-21.004 13.044-38.032 29.134-38.032 7.7268 0 15.137 4.0069 20.601 11.139 5.4637 7.1323 8.5331 16.806 8.5331 26.892 0 21.004-13.044 38.031-29.134 38.031s-29.134-17.027-29.134-38.031z" stroke="#000" stroke-linecap="butt" stroke-linejoin="round" stroke-width="3"/>
  <path d="m203.65 267.71c0-21.004 13.044-38.032 29.134-38.032 7.7268 0 15.137 4.0069 20.601 11.139 5.4636 7.1323 8.5331 16.806 8.5331 26.892 0 21.004-13.044 38.031-29.134 38.031s-29.134-17.027-29.134-38.031z" fill="#f3f3f3"/>
  <path d="m203.65 267.71c0-21.004 13.044-38.032 29.134-38.032 7.7268 0 15.137 4.0069 20.601 11.139 5.4636 7.1323 8.5331 16.806 8.5331 26.892 0 21.004-13.044 38.031-29.134 38.031s-29.134-17.027-29.134-38.031z" stroke="#000" stroke-linecap="butt" stroke-linejoin="round" stroke-width="3"/>
  <path d="m76.823 284.16c0-11.655 7.9179-21.102 17.685-21.102 4.6904 0 9.1886 2.2233 12.505 6.1807 3.3166 3.9575 5.1798 9.3249 5.1798 14.922 0 11.655-7.9179 21.102-17.685 21.102-9.7672 0-17.685-9.4478-17.685-21.102z" fill="#000"/>
  <path d="m76.823 284.16c0-11.655 7.9179-21.102 17.685-21.102 4.6904 0 9.1886 2.2233 12.505 6.1807 3.3166 3.9575 5.1798 9.3249 5.1798 14.922 0 11.655-7.9179 21.102-17.685 21.102-9.7672 0-17.685-9.4478-17.685-21.102z" stroke="#000" stroke-linecap="butt" stroke-linejoin="round" stroke-width="3"/>
  <path d="m119.65 151.56c-18.953 3.4204-17.47 9.248-12.931 21.406s21.209 49.395 40.162 51.542c18.953 2.1474 61.296-26.647 73.555-38.658s16.798-27.692 0-33.407c-16.798-5.7151-81.833-4.3042-100.79-0.8838z" fill="#f9cb9c"/>
  <path d="m119.65 151.56c-18.953 3.4204-17.47 9.248-12.931 21.406s21.209 49.395 40.162 51.542c18.953 2.1474 61.296-26.647 73.555-38.658s16.798-27.692 0-33.407c-16.798-5.7151-81.833-4.3042-100.79-0.8838z" stroke="#000" stroke-linecap="butt" stroke-linejoin="round" stroke-width="3"/>
  <path d="m215.1 282.92c0-11.655 7.9179-21.102 17.685-21.102 4.6904 0 9.1886 2.2233 12.505 6.1808 3.3166 3.9575 5.1798 9.3249 5.1798 14.922 0 11.655-7.9179 21.102-17.685 21.102-9.7672 0-17.685-9.4478-17.685-21.102z" fill="#000"/>
  <path d="m215.1 282.92c0-11.655 7.9179-21.102 17.685-21.102 4.6904 0 9.1886 2.2233 12.505 6.1808 3.3166 3.9575 5.1798 9.3249 5.1798 14.922 0 11.655-7.9179 21.102-17.685 21.102-9.7672 0-17.685-9.4478-17.685-21.102z" stroke="#000" stroke-linecap="butt" stroke-linejoin="round" stroke-width="3"/>
  <path d="m85.187 271.96c0-5.836 4.174-10.567 9.3228-10.567 2.4726 0 4.8439 1.1133 6.5922 3.095 1.7484 1.9817 2.7306 4.6694 2.7306 7.472 0 5.8359-4.174 10.567-9.3228 10.567-5.1489 0-9.3228-4.731-9.3228-10.567z" fill="#fff"/>
  <path d="m223.47 270.98c0-5.8359 4.174-10.567 9.3228-10.567 2.4726 0 4.8439 1.1133 6.5922 3.095 1.7484 1.9817 2.7306 4.6694 2.7306 7.472 0 5.836-4.174 10.567-9.3228 10.567-5.1489 0-9.3228-4.731-9.3228-10.567z" fill="#fff"/>
  <path d="m92.917 399.78c7.24 6.7948 12.92 16.267 21.764 20.33 16.953 7.7892 36.172 8.1643 54.532 10.039" fill="#000" fill-opacity="0" fill-rule="evenodd"/>
  <path d="m92.917 399.78c7.24 6.7948 12.92 16.267 21.764 20.33 16.953 7.7892 36.172 8.1643 54.532 10.039" fill-rule="evenodd" stroke="#000" stroke-linecap="butt" stroke-linejoin="round" stroke-width="3"/>
  <path d="m242.1 399.78c-7.2399 6.7948-12.92 16.267-21.764 20.33-16.953 7.7892-36.172 8.1643-54.532 10.039" fill="#000" fill-opacity="0" fill-rule="evenodd"/>
  <path d="m242.1 399.78c-7.2399 6.7948-12.92 16.267-21.764 20.33-16.953 7.7892-36.172 8.1643-54.532 10.039" fill-rule="evenodd" stroke="#000" stroke-linecap="butt" stroke-linejoin="round" stroke-width="3"/>
 </g>
</svg>
