<?xml version="1.0" encoding="UTF-8"?>
<svg viewBox="0 0 430.40649 293.4751" xmlns="http://www.w3.org/2000/svg">
 <defs>
  <clipPath id="a">
   <path d="m120.77 308.44h479.33v212.19h-479.33z"/>
  </clipPath>
 </defs>
 <g transform="translate(-138.8 -227.15)">
  <path d="m219.78 402.05s10.233-4.271 8.5244-8.2942c-3.0886-7.2739 13.466-12.459 13.466-12.459s14.929-6.938 18.015 0.84206c1.6996 4.2862 11.48 1.2606 11.48 1.2606l31.669 89.759-52.43 18.109z"/>
  <g clip-path="url(#a)">
   <path d="m569.21 348.45c-15.892 0.44949-32.064 1.986-48.438 4.7812-168.3 28.731-273.32 96.141-304.5 142.69-6.4361 9.6078-7.8427 19.608-5.0625 29.688h358v-177.16z"/>
   <path d="m210.64 527.36c2.8264 2.765 10.048-8.4176 10.897-14.807s-7.7789-23.605-12.554-26.361c8.4847 13.843-8.9505 10.782-8.9505 10.782s3.91-11.916 0.16873-17.54c-0.16106 3.3478 1.4419 13.916-8.452 21.758s-2.0391-7.7908 1.6106-10.064c1.4127-0.87999-11.65 2.8647-15.002 11.666-4.6189 12.129 11.248-28.148-0.9357-33.175 6.0255 5.5356 0.47552 34.645-10.093 42.135-12.525 8.8758-8.1732-14.43-4.6325-19.411 1.8254-2.5678-6.2738 5.6741-6.2738 5.6741s0.32213 3.8794 0-0.0276 1.3405-9.5889 4.7552-13.391c4.9826-3.053 1.5196-2.1868-7.4242 5.8743-2.3507 2.1187 0.41416 7.0685-2.7764 3.8518s-1.1504-6.9373 1.0277-9.3809-18.775 9.94-10.952 33.216 69.587 9.2014 69.587 9.2014z" stroke="#000" stroke-linecap="round"/>
  </g>
  <path transform="rotate(7.872)" d="m512.18 158.49h21.802v169.04h-21.802z"/>
  <path transform="matrix(.99415,.10804,-.17326,.98488,0,0)" d="m482.11 197.82h96.533v18.675h-96.533z"/>
  <g transform="matrix(.8861 -.4635 .4635 .8861 -146.73 181.99)">
   <g transform="matrix(.74351 0 0 .68112 91.545 91.692)">
    <path d="m380.47 328.22c0 12.934-11.038 23.419-24.654 23.419s-24.654-10.485-24.654-23.419 11.038-23.419 24.654-23.419c13.556 0 24.568 10.395 24.654 23.272"/>
    <path transform="matrix(.81346 0 0 .69404 66.246 100.72)" d="m380.47 328.22c0 12.934-11.038 23.419-24.654 23.419s-24.654-10.485-24.654-23.419 11.038-23.419 24.654-23.419c13.556 0 24.568 10.395 24.654 23.272" fill="#f5f5f5"/>
   </g>
   <path d="m351.41 291.12h9.3714v58.924h-9.3714z"/>
   <path d="m331.06 311.15h50.089v8.2001h-50.089z"/>
  </g>
  <path transform="matrix(.8861,-.4635,.4635,.8861,0,0)" d="m127.36 438.34h28.743v62.887h-28.743z"/>
  <path transform="matrix(.8861,-.4635,.4635,.8861,0,0)" d="m114.75 485.7h53.951v36.354h-53.951z"/>
  <path transform="matrix(.8861,-.4635,.4635,.8861,0,0)" d="m105.44 519.26h72.585v6.072h-72.585z"/>
 </g>
 <g transform="translate(-138.8 -227.15)" stroke="#000">
  <path d="m288.87 436.65s-2.484-7.8905-1.7564-13.764c1.2103 1.4406-2.0394 5.8398 2.9919 8.5802s-2.1305-3.4856 0.2545-6.244c0.77363 2.0663 0.30382 3.8843 3.2287 5.7441 7.495 4.7657-4.7188 5.6839-4.7188 5.6839z"/>
  <path d="m337.73 410.45c-6e-3 7e-3 -4.6315-6.4984-7.8963-6.1257-3.8617 0.15372-4.8154-0.76356 0.12973-1.5409 2.0121-0.3163 6.5432-0.15301 9.8328 5.785 6.028 11.727-1.1537-10.591-10.179-10.726-4.0967-0.71544-6.1159-0.49975 0.56741-1.7129 3.0236-0.54887 8.8664 1.73 13.989 11.822 10.245 20.183-6.4428 2.4991-6.4428 2.4991z"/>
  <path d="m462.71 369c-6e-3 7e-3 -4.6315-6.4984-7.8963-6.1257-3.8617 0.15372-4.8154-0.76356 0.12973-1.5409 2.0121-0.3163 6.5432-0.15301 9.8328 5.785 6.028 11.727-1.1537-10.591-10.179-10.726-4.0967-0.71544-6.1159-0.49975 0.56741-1.7129 3.0236-0.54887 8.8664 1.73 13.989 11.822 10.245 20.183-6.4428 2.4991-6.4428 2.4991z"/>
  <path d="m462 358.56c-9e-3 3e-3 -1.108-7.9027-4.176-9.0794-3.4964-1.6466-3.9189-2.9006 0.82652-1.3069 1.9308 0.64843 5.8746 2.8853 6.0511 9.6713-0.0673 13.185 3.8664-9.9269-4.0772-14.214-3.3036-2.5261-5.1942-3.267 1.2942-1.2574 2.9355 0.90917 7.066 5.6282 6.9503 16.945-0.23141 22.633-6.8689-0.75796-6.8689-0.75796z"/>
  <path d="m495.25 367.52c6e-3 7e-3 4.6315-6.4984 7.8963-6.1257 3.8617 0.15372 4.8154-0.76356-0.12973-1.5409-2.0121-0.3163-6.5432-0.15301-9.8328 5.785-6.028 11.727 1.1537-10.591 10.179-10.726 4.0967-0.71544 6.1159-0.49975-0.56741-1.7129-3.0236-0.54887-8.8664 1.73-13.989 11.822-10.245 20.183 6.4428 2.4991 6.4428 2.4991z"/>
  <path d="m495.96 357.08c9e-3 3e-3 1.108-7.9027 4.176-9.0794 3.4964-1.6466 3.9189-2.9006-0.82652-1.3069-1.9308 0.64843-5.8746 2.8853-6.0511 9.6713 0.0673 13.185-3.8664-9.9269 4.0772-14.214 3.3036-2.5261 5.1942-3.267-1.2942-1.2574-2.9355 0.90917-7.066 5.6282-6.9503 16.945 0.23141 22.633 6.8689-0.75796 6.8689-0.75796z"/>
 </g>
</svg>
