<?xml version="1.0" encoding="UTF-8"?>
<svg viewBox="0 0 364.71 578.64" xmlns="http://www.w3.org/2000/svg">
 <g fill="#ffd4aa">
  <g stroke="#000">
   <path d="m309.63 191.86s7.2184-2.9793 9.4238-5.3401c3.1584-1.7782 5.801-4.1891 9.4238-3.9266 2.4847 2.8867-0.46777 3.9527-1.7277 7.539-1.4924 1.469-8.1672 3.4554-8.1672 3.4554"/>
   <path d="m294.08 215.13s1.8212 12.586 1.627 18.972c-0.22827 7.5053-3.8568 15.716-3.2541 21.818 2.4203 0.036804 4.2371 1.4256 6.2156 1.5395 3.1164-9.6374 2.0175-13.955 2.4618-20.511 0.38361-5.6607-0.27832-17.69-0.27832-17.69l-6.7721-4.1271z"/>
   <path d="m69.751 273.55s10.495-3.0673 13.887-7.018c3.1562 2.561-0.47488 8.7136-3.1401 11.782-1.2684 1.4604-5.3429 2.2649-5.3429 2.2649"/>
   <path d="m24.456 261.8c-2.6226 4.8414 3.3874 11.114 1.8832 16.411-1.6222 5.7124-10.023 8.1372-11.03 13.989-0.94746 5.5056 3.3548 5.1443 5.3805 15.873 5.1615-7.5342 0.30214-7.1731 0.26903-10.761-0.038101-4.1288-2.4201-8.7002-0.53805-12.375 1.5645-3.055 6.7136-2.7879 8.6088-5.6496 2.2144-3.3437 2.6898-7.863 2.1522-11.837-0.36018-2.663-0.95439-6.3949-3.4974-7.2637-1.1385-0.38895-2.6552 0.55627-3.2283 1.6142z"/>
  </g>
  <g stroke="#181818">
   <path d="m115.7 445.75s-2.1149 15.413-2.9924 21.394c-1.714 11.683-0.91903 23.893 1.8298 35.377 1.3985 5.8422 3.5977 7.2833 7.3193 16.468-6.7218 0.2088-8.0509-6.9526-10.369-11.589-1.8545-3.709-3.1338-8.1106-2.4398-12.199 0.86954-5.1222 7.9293-10.979 7.9293-13.419 0-2.4398-7.7497-8.6116-8.5392-14.029-0.57614-3.9528 3.0497-11.589 3.0497-11.589l4.2123-10.415z"/>
   <path d="m78.424 165.35s-8.0568 13.117-9.2369 20.526c-1.3439 8.4381 3.6055 16.987 2.7368 25.487-1.1568 11.319-12.696 21.349-10.434 32.5 0.53849 2.6548 5.4737 7.0132 5.3026 6.1579-0.17105-0.85526-4.1485-13.77-2.7368-20.526 1.4858-7.1119 9.5341-11.595 11.29-18.645 1.711-6.8716-1.7105-20.184-1.1974-21.211 0.51316-1.0263 6.8421-12.829 6.8421-12.829l-2.5658-11.461z"/>
  </g>
  <path d="m184.84 363.45s-2.0161 12.586-1.8012 18.972c0.25272 7.5053 4.2695 15.716 3.6023 21.818-2.6792 0.036804-4.6905 1.4256-6.8807 1.5395-3.45-9.6374-2.2334-13.955-2.7253-20.511-0.42465-5.6607 0.30808-17.69 0.30808-17.69l7.4968-4.1272z" stroke="#000"/>
  <path d="m177.6 33.668c0 1.1846 6.9784 13.809 6.1598 21.086 0 0-1.7268 12.609-2.1323 18.953-0.32239 5.0446 3.2973 9.9019-0.23691 15.163-1.7566-3.0101-3.3169-6.1599-3.3169-7.5814s6.0357-7.23 6.1599-11.609c0.1232-4.3446-4.0385-7.7348-5.4491-11.846-1.2372-3.6057-2.6061-11.135-2.6061-11.135l1.1846-12.083" stroke="#0c0c0c"/>
  <path d="m60.118 121.32c-23.682 19.075-42.526 53.288-58.543 88.945 15.337 37.006 22.599 56.907 50.834 88.29 16.327 12.655-17.565 30.04 2.4607 24.973 12.242-3.0979 18.855-6.6772 24.88-18.363 1.6879-5.0698 12.564-15.048-3.2619-28.013-17.039-13.958-32.799-40.868-39.141-59.874 7.0714-14.799 19.243-48.248 35.128-60.522 13.704 18.542 10.328 51.305 12.04 73.575 1.0982 14.29 2.0059 28.491 2.6754 42.807 1.7916 38.306-4.2186 52.697-6.6886 90.965-1.5639 24.23 8.7466 60.15-11.31 94.37-16.335 24.606-14.924 44.857-31.498 68.832 8.3298 17.489 25.159 28.937 30.416 42.083 6.9136 5.721 7.4325 8.9108 16.405 8.7506 11.173-0.1994 27.057-5.1331 29.43-16.053 0.91618-12.493-28.862-21.485-35.27-37.091 0.73959-14.934 29.49-54.438 40.621-80.629 11.357-26.722 7.2723-49.673 18.964-76.25 1.7955-4.0816 5.7651-31.272 10.189-30.712 22.017 2.7867 36.263 60.728 47.098 81.546 7.8358 15.748-2.7207 27.02 2.3832 43.853 9.072 29.919-5.7619 44.02 1.9456 80.482 25.173 8.579 27.286 10.657 62.75 8.3688 7.2893-6.5803 20.066-20.066 14.715-24.079-5.3509-4.0132-31.493-4.5944-41.908-7.9893-10.923-24.224 11.349-84.313 4.1374-113.82-8.8144-36.064-16.284-33.74-25.295-69.756-13.995-55.938-51.306-137.1-28.092-172.57 30.274 10.089 32.033 25.99 62.873 38.794 28.107 11.67 32.028 8.5903 60.124 20.285 12.446 5.1802 26.59 12.968 39.697 9.8154 3.832-0.92157-25.514-7.0452-24.954-11.113 2.3068-2.9962 32.045 9.969 36.394 5.2028-1.9399-7.5328-33.919-9.1745-32.906-13.02 0.76068-2.8861 33.687 8.4426 36.802 4.0643-2.3824-7.9142-32.938-7.4214-32.829-10.507-0.18646-5.7443 20.65 6.0572 21.56-1.1824-8.1583-8.7826-25.429-9.9198-42.427-14.028-22.312-5.3926-25.343-6.9074-30.694-10.921-5.351-4.0132-38.705-24.346-76.25-53.509-8.0479-4.0931-25.308-16.798-32.105-22.741-6.4572-5.6456-14.549-14.54-12.04-22.741 2.2182-7.2486 12.401-18.39 15.244-25.417 5.4467-13.465 2.9034-36.402-7.2174-46.82-10.22-10.52-32.407-9.4091-46.82-6.6886-17.395 3.2833-22.55 22.496-24.079 40.132-1.3416 15.472 10.846 24.162 16.053 38.794 1.7938 5.0413-4.5422 14.667-8.0264 18.728-19.238 11.482-19.051 4.9495-44.461 20.748z" stroke="#181818"/>
  <g stroke="#000">
   <path d="m85.549 246.6l22.256 5.3221"/>
   <path d="m217.52 503.54l-19.796 3.7509-0.4167 6.4598 36.258-6.2514-1.8754-4.1676-14.17 0.2084z"/>
   <path d="m220.02 482.7c-9.2472 0.70581-14.292 0.63263-20.004 0.8335l-0.4168 6.043c10.787 1.0211 21.865 1.7515 33.758 1.667v-3.3341"/>
   <path d="m224.61 477.91c3.1952 3.5638 6.3903 5.0904 9.5855 7.085l-0.4167 5.4178c-7.5507-2.743-14.929-5.7726-20.838-11.252l11.669-1.2503z"/>
   <path d="m218.98 472.28l-19.171 1.8754 0.4168 6.8765c12.619 0.71857 23.21-2.6179 34.8-3.9592l0.6251-4.376-16.67-0.4167z"/>
   <path d="m209.4 452.7l-14.17 0.6251 1.0419 7.5017 41.259 0.4167-0.2084-4.7927-26.464-4.7927-1.4586 1.0419z"/>
   <path d="m215.65 446.03l23.755-2.709"/>
   <path d="m197.31 440.19c14.1 5.0412 28.201 7.97 42.301 10.836l-1.2503 6.8766c-14.711-2.1887-29.31-4.6603-42.926-9.5855l1.8754-8.1268z"/>
   <path d="m208.77 430.4c-3.5968 2.4069-7.7387 3.1786-11.878 3.9592l-0.6251 7.0849c15.858-0.34894 31.154-1.1193 44.802-3.1257l-1.4587-4.1676-30.84-3.7509z"/>
   <path d="m238.51 533.63l0.8476 19.291h8.4596l-0.6143-25.002"/>
   <path d="m230.15 538.24l-12.689 11.943 8.9572 1.9905 12.441-10.45-0.4976-8.2108-8.2108 4.7274z"/>
   <path d="m217.21 524.31c-7.0124 0.3374-15.404 2.5136-20.651 0.49762v-7.4644c13.021 1.788 26.042-0.67975 39.064-1.2441l-1.4929 3.4834-16.919 4.7274z"/>
   <path d="m205.27 421.14c11.49 3.0836 23.608 4.284 35.577 5.9295l-0.3825 8.0335c-15.11-1.7227-30.466-3.1988-43.611-6.8859l1.3389-5.5469 6.1208-2.104"/>
   <path d="m212.92 417.7c8.4309 3.563 18.226 6.4442 28.691 8.9899l0.1913-7.2685-18.936-6.5033"/>
   <path d="m203.35 413.68l-9.3724 4.3993 2.6778 6.5033 23.144-9.9463"/>
   <path d="m201.25 409.28c0.95636 0.19128 39.211-4.0168 39.211-4.0168l1.1477 9.755c-17.318 0.52564-33.806-0.60956-50.114-2.104v-3.0604"/>
   <path d="m199.72 394.17c1.7215-0.19128 37.681-0.57382 37.681-0.57382l-3.2516-8.9899"/>
   <path d="m206.61 373.32l21.805-1.5302 3.0604 5.1644-42.846 2.2953"/>
   <path d="m217.32 364.33l-41.315 9.3725 3.6342 8.7986 46.48-15.493-1.9127-2.2953-6.8859-0.3825z"/>
   <path d="m185.76 360.51l-13.58 5.1644 3.6342 7.651 31.178-9.9463"/>
   <path d="m197.23 347.88l21.423 3.0604"/>
   <path d="m169.69 348.46c17.038 4.6895 34.938 7.6549 52.983 10.329l3.0604 6.8859c-19.514-2.5361-39.556-3.2227-58.147-8.9899l-3.2516-6.6946 5.3557-1.5302z"/>
   <path d="m172.56 340.42c-1.1476 0.38257-13.772 3.4429-13.772 3.4429l4.7819 6.1208c13.007-2.5113 26.013-4.5445 39.02-8.9899l-10.52-1.9128-19.319 1.3389"/>
   <path d="m90.666 538.73l-22.505 30.567"/>
   <path d="m59.091 556.87l22.057-10.749h11.085l-29.223 15.563-3.9188-4.8145z"/>
   <path d="m79.917 542.65l17.691 0.112 4.3666 2.7991-30.79 1.2316"/>
   <path d="m66.033 542.2l21.162-7.5017 2.6872 2.2393-32.694 18.25-4.2547-5.1504"/>
   <path d="m60.379 512.05l-15.101-1.0917c-3.1406 2.6079-2.8855 5.2158-3.8208 7.8236 9.7589 0.87616 19.777 0.45782 30.021-1.0917"/>
   <path d="m91.309 495.86l-22.561-16.557"/>
   <path d="m106.96 461.66l-43.667 6.368"/>
   <path d="m146.47 341.28l50.415-1.0331-30.373-4.7522-44.836 1.4463"/>
   <path d="m129.12 348.93l8.2648-3.5125"/>
   <path d="m113.21 335.5l33.266 5.5787-3.0993 8.8846-31.2-8.4714-6.4052-2.8927 7.4383-3.0993z"/>
   <path d="m7.7759 205.3l13.72-2.6903"/>
   <path d="m70.942 145.04c32.205 0.84506 58.974-1.028 88.26-1.6421l9.2365 4.1051c-32.464 1.1389-66.312 4.1236-97.292 3.2841l-0.2053-5.7472z"/>
   <path d="m87.362 121.64l67.94 13.547"/>
   <path d="m80.794 129.85c17.669-0.71164 36.235-2.1402 59.319-7.184l12.11 3.4894c-11.076 4.4188-22.908 5.0566-34.483 6.9787l-36.946-3.2841z"/>
  </g>
  <g stroke="#181818">
   <path d="m84.172 206.17c15.615 1.0974 34.456-5.0863 48.733-7.5263"/>
   <path d="m157.3 237.34c-22.94 8.7451-47.673 14.193-71.497 19.842l1.0232 10.605c31.562-5.5031 62.801-14.875 93.908-25.829l-23.434-4.6184z"/>
   <path d="m82.209 224.69c33.016 18.236 71.039 31.936 110.4 34.297l2.6002 12.473c-37.588-7.328-75.814-15.858-110.7-34.446l-2.3054-12.325z"/>
   <path d="m120.52 201.42c9.6854 7.9574 20.882 14.102 32.842 19.329l22.579 1.7105c-12.985-6.5724-25.413-13.701-35.237-23.434l-7.5263-0.6842-12.658 3.0789z"/>
   <path d="m216.03 180.61s5.222 11.098 6.0995 17.078c1.714 11.683 0.91904 23.893-1.8298 35.377-1.3985 5.8422-3.5977 7.2834-7.3193 16.468 6.7218 0.20883 8.0509-6.9526 10.369-11.589 1.8545-3.709 3.1338-8.1106 2.4398-12.199-0.86954-5.1222-7.9293-10.979-7.9293-13.419 0-2.4398 7.7497-8.6115 8.5392-14.029 0.57614-3.9527-3.0497-11.589-3.0497-11.589l-7.3193-6.0995z"/>
  </g>
 </g>
 <g stroke="#0c0c0c">
  <g fill="#7f0000">
   <path d="m127.61 57.597l21.323-3.7907 6.6337 5.2122h-19.427l-8.529-1.4215z"/>
   <path d="m150.83 30.328c1.8953 0 13.267-3.017 13.267-3.017l-0.9477 7.5426h-9.0029l-3.3168-4.5255z"/>
  </g>
  <g fill="#ffd4aa">
   <path d="m104.63 67.548c10.913 0.18824 21.702-0.58374 31.984-1.6584l12.083 5.2122c-13.267 1.9727-26.772 4.8531-40.039 3.7907l-4.0276-7.3445z"/>
   <path d="m95.628 46.699l63.02-43.83-10.188-2.3692-52.122 36.722-0.7108 9.4767z"/>
   <path d="m177.13 35.564l-49.99-0.2369-2.1323 2.3692c7.2393 3.2312 16.781 5.5984 26.535 5.686l25.587-7.8183z"/>
   <path d="m128.09 57.597c11.434 3.6239 22.786 7.5729 34.827 8.766l3.0799 3.7907-3.5538 5.686c-16.49-3.0128-27.566-10.358-41.224-15.637l6.8706-2.6061z"/>
   <path d="m148.22 51.887l18.114 18.267 5.8148-8.4561c-5.1865-3.1212-10.112-6.7647-14.045-12.393l-9.8836 2.5818z"/>
   <path d="m127.85 32.247c15.239-1.5738 31.023-2.8166 48.094-8.0552l-3.5538-9.2398c-15.538 6.347-30.418 9.1565-44.778 12.557l0.2369 4.7384z"/>
  </g>
  <path d="m127.52 25.376l-7.4902 5.2122 5.8851 6.6337 2.675-5.2122-1.07-6.6337z" fill="#7f0000"/>
 </g>
 <g fill="#ffd4aa">
  <g stroke="#0c0c0c">
   <path d="m129.98 44.567l12.557-29.852-10.661 7.1075-6.3968 17.295 4.9753 6.6337"/>
   <path d="m133.06 48.311c-0.98386-0.97844-27.53-36.439-27.53-36.439l-5.4021 10.029c6.8462 10.722 16.344 19.751 25.799 27.878l7.1328-1.4677z"/>
   <path d="m105.82 12.346c18.953-1.574 38.854-2.1727 57.808-6.6337l7.3445 6.8706c-20.059 4.6003-41.066 4.3534-61.125 4.7384l-4.0276-4.9753z"/>
   <path d="m98.708 56.65c1.8954 0.19002 79.13-20.042 79.13-21.796l-0.2369 10.661c-23.711 8.3815-50.068 12.794-75.103 19.19l-3.7907-8.0552z"/>
   <path d="m102.26 42.434l17.295 1.8954 5.449 4.7383-28.43 0.2369-0.7108-3.0799 6.3965-3.7907z"/>
  </g>
  <g stroke="#000">
   <path d="m159.34 85.162c-0.48285 1.2071-50.593 11.023-51.504 9.657-0.95343 2.0246-1.4225 5.048-4.5066 5.7942 19.326-0.83206 40.663-1.5005 58.908-6.7599-2.2004-1.971-2.3148-5.5066-2.8971-8.6912z"/>
   <path d="m151.89 102.75c6.2746-1.1899 10.774-2.3744 13.506-3.8231"/>
   <path d="m112.02 79.85c14.631 2.9096 31.777 0.28624 48.446-1.2876"/>
   <path d="m139.64 6.5773c-6.5629 0.12505-14.207 0.13918-19.452-3.6892" stroke-width=".6"/>
   <path d="m118.34 11.105c-2.6764-0.68396-5.4021-1.2695-7.2106-3.6892" stroke-width=".7"/>
  </g>
  <path d="m84.514 211.6c32.525 3.8563 64.725 11.293 97.654 10.702l4.0132 20.066c-22.898-2.1149-47.494-9.3237-71.676-15.29-27.74-7.2165-33.61-11.897-29.991-15.478z" stroke="#181818"/>
  <path d="m120.98 260.67l23.735-0.4642" stroke="#000"/>
  <path d="m126.17 259.14c0.29306-0.077515 0.73468-0.35992 2.877-0.94363s4.1009-1.209 4.1719-1.209c0.070984 0 2.2711 0.76987 3.7607 1.2144 1.4897 0.44449 2.9428 0.87201 3.4097 0.99521 0.46683 0.1232 1.4767 0.58694 1.5077 0.59906 1.2736 0.49881-15.759 0.38358-18.024 0.3765-1.7098-0.005005 0.55611-0.41422 1.0786-0.55292l1.2186-0.4796z" stroke-width="3"/>
  <g stroke="#000">
   <path d="m108.52 263.77c20.178 4.2525 41.01 2.6248 61.643 2.7767"/>
   <path d="m87.229 268.77h94.594l12.773 2.5916 4.6279 10.737-112.92-8.8855-0.1851-4.0725 1.1107-0.3702z"/>
   <path d="m96.443 192.87l5.225 18.505-2.6125 16.328 0.6531 9.3615-4.1365 11.539 3.7011 17.417-0.4354-12.845s4.3542-12.845 4.3542-13.716c0-0.87085-3.2657-16.11-3.2657-16.11l4.1365-10.015-0.2177-19.158-7.4021-1.3063z"/>
   <path d="m54.368 124.98l8.4942-4.3507 2.2789 47.236-9.53 10.98-1.243-53.865z"/>
   <path d="m65.567 116.98c25.351-0.63366 50.302-0.23444 78.755-9.6682l9.6682 2.2156c-29.519 12.897-63.39 12.721-97.084 13.092l8.6611-5.6398z"/>
   <path d="m159.43 105.1l7.0497-5.6398"/>
   <path d="m87.119 107.51l9.6682-3.2227c26.395 6.9545 52.155 14.702 80.568 19.135l-2.8199 7.4525c-30.986-5.2021-59.009-14.553-87.416-23.365z"/>
   <path d="m172.34 149.35c2.6006 4.9396 8.4289 10.723 13.752 14.573l10.058 3.6946c-6.1099-7.3104-12.814-15.042-16.831-23.399l-5.3367-0.821-1.6421 5.9524z"/>
   <path d="m126.16 154.27l59.319 11.084-2.8736 7.184-66.503-14.984 10.058-3.2841z"/>
   <path d="m78.126 169.26c35.578-0.26608 71.156 0.42676 106.73-1.8473l-3.0788 8.2103c-30.924 3.017-63.307 0.19574-95.239-0.82101l-8.005-2.0526-0.4105-3.4893z"/>
   <path d="m180.78 115.97c0.044312 0.22164-9.9555 20.004-12.085 27.796-1.7039 6.2339 2.1778 12.92 1.4099 19.336-0.46927 3.9213-7.2131 9.6284-3.6256 11.28 4.6549 2.1423 8.2582-12.287 8.0568-13.092-0.20142-0.80566-2.0684-9.6963-0.80566-14.301 1.3691-4.9924 8.2582-11.884 8.661-12.891 0.40283-1.0071 6.4454-15.912 6.4454-15.912l-8.0568-2.2156z"/>
   <path d="m112.67 81.621c19.876 17.562 45.75 21.928 69.53 30.902l8.6913 6.438c-26.889-8.3416-57.801-11.642-82.406-26.074 3.718-2.433 3.5862-7.2737 4.1847-11.266z"/>
   <path d="m48.153 155.23l-13.674-7.6655-5.8009 8.7013 26.933 15.952-0.2072-2.9005-7.2511-14.088z"/>
   <path d="m28.264 157.3c10.419 11.547 18.433 17.684 26.726 24.447-1.8675 4.6415-3.2333 6.7746-4.5578 8.7014l-25.482-26.726c-0.45138-2.919 1.6639-4.5546 3.3148-6.4224z"/>
   <path d="m20.184 169.73l5.1794-4.9722c7.9226 10.234 16.669 18.409 25.69 25.897-1.9519 4.4236-3.3509 6.6358-4.765 8.9085-9.5937-8.3828-18.704-17.612-26.104-29.833z"/>
   <path d="m33.65 188.38c-0.099998-0.27664-6.9732-1.9262-17.67-10.03l-3.3148 7.0439c10.887 7.5959 21.769 10.452 33.002 13.759l-12.016-10.773z"/>
   <path d="m37.856 216.53c-1.4591 0.076111-36.053-12.292-33.401-14.65l-3.9554 8.9362c11.796 3.4735 25.212 3.9804 37.356 5.7133z"/>
   <path d="m10.169 192.07c7.7642 2.245 15.528 2.771 23.293 3.516l10.987 3.955 1.172 1.611-2.051 5.567c-11.172-3.26-21.818-5.918-35.598-12.159l1.3185-3.076 0.8789 0.586h1e-4z"/>
   <path d="m11.487 189.73c8.0495 10.092 14.865 21.194 26.955 27.98l2.6369-6.7388c-9.3312-6.5199-17.268-15.363-25.49-23.732l-2.9299-1.9044-1.9045 3.8089"/>
   <path d="m87 282.82c37.283 0.44293 74.566 0.44815 111.85-1.9174l1.7043 5.9652c-38.135 4.2408-76.27 5.5112-114.4 6.3914l0.8522-10.439z"/>
   <path d="m124.07 276.64c-11.74 7.5684-24.906 8.7192-37.709 11.504l-0.213 7.4565c18.246-2.8674 36.272-6.8309 52.835-18.109l-14.913-0.8522z"/>
   <path d="m169.45 325l40.265-9.374 2.1305 9.1609-28.335 3.4087-14.061-3.1956z"/>
   <path d="m83.659 326.82c19.202 10.71 38.996 19.939 59.3 27.894l-2.0662 7.4383c-20.176-7.7897-40.136-15.938-58.68-26.447l1.4463-8.8846z"/>
   <path d="m81.593 338.6c11.374-4.7014 23.217-7.0588 34.092-14.257l13.844 3.9258c-16.254 8.8826-32.508 13.395-48.762 19.835l0.8265-9.5045z"/>
   <path d="m86.361 304.12c42.4 11.464 84.866 22.338 127.83 28.761l3.1956 10.652c-38.222-6.4781-81.47-10.233-113.98-23.222 0 0-1.38-3.0896-2.7696-3.8348-3.1942-1.713-7.3029-1.0945-10.865-0.42612-1.7505 0.32843-3.4642 3.1843-4.9 2.1305-3.7996-2.7888 1.4913-14.061 1.4913-14.061z"/>
   <path d="m203.8 296.37c-39.51 8.621-79.107 16.734-119.18 22.098l-0.622 7.287c41.349-3.376 82.105-10.195 122.78-17.467l-2.985-11.918z"/>
   <path d="m87.214 298.37l81.809 5.3261"/>
   <path d="m144.23 301.94l29.426-12.507"/>
  </g>
  <path d="m79.457 173.11c33.038 9.6586 66.256 10.59 99.731 13.704l0.5064 16.975c-31.914-3.124-65.305-7.331-97.638-13.802l-2.5994-16.878z" stroke="#181818"/>
  <g stroke="#000">
   <path d="m165.77 185.27l14.984-6.5682"/>
   <path d="m63.553 131.49l3.2841 31.199 6.1577-4.3104-4.1051-35.92-5.7472 0.2052 0.4105 8.826z"/>
   <path d="m52.879 125.54c56.308 8.4075 111.52 11.401 167.28 13.342l9.4418 6.7735c-61.63-1.073-122.54-3.3633-183.09-12.521l6.3629-7.5945z"/>
   <path d="m50.645 127.68c2.7947 14.47 7.9311 30.941 13.461 42.676l-5.5937 4.9722c-6.7474-10.488-11.967-23.421-15.952-38.327l8.0856-9.3209z"/>
   <path d="m191.63 120.2c-38.643 15.853-77.55 30.743-117.82 40.641l3.0789 5.3367c26.904-0.73294 73.704-21.197 122.13-42.283l-5.9524-4.3104-1.4368 0.6158z"/>
   <path d="m183.22 131.9c7.303 0.74655 15.628 0.79086 24.015-2.2578"/>
   <path d="m68.684 115.28l8.6208-4.3104 18.063-0.821 8.4155 2.6683c-11.7 3.0312-23.399 1.8668-35.099 2.4631z"/>
   <path d="m110.97 107.68c0.82101-0.20526 13.136-7.5945 13.136-7.5945"/>
   <path d="m80.996 183.93l87.148 2.2156"/>
   <path d="m184.6 152.64l12.41-7.9775"/>
   <path d="m202.33 145.54l-12.705 14.182"/>
   <path d="m178.99 158.25l-3.5456 4.7274"/>
   <path d="m220.98 165.08l21.322-10.388 4.7382 3.2803-33.896 21.14-5.4671-4.5559 1.2757-0.7289"/>
   <path d="m206.46 160.32l24.228-13.591 7.3866 5.3183-30.137 22.751-5.9093-3.5455 4.4319-10.932z"/>
   <path d="m208.26 129.44c-3.1861 16.045-7.934 26.624-12.11 39.204l5.7472 2.6683c5.0316-11.605 11.014-21.942 14.573-35.509l-8.2103-6.3629z"/>
   <path d="m153.06 209.44l26.561 1.8972"/>
   <path d="m37.907 224.4c-1.0761 0-20.715 25.02-20.715 25.02l4.0354 6.4566 25.02-19.908-5.9186-12.106-2.4212 0.5381z"/>
   <path d="m4.0095 219.29h34.704l2.4212 5.1115-33.09 3.2283-4.0354-8.3398z"/>
   <path d="m13.964 227.09l29.324 2.4212 2.1522 4.0354-33.897 1.8832-3.7664-9.1469 6.1876 0.8071z"/>
   <path d="m15.04 241.08l10.223-1.8832"/>
   <path d="m53.15 248.61l-17.704 29.686-6.6168-8.0475 10.551-15.558 12.697-7.8687 1.073 1.7883z"/>
   <path d="m24.994 252.92l23.943-11.568 3.2283 4.8425c-8.8707 5.9546-17.328 13.976-26.634 17.756l-4.5734-7.5327 4.0354-3.4973z"/>
   <path d="m45.639 261.31c0.89417 0 13.234-4.292 13.234-4.292l3.7555 4.292-24.142 11.982 7.1533-11.982z"/>
   <path d="m40.631 279.73c0.71533-0.17883 13.412-14.307 13.412-14.307"/>
   <path d="m64.237 286.71c1.073-0.35767 15.916-6.438 15.916-6.438l2.3248 3.3978-30.044 13.412"/>
   <path d="m64.416 278.3c-5.8725 5.8678-11.893 10.994-18.241 14.486l4.8285 5.7227c9.3039-6.6122 17.275-14.557 24.679-23.07l-2.8613-2.3248"/>
   <path d="m35.982 279.55c0.25495 2.3438 32.117-8.5553 32.905-11.445l3.7555 4.8285c-9.8954 7.1882-19.791 11.909-29.686 16.274l-6.9745-9.657z"/>
   <path d="m54.58 323.37c7.2616-9.9112 17.167-20.07 9.8358-28.613"/>
   <path d="m63.164 320.86c13.995-12.767 15.292-29.615 11.088-33.621"/>
   <path d="m55.117 301.19l11.624 2.3248-1.9672 5.0073-7.8686-0.3577-1.7883 4.6497 6.2591 1.9672-3.3978 4.1132-7.8686 1.7883"/>
   <path d="m65.847 296.9c0.89416-0.35767 10.73-5.0073 10.73-5.0073l-1.073 9.657-9.4781 3.7555 5.1862 5.0073-2.5037 4.1132-5.1861-2.8613-3.0402 4.1132 3.5767 4.6496"/>
   <path d="m75.861 289.57l8.0475-3.219 1.073 5.9015-8.9416 5.0073-0.5365 3.9343 5.365 1.7883-3.219 5.9015-5.0073-0.3577"/>
   <path d="m231.55 167.27l-10.205 17.677 3.098 2.1868c8.3829-8.2154 16.766-16.026 25.149-27.518l3.4625 2.3691c-7.0039 13.07-15.016 21.602-22.962 30.434l-6.3783-4.7382"/>
   <path d="m246.13 173.83c4.6094-1.3727 8.9975-3.8518 13.121-7.654l4.1915 2.5513c-10.57 8.0203-21.14 16.527-31.709 22.233l-2.0046 2.3691 6.5605 3.098c10.123-6.4895 18.39-17.31 27.153-26.971"/>
   <path d="m292.78 191.32l8.0184-3.098 7.6539 2.1868-32.074 12.939 3.2803-8.7474 13.121-3.2803z"/>
   <path d="m266.54 203.9l18.406-21.322 2.7336 1.6401c-5.9953 8.3314-9.0499 18.133-12.21 27.882l-8.9296-2.5513v-4.7382"/>
   <path d="m267.26 180.57l-0.7289 27.882"/>
   <path d="m251.59 204.26c9.3548-7.4222 18.71-16.153 28.064-25.513l2.5513 2.5513c-8.5268 10.525-16.31 19.711-22.415 25.878l-8.2007-2.9158z"/>
   <path d="m243.39 200.43c7.6072-10.285 15.829-20.324 21.14-31.527l6.7427 5.4671c-5.0888 10.116-13.44 19.689-21.322 29.34l-6.5605-3.2803z"/>
   <path d="m287.31 184.76l-8.7474 28.247 3.2803 1.2756 13.303-27.7-7.8362-1.8224z"/>
   <path d="m293.69 196.43l0.3645 20.046"/>
   <path d="m310.64 192.23l-14.943 24.966 5.6494 1.6401 17.312-24.602-8.9296 28.429 4.5559 2.1869 13.486-30.616-8.9296-0.5467"/>
   <path d="m333.6 196.97l1.4579 8.3829 2.5513 0.5467 3.098-7.1073 0.1823 8.0185 2.7336 0.5467 2.7335-6.196 2.5513 1.8224 1.6401 4.9204"/>
   <path d="m335.24 208.82l-2.3691 4.9204 7.4717 1.4579 4.3737-5.2849 9.1119 1.8224-1.0934 5.4671"/>
   <path d="m353.65 221.76l-2.5513 5.2849-2.5513-7.1072-5.6494-1.4579-2.0046 5.6494-6.3783-1.8224-2.5513-6.3783-8.0184 4.9204"/>
   <path d="m341.8 232.69c-0.18225-0.72894-1.2756-3.6448-1.2756-3.6448l-3.2803-1.0934-5.4672 3.6447-4.1914-1.4579 1.4579-5.1026-10.934 0.9112"/>
   <path d="m317.38 218.48l17.13-16.037"/>
   <path d="m109.73 568.94c-5.9642-2.7632-10.494-7.4394-15.6-11.346 4.5908 4.534 14.013 9.3522 13.591 13.591"/>
   <path d="m101.81 574.26c-0.42447-7.1498-7.3512-6.7971-11.464-9.6912"/>
   <path d="m87.473 577.33c0.45654-4.4427-5.6859-6.3191-10.717-8.6275"/>
   <path d="m95.311 576.27c-0.15746-6.0613-7.2087-6.2137-11.346-8.8639"/>
   <path d="m277.94 532.99c-7.1069-1.8865-13.351-2.2632-19.183-1.9183"/>
   <path d="m274.83 538.27c-5.9027-2.6057-12.553-2.2224-19.063-2.3978"/>
   <path d="m269.55 544.38c-3.497-3.7515-10.61-2.9836-16.425-3.8366"/>
   <path d="m265.83 547.98c-4.9343-5.1539-9.3775-1.9582-14.028-2.278"/>
   <path d="m82.212 348.1l58.473 16.53-3.3059 8.4714-53.928-13.637"/>
   <path d="m80.353 350.79l29.546-1.4463 9.5045 4.5456-39.878 6.6118 0.8265-9.7111z"/>
   <path d="m83.809 363.02l26.823 3.0437 26.823 6.8484-1.9023 5.8972-44.324-9.5116-7.419-6.2776z"/>
   <path d="m97.696 375h20.165l16.36 3.8046-0.1902 6.4679-26.823-3.4242"/>
   <path d="m79.814 360.55l50.982 38.237-0.9511 5.7069-50.792-32.339 0.7609-11.604z"/>
   <path d="m84 393.08l10.463-2.6632"/>
   <path d="m80.533 408.35l24.52-3.0231 11.924 3.359-36.109 7.7256-0.3359-8.0615z"/>
   <path d="m128.73 411.48c-16.314-2.3197-32.089-6.835-47.961-11.369l-0.5707-7.419c9.7652 1.8461 19.53 4.2129 29.296 4.3753"/>
   <path d="m79.434 376.34c16.917 7.2068 33.943 14.087 51.743 18.643l-2.0925 13.126c-16.423-8.205-32.847-14.917-49.27-25.111l-0.3805-6.6581z"/>
   <path d="m81.372 402.97c15.68 3.9339 33.3 7.4727 47.026 11.085l-1.1757 6.0461c-16.94-2.6623-31.959-8.0153-46.69-13.772l0.6718-3.5269"/>
   <path d="m88.93 415.4c7.6696 1.2147 15.339 1.8082 23.009 1.6795l14.779 2.8551-0.3359 5.2064c-15.628-0.65356-31.17-1.5086-46.354-4.3666l1.1756-4.5346 7.7256-0.8398z"/>
   <path d="m94.808 451.73l17.467-2.5752"/>
   <path d="m73.479 446.74l-1.4555 4.5486 32.022 24.017 3.093-5.0944-20.378-16.739"/>
   <path d="m76.166 445.8l38.628 11.588-4.1987 6.0461c-13.087-4.9396-25.812-10.24-37.452-16.627l1.6795-0.6718"/>
   <path d="m74.486 443.45l45.178-1.1757-2.8551 7.7256-43.499-4.0308 1.1756-2.5192z"/>
   <path d="m82.212 437.4l40.476 0.5038-1.3436 3.8628-36.613-2.8551"/>
   <path d="m78.685 435.39l12.764 7.7256"/>
   <path d="m79.189 432.19l22.337 1.8474"/>
   <path d="m80.029 421.61l-0.8397 5.2064 31.91 10.749h11.756l0.8397-4.0308-43.666-11.924z"/>
   <path d="m107.57 429l13.268-4.0308"/>
   <path d="m41.457 521.88l2.1833 15.283"/>
   <path d="m42.184 527.88c12.222 0.83905 24.775-0.30231 37.48-2.3653l3.093 4.1848c-12.13 4.0228-24.807 7.133-38.39 8.7333l-2.1833-10.553z"/>
   <path d="m92.947 479.3l-31.84-8.5513-2.3653 4.9125 36.935 14.192 2.0014-4.5486-4.7306-6.0041z"/>
   <path d="m72.387 456.01l26.018 29.839 3.4569-6.55-30.567-27.11"/>
   <path d="m76.754 486.76c-6.958-1.3233-14.156-1.9266-20.196-6.0042l-2.9111 8.9153c7.7214 3.9912 17.087 5.2424 26.2 6.9138"/>
   <path d="m68.566 457.11l15.465 54.401 4.5486-8.1875-17.103-51.126-2.9111 4.9125z"/>
   <path d="m52.737 496.41l27.837 2.1834"/>
   <path d="m59.105 478.58l6.0041 5.8222"/>
   <path d="m51.1 499.14l-3.0931 7.0958 31.84 15.465 0.9097-3.275-29.657-19.286z"/>
   <path d="m67.111 497.86c4.8689 6.4987 10.32 11.252 15.647 16.375l-1.6375 4.9125c-11.251-6.9138-21.776-13.828-29.657-20.742l0.7278-2.3653 14.919 1.8195z"/>
   <path d="m82.03 504.96l-10.735-1.8195"/>
   <path d="m54.921 519.15l23.107 6.55"/>
   <path d="m51.646 527.7l-3.6389-9.2791"/>
   <path d="m323.14 184.48l-0.3141 7.2249"/>
   <path d="m98.055 561.01c0-0.55981 5.5983-12.876 5.5983-12.876l5.0385 4.3666-7.8376 10.189 2.9111 2.1273 9.9649-4.9265"/>
   <path d="m106.68 568.85c-0.44785-0.112-7.0538 0.22394-7.0538 0.22394l0.6718-6.1581-3.4709-2.7992-4.2547 5.7103"/>
   <path d="m87.978 568.96l3.359-3.4709 4.3667 1.9034-1.3436 5.9341 6.8299-1.1196"/>
   <path d="m86.411 574.67l5.0385-3.8068-4.7026-2.1274-4.4786 2.3513"/>
   <path d="m76.11 576.01l3.0231-5.9341 6.0461 2.9111-3.359 4.5906"/>
   <path d="m47.671 543.66c0.44786-0.11194 16.011-8.6213 16.011-8.6213l18.81-4.9265 1.9034 1.9034-31.35 18.138-5.3743-6.494z"/>
   <path d="m74.113 561.13l28.532-13.552"/>
   <path d="m96.875 550.62l-26.363 20.578"/>
   <path d="m182.51 351.33c10.648-2.4487 21.295-3.8143 31.943-8.6073"/>
   <path d="m182.7 389.96l3.0604 6.8859c16.258-2.3528 32.517-6.6422 48.775-12.05l-3.0604-6.6946c-16.258 4.9473-32.517 8.9517-48.775 11.859z"/>
   <path d="m188.63 388.82l17.788-10.711"/>
   <path d="m189.96 405.65c8.8829-3.6159 17.982-6.3673 26.396-11.859"/>
   <path d="m189.39 406.8c16.003-3.0118 32.007-6.3317 48.01-11.859l3.2517 8.9899c-16.031 3.0823-32.881 4.9373-49.923 6.5033l-1.3389-3.6342z"/>
   <path d="m235.62 519.33c-13.458 9.7095-25.661 14.398-37.82 18.91l-0.9952-9.4549c12.454-0.83704 25.456-5.5162 38.566-10.948l0.2488 1.4929z"/>
   <path d="m215.47 530.78c8.1822-3.6607 15.253-4.5439 24.632-11.196l3.7322 0.9952c-13.27 9.7764-26.54 19.991-39.81 24.632-5.9131 0.48358-5.5903-2.4972-5.7227-5.225l17.168-9.2061z"/>
   <path d="m211.99 547.2l8.7084-10.45"/>
   <path d="m214.47 547.95l39.915-24.123-6.8232 13.176"/>
   <path d="m275.93 526.8c-0.7464 1.2441-2.2393 5.225-2.2393 5.225l-3.981-0.7464-0.6453-5.8434-7.3012 5.3148-5.4893-7.931"/>
   <path d="m252.21 528.18l-1.3876 23.92"/>
   <path d="m253.6 552.1c0.33038-0.26428 5.1541-7.0704 5.1541-7.0704l2.9735 0.5286-2.1145 6.1453"/>
   <path d="m254.06 545.56l2.2467-4.7576 5.2863 0.5286 1.9163 4.9559"/>
   <path d="m258.03 540.87l4.4272-4.4933 3.1718 5.1541 3.0396-4.7576"/>
   <path d="m271.18 536.97v-5.0219l-4.2951-0.6608-7.7311 4.6255"/>
   <path d="m213.98 460.82l21.255 9.5855"/>
   <path d="m227.32 466.87l-30.007-2.5005 1.667 7.0849 36.258 1.4587 0.2084-2.5005-8.1268-3.5425z"/>
   <path d="m214.4 490.83l-14.795 7.7101"/>
   <path d="m209.19 493.75c8.1263 2.1438 16.047 3.5519 24.172 4.5844l-0.2084 6.043c-11.553-0.57941-23.454-0.46454-33.966-3.1257l0.6252-3.5425 9.3771-3.9592z"/>
   <path d="m213.77 510.63l17.296 5.4179"/>
   <path d="m91.838 229.18l44.028 2.903"/>
   <path d="m188.6 250.47l-25.159-2.4191"/>
   <path d="m117 240.79l31.932-5.8059"/>
   <path d="m142.64 219.02l41.125 12.58"/>
  </g>
  <g stroke="#181818">
   <path d="m329.16 194.89s5.2219 11.098 6.0994 17.078c1.714 11.683 0.91907 23.893-1.8298 35.377-1.3984 5.8422-3.5977 7.2834-7.3193 16.468 6.7218 0.20883 8.0509-6.9526 10.369-11.589 1.8545-3.709 3.1338-8.1106 2.4398-12.199-0.86951-5.1222-7.9293-10.979-7.9293-13.419 0-2.4398 7.7496-8.6115 8.5392-14.029 0.57617-3.9527-3.0497-11.589-3.0497-11.589l-7.3193-6.0995z"/>
   <path d="m317.16 188.89s5.2219 11.098 6.0994 17.078c1.714 11.683 0.91907 23.893-1.8298 35.377-1.3984 5.8422-3.5977 7.2834-7.3193 16.468 6.7218 0.20883 8.0509-6.9526 10.369-11.589 1.8545-3.709 3.1338-8.1106 2.4398-12.199-0.86951-5.1222-7.9293-10.979-7.9293-13.419 0-2.4398 7.7496-8.6115 8.5392-14.029 0.57617-3.9527-3.0497-11.589-3.0497-11.589l-7.3193-6.0995z"/>
  </g>
  <g stroke="#000">
   <path d="m344.03 212.07c-2.6226 4.8414 3.3874 11.114 1.8832 16.411-1.6222 5.7124-10.023 8.1372-11.03 13.989-0.94745 5.5056 3.3548 5.1443 5.3806 15.873 5.1615-7.5342 0.30212-7.1731 0.26901-10.761-0.038116-4.1288-2.4201-8.7002-0.53806-12.375 1.5645-3.055 6.7136-2.7879 8.6089-5.6496 2.2144-3.3437 2.6897-7.863 2.1522-11.837-0.3602-2.663-0.95438-6.3949-3.4973-7.2637-1.1385-0.38895-2.6553 0.55627-3.2283 1.6142z"/>
   <path d="m311.03 207.07c-2.6226 4.8414 3.3874 11.114 1.8832 16.411-1.6222 5.7124-10.023 8.1372-11.03 13.989-0.94745 5.5056 3.3548 5.1443 5.3806 15.873 5.1615-7.5342 0.30212-7.1731 0.26901-10.761-0.038116-4.1288-2.4201-8.7002-0.53806-12.375 1.5645-3.055 6.7136-2.7879 8.6089-5.6496 2.2144-3.3437 2.6897-7.863 2.1522-11.837-0.3602-2.663-0.95438-6.3949-3.4973-7.2637-1.1385-0.38895-2.6553 0.55627-3.2283 1.6142z"/>
   <path d="m240.03 182.07c-2.6226 4.8414 3.3874 11.114 1.8832 16.411-1.6222 5.7124-10.023 8.1372-11.03 13.989-0.94746 5.5056 3.3548 5.1443 5.3805 15.873 5.1615-7.5342 0.30214-7.1731 0.26903-10.761-0.038101-4.1288-2.4201-8.7002-0.53806-12.375 1.5645-3.055 6.7136-2.7879 8.6089-5.6496 2.2144-3.3437 2.6897-7.863 2.1522-11.837-0.3602-2.663-0.95438-6.3949-3.4973-7.2637-1.1385-0.38895-2.6553 0.55627-3.2283 1.6142z"/>
   <path d="m56.034 279.07c-2.6226 4.8414 3.3874 11.114 1.8832 16.411-1.6222 5.7124-10.023 8.1372-11.03 13.989-0.94746 5.5056 3.3548 5.1443 5.3806 15.873 5.1615-7.5342 0.30212-7.1731 0.26901-10.761-0.03812-4.1288-2.4201-8.7002-0.53806-12.375 1.5645-3.055 6.7137-2.7879 8.6089-5.6496 2.2144-3.3437 2.6897-7.863 2.1522-11.837-0.3602-2.663-0.95438-6.3949-3.4973-7.2637-1.1385-0.38895-2.6553 0.55627-3.2283 1.6142z"/>
   <path d="m175.03 46.074c-2.6226 4.8414 3.3874 11.114 1.8832 16.411-1.6222 5.7124-10.023 8.1372-11.03 13.989-0.94746 5.5056 3.3548 5.1443 5.3806 15.873 5.1615-7.5342 0.30212-7.1731 0.26901-10.761-0.038116-4.1288-2.4201-8.7002-0.53806-12.375 1.5645-3.0551 6.7136-2.7879 8.6089-5.6496 2.2144-3.3437 2.6897-7.863 2.1522-11.837-0.3602-2.663-0.95438-6.3949-3.4973-7.2637-1.1385-0.38895-2.6553 0.55627-3.2283 1.6142z"/>
   <path d="m197.03 423.07c-2.6226 4.8414 3.3874 11.114 1.8832 16.411-1.6222 5.7124-10.023 8.1372-11.03 13.989-0.94745 5.5056 3.3548 5.1443 5.3806 15.873 5.1615-7.5342 0.30212-7.1731 0.26901-10.761-0.038116-4.1288-2.4201-8.7002-0.53806-12.375 1.5645-3.055 6.7136-2.7879 8.6089-5.6496 2.2144-3.3437 2.6897-7.863 2.1522-11.837-0.3602-2.663-0.95438-6.3949-3.4973-7.2637-1.1385-0.38895-2.6553 0.55627-3.2283 1.6142z"/>
  </g>
  <g stroke="#181818">
   <path d="m104.19 39.966s-8.0568 13.117-9.2369 20.526c-1.3439 8.4381 3.6055 16.987 2.7369 25.487-1.1568 11.319-12.696 21.349-10.434 32.5 0.53852 2.6548 5.4737 7.0132 5.3027 6.1579-0.1711-0.85526-4.1485-13.77-2.7369-20.526 1.4858-7.1119 9.5341-11.595 11.29-18.645 1.711-6.8716-1.7106-20.184-1.1974-21.211 0.51312-1.0263 6.8421-12.829 6.8421-12.829l-2.5658-11.461z"/>
   <path d="m196.19 392.97s-8.0568 13.117-9.2369 20.526c-1.3439 8.4381 3.6055 16.987 2.7369 25.487-1.1568 11.319-12.696 21.349-10.434 32.5 0.53851 2.6548 5.4737 7.0132 5.3027 6.1579-0.17108-0.85526-4.1485-13.77-2.7369-20.526 1.4858-7.1119 9.5341-11.595 11.29-18.645 1.711-6.8716-1.7106-20.184-1.1974-21.211 0.51312-1.0263 6.8421-12.829 6.8421-12.829l-2.5658-11.461z"/>
   <path d="m86.187 180.97s-8.0568 13.117-9.2369 20.526c-1.3439 8.4381 3.6055 16.987 2.7369 25.487-1.1568 11.319-12.696 21.349-10.434 32.5 0.53852 2.6548 5.4737 7.0132 5.3027 6.1579-0.1711-0.85526-4.1485-13.77-2.7369-20.526 1.4858-7.1119 9.5341-11.595 11.29-18.645 1.711-6.8716-1.7106-20.184-1.1974-21.211 0.51312-1.0263 6.8421-12.829 6.8421-12.829l-2.5658-11.461z"/>
   <path d="m109.19 450.97s-8.0568 13.117-9.2369 20.526c-1.3439 8.4381 3.6055 16.987 2.7369 25.487-1.1568 11.319-12.696 21.349-10.434 32.5 0.53852 2.6548 5.4737 7.0132 5.3027 6.158-0.1711-0.85529-4.1485-13.77-2.7369-20.526 1.4858-7.1119 9.5341-11.595 11.29-18.645 1.711-6.8716-1.7106-20.184-1.1974-21.211 0.51312-1.0263 6.8421-12.829 6.8421-12.829l-2.5658-11.461z"/>
   <path d="m196.19 287.97s-8.0568 13.117-9.2369 20.526c-1.3439 8.4381 3.6055 16.987 2.7369 25.487-1.1568 11.319-12.696 21.349-10.434 32.5 0.53851 2.6548 5.4737 7.0132 5.3027 6.1579-0.17108-0.85526-4.1485-13.77-2.7369-20.526 1.4858-7.1119 9.5341-11.595 11.29-18.645 1.711-6.8716-1.7106-20.184-1.1974-21.211 0.51312-1.0263 6.8421-12.829 6.8421-12.829l-2.5658-11.461z"/>
   <path d="m98.187 290.97s-8.0568 13.117-9.2369 20.526c-1.3439 8.4381 3.6055 16.987 2.7369 25.487-1.1568 11.319-12.696 21.349-10.434 32.5 0.53852 2.6548 5.4737 7.0132 5.3027 6.1579-0.1711-0.85526-4.1485-13.77-2.7369-20.526 1.4858-7.1119 9.5341-11.595 11.29-18.645 1.711-6.8716-1.7106-20.184-1.1974-21.211 0.51312-1.0263 6.8421-12.829 6.8421-12.829l-2.5658-11.461z"/>
   <path d="m171.16 201.89s5.2219 11.098 6.0994 17.078c1.714 11.683 0.91907 23.893-1.8298 35.377-1.3984 5.8422-3.5977 7.2834-7.3193 16.468 6.7218 0.20883 8.0509-6.9526 10.369-11.589 1.8545-3.709 3.1338-8.1106 2.4398-12.199-0.86951-5.1222-7.9293-10.979-7.9293-13.419 0-2.4398 7.7496-8.6115 8.5392-14.029 0.57617-3.9527-3.0497-11.589-3.0497-11.589l-7.3193-6.0995z"/>
   <path d="m10.163 220.89s5.2219 11.098 6.0994 17.078c1.714 11.683 0.91907 23.893-1.8298 35.377-1.3984 5.8422-3.5977 7.2834-7.3193 16.468 6.7218 0.20883 8.0509-6.9526 10.369-11.589 1.8545-3.709 3.1338-8.1106 2.4398-12.199-0.86951-5.1222-7.9293-10.979-7.9293-13.419 0-2.4398 7.7496-8.6115 8.5392-14.029 0.57617-3.9527-3.0497-11.589-3.0497-11.589l-7.3193-6.0995z"/>
   <path d="m116.16 402.89s5.2219 11.098 6.0994 17.078c1.714 11.683 0.91908 23.893-1.8298 35.377-1.3984 5.8422-3.5977 7.2834-7.3193 16.468 6.7218 0.20883 8.0509-6.9526 10.369-11.589 1.8545-3.709 3.1338-8.1106 2.4398-12.199-0.86951-5.1222-7.9293-10.979-7.9293-13.419 0-2.4398 7.7496-8.6115 8.5392-14.029 0.57617-3.9527-3.0497-11.589-3.0497-11.589l-7.3193-6.0995z"/>
   <path d="m237.16 396.89s5.2219 11.098 6.0994 17.078c1.714 11.683 0.91907 23.893-1.8298 35.377-1.3984 5.8422-3.5977 7.2834-7.3193 16.468 6.7218 0.20883 8.0509-6.9526 10.369-11.589 1.8545-3.709 3.1338-8.1106 2.4398-12.199-0.86951-5.1222-7.9293-10.979-7.9293-13.419 0-2.4398 7.7496-8.6115 8.5392-14.029 0.57617-3.9527-3.0497-11.589-3.0497-11.589l-7.3193-6.0995z"/>
   <path d="m102.16 19.892s5.2219 11.098 6.0994 17.078c1.714 11.683 0.91908 23.893-1.8298 35.377-1.3984 5.8422-3.5977 7.2834-7.3193 16.468 6.7218 0.20882 8.0509-6.9526 10.369-11.589 1.8545-3.709 3.1338-8.1106 2.4398-12.199-0.86951-5.1222-7.9293-10.979-7.9293-13.419 0-2.4398 7.7496-8.6115 8.5392-14.029 0.57617-3.9527-3.0497-11.589-3.0497-11.589l-7.3193-6.0995z"/>
   <path d="m352.16 221.89s5.2219 11.098 6.0994 17.078c1.714 11.683 0.91907 23.893-1.8298 35.377-1.3984 5.8422-3.5977 7.2834-7.3193 16.468 6.7218 0.20883 8.0509-6.9526 10.369-11.589 1.8545-3.709 3.1338-8.1106 2.4398-12.199-0.86951-5.1222-7.9293-10.979-7.9293-13.419 0-2.4398 7.7496-8.6115 8.5392-14.029 0.57617-3.9527-3.0497-11.589-3.0497-11.589l-7.3193-6.0995z"/>
   <path d="m119.16 110.89s5.2219 11.098 6.0994 17.078c1.714 11.683 0.91908 23.893-1.8298 35.377-1.3984 5.8422-3.5977 7.2834-7.3193 16.468 6.7218 0.20883 8.0509-6.9526 10.369-11.589 1.8545-3.709 3.1338-8.1106 2.4398-12.199-0.86951-5.1222-7.9293-10.979-7.9293-13.419 0-2.4398 7.7496-8.6115 8.5392-14.029 0.57617-3.9527-3.0497-11.589-3.0497-11.589l-7.3193-6.0995z"/>
   <path d="m198.16 123.89s5.2219 11.098 6.0994 17.078c1.714 11.683 0.91907 23.893-1.8298 35.377-1.3984 5.8422-3.5977 7.2834-7.3193 16.468 6.7218 0.20883 8.0509-6.9526 10.369-11.589 1.8545-3.709 3.1338-8.1106 2.4398-12.199-0.86951-5.1222-7.9293-10.979-7.9293-13.419 0-2.4398 7.7496-8.6115 8.5392-14.029 0.57617-3.9527-3.0497-11.589-3.0497-11.589l-7.3193-6.0995z"/>
   <path d="m204.16 308.89s5.2219 11.098 6.0994 17.078c1.714 11.683 0.91907 23.893-1.8298 35.377-1.3984 5.8422-3.5977 7.2834-7.3193 16.468 6.7218 0.20883 8.0509-6.9526 10.369-11.589 1.8545-3.709 3.1338-8.1106 2.4398-12.199-0.86951-5.1222-7.9293-10.979-7.9293-13.419 0-2.4398 7.7496-8.6115 8.5392-14.029 0.57617-3.9527-3.0497-11.589-3.0497-11.589l-7.3193-6.0995z"/>
   <path d="m43.163 190.89s5.2219 11.098 6.0994 17.078c1.714 11.683 0.91907 23.893-1.8298 35.377-1.3984 5.8422-3.5977 7.2834-7.3193 16.468 6.7218 0.20883 8.0509-6.9526 10.369-11.589 1.8545-3.709 3.1338-8.1106 2.4398-12.199-0.86951-5.1222-7.9293-10.979-7.9293-13.419 0-2.4398 7.7496-8.6115 8.5392-14.029 0.57617-3.9527-3.0497-11.589-3.0497-11.589l-7.3193-6.0995z"/>
  </g>
 </g>
</svg>
