<?xml version="1.0" encoding="UTF-8"?>
<!DOCTYPE svg  PUBLIC '-//W3C//DTD SVG 1.1//EN'  'http://www.w3.org/Graphics/SVG/1.1/DTD/svg11.dtd'>
<svg enable-background="new 0 0 51.2 48.7" version="1.1" viewBox="0 0 51.2 48.7" xml:space="preserve" xmlns="http://www.w3.org/2000/svg">
<g clip-rule="evenodd" fill-rule="evenodd">
		<linearGradient id="bv" x1="38.24" x2="98.558" y1="5.9854" y2="5.9854" gradientTransform="matrix(.9993 .0377 -2.4789 .9072 .00049764 1.4946e-5)" gradientUnits="userSpaceOnUse">
		<stop stop-color="#E3EFFF" offset=".0078"/>
		<stop stop-color="#BFCFE5" offset=".5529"/>
		<stop stop-color="#E4F0FF" offset="1"/>
	</linearGradient>
	<path d="m37.3 7.95c0.101-0.2 0.167-0.417 0.2-0.65v-0.05c0-0.133-0.017-0.267-0.05-0.4l0.85 0.05-0.4 0.2 2.6 0.6 0.35 0.05-3.55 0.2z" fill="url(#bv)"/>
	<linearGradient id="av" x2="51.2" y1="10.5" y2="10.5" gradientUnits="userSpaceOnUse">
		<stop stop-color="#89BAFD" offset="0"/>
		<stop stop-color="#5C91DE" offset=".502"/>
		<stop stop-color="#89BAFD" offset="1"/>
	</linearGradient>
	<path d="m36.1 9.85l-0.25-0.05c0.034-0.067 0.05-0.133 0.05-0.2 0.1-0.267 0.1-0.5 0-0.7 0.666-0.2 1.133-0.517 1.399-0.95l3.55-0.2-0.349-0.05 10.7 1.2-0.6 0.2 0.25-0.2-1.65 0.35-3.4-0.55 0.05 1.1-4.35 0.9-4.1-0.6-0.6-0.15 0.7-0.35-1.4 0.25zm7.9 1.25l-2.3-0.4h3.75l-1.45 0.4zm-24.35 2.1c1.133-0.434 2.217-0.817 3.25-1.15 0.267 0.1 0.633 0.15 1.1 0.15 1.733 0.066 2.934 0.033 3.6-0.1 0.267-0.067 0.551-0.133 0.851-0.2l1.05-0.05 0.8 1.05 2.4-1c0.366 0.067 0.733 0.133 1.1 0.2l4.3 0.7v0.1c-1.633 0.467-3.566 0.95-5.8 1.45l-3.05 0.55-3.45-0.55 0.05 0.2c-0.899-0.167-1.816-0.316-2.75-0.45-1.267-0.2-2.467-0.4-3.6-0.6l1.35-0.05-1.201-0.25zm6.6-6.7c0.033-0.133 0.066-0.267 0.1-0.4h0.601l-0.601 0.3c0.334-0.033 0.584-0.066 0.75-0.1v0.15l-0.15 0.05h-0.7zm-9.6 3.2l0.4 0.6c-2.1 0.534-4.483 1.184-7.15 1.95v0.05c-1.5-0.233-3.066-0.466-4.7-0.7-0.467-0.067-0.95-0.15-1.45-0.25l4.05-0.25-2.9-0.6 2.35-1.2-4.85 0.8h-0.05c4.233-1.1 7.367-1.9 9.4-2.4l1.6-0.35-0.2 0.1-3.65 0.85c1.667 0.3 3.233 0.583 4.7 0.85l-2.5 0.5 4.8-0.15c-0.033 0.067-0.033 0.133 0 0.2h0.15zm-16.6 1l0.15 0.05c-0.067 0-0.133-0.017-0.2-0.05h0.05z" fill="url(#av)"/>
		<linearGradient id="bf" x1="38.148" x2="98.44" y1="8.0459" y2="8.0459" gradientTransform="matrix(.9993 .0377 -2.4774 .9072 .00096005 -.00018781)" gradientUnits="userSpaceOnUse">
		<stop stop-color="#E3EFFF" offset=".0078"/>
		<stop stop-color="#BFCFE5" offset=".5529"/>
		<stop stop-color="#E4F0FF" offset="1"/>
	</linearGradient>
	<polygon points="41.5 10.7 45.85 9.8 45.8 8.7 49.2 9.25 50.85 8.9 50.6 9.1 45.45 10.7 41.7 10.7" fill="url(#bf)"/>
	<path d="m44.2 11.1c-0.467 0.267-1.316 0.583-2.55 0.95-1.134 0.3-2.084 0.517-2.851 0.65 1.601-0.434 3.3-0.967 5.101-1.6l-2.4-0.4h0.2l2.3 0.4h0.2zm-8.35-1.3l0.25 0.05 0.7 0.1 0.6 0.15-1.55-0.25v-0.05zm2.25 3.1v-0.1c0.198 0 0.398-0.025 0.601-0.075l-0.601 0.175zm0.6 32c-0.101 0.033-0.2 0.083-0.3 0.149v-0.149c0-3.5 0.066-6.967 0.199-10.4 0.034-0.333 0.051-0.717 0.051-1.15 0.033-1.399 0.017-3.3-0.051-5.699-0.033-1.733-0.083-3.717-0.149-5.95l-0.05-0.85-0.051-1.1-0.249-6.451v-0.05c0.301 0.233 0.45 0.95 0.45 2.15 0.033 0.667 0.017 1.633-0.05 2.9 0 1.833 0.134 10.101 0.4 24.8l-0.2 1.8zm-25.35-37.55l0.3-0.05-0.5 0.15 0.2-0.1z" fill="#303F60"/>
	<path d="m50.6 9.1l-6.4 2.2v-0.2h-0.2l1.45-0.4 5.15-1.6zm-31.9 4.8v-0.4c0.1 0 0.183-0.017 0.25-0.05 0.167 0.033 0.35 0.05 0.55 0.05 1.133 0.2 2.333 0.4 3.6 0.6 0.933 0.133 1.85 0.283 2.75 0.45 1 0.2 1.983 0.383 2.95 0.55 1.267-0.267 2.434-0.517 3.5-0.75 2.233-0.5 4.167-0.983 5.8-1.45v0.4c-2.366 0.7-5.3 1.5-8.8 2.4v7.9l-0.9-6.9c-0.034-0.2-0.067-0.383-0.101-0.55-0.033-0.167-0.083-0.316-0.149-0.45l-4.5-0.95c-1.8-0.3-3.45-0.583-4.95-0.85zm-8.8-1.6l0.05 0.4c-1.7-0.267-3.467-0.583-5.3-0.95-1.433-0.3-2.917-0.633-4.45-1 1.2 0.233 2.383 0.433 3.55 0.6 0.5 0.1 0.983 0.183 1.45 0.25 1.633 0.233 3.2 0.467 4.7 0.7zm-9.35 5.4h-0.05l-0.1-2 0.15 2z" fill="#9FC8FE"/>
		<linearGradient id="bg" x1="14.284" x2="42.387" y1="-40.972" y2="-40.972" gradientTransform="matrix(.0142 .9999 -.9999 .0142 -.00024533 .00042802)" gradientUnits="userSpaceOnUse">
		<stop stop-color="#D8AD1C" offset="0"/>
		<stop stop-color="#F4D64A" offset=".4902"/>
		<stop stop-color="#D3A81B" offset=".7804"/>
		<stop stop-color="#B79116" offset="1"/>
	</linearGradient>
	<path d="m40.55 44c-0.533 0.2-1.083 0.467-1.649 0.8-0.067 0.033-0.134 0.066-0.2 0.101l0.2-1.801c-0.267-14.699-0.4-22.966-0.4-24.8 0.066-1.267 0.083-2.233 0.05-2.9 0-1.2-0.149-1.917-0.45-2.15v-0.35l0.601-0.175 0.05-0.025h0.05c0.767-0.133 1.717-0.35 2.851-0.65 1.233-0.367 2.083-0.683 2.55-0.95v0.2l-0.203 1.2c-0.134 1-0.233 2.1-0.3 3.3v1.85c-0.033 0.3-0.05 0.633-0.05 1v2.8c0 0.7 0.017 1.466 0.05 2.3l0.2 13.45c0.033 1.533 0.066 3.166 0.1 4.899l-0.5 0.4-0.2 0.1-0.2 0.101-0.05 0.05c-0.389 0.26-0.747 0.468-1.075 0.625l-0.149 0.075c-0.039 0.015-0.081 0.031-0.125 0.05-0.167 0.1-0.334 0.167-0.5 0.2-0.101 0.066-0.2 0.133-0.3 0.2l-0.351 0.1z" fill="url(#bg)"/>
		<linearGradient id="bh" x1="15.707" x2="41.127" y1="4.7085" y2="4.7085" gradientTransform="matrix(.9835 .181 -.181 .9835 -8.6144e-5 -.00010143)" gradientUnits="userSpaceOnUse">
		<stop stop-color="#F4D95E" offset="0"/>
		<stop stop-color="#F4D64A" offset=".4902"/>
		<stop stop-color="#D3A81B" offset=".7804"/>
		<stop stop-color="#B79116" offset="1"/>
	</linearGradient>
	<path d="m38.8 12.7h-0.05l-0.05 0.025c-0.202 0.05-0.402 0.075-0.601 0.075l-4.3-0.7c-0.366-0.067-0.733-0.133-1.1-0.2-1.2-0.2-2.283-0.367-3.25-0.5 0.399-0.2 0.733-0.367 1-0.5 0.166-0.066 1.184-0.133 3.05-0.2 1.2-0.034 1.983-0.317 2.35-0.85l1.551 0.25 4.1 0.6 2.4 0.4c-1.8 0.633-3.5 1.167-5.1 1.6zm-23.35-4.75c0.167 0.233 0.367 0.417 0.6 0.55 0.2 0.133 0.467 0.25 0.8 0.35-0.067 0.033-0.117 0.1-0.15 0.2-0.133 0.167-0.2 0.317-0.2 0.45l-1.65-0.25c-0.233-0.033-0.45-0.067-0.65-0.1-1.467-0.267-3.033-0.55-4.7-0.85l3.65-0.85 0.5-0.15 1.2-0.25c0.1 0.333 0.3 0.633 0.6 0.9zm3.05 0.35v-0.2l0.15 0.2h-0.15zm0 1.6c-0.065-0.032-0.115-0.049-0.15-0.05h0.1s0.083 0 0.15 0c-0.035 1e-3 -0.068 0.018-0.1 0.05z" fill="url(#bh)"/>
		<linearGradient id="bi" x1="20.043" x2="27.224" y1="-35.617" y2="-35.617" gradientTransform="matrix(.2228 .9749 -.9749 .2228 -.00018188 5.6058e-5)" gradientUnits="userSpaceOnUse">
		<stop stop-color="#3E6298" offset=".0078"/>
		<stop stop-color="#33517C" offset="1"/>
	</linearGradient>
	<path d="m50.6 9.1l0.6-0.2v5.75l-1.45 0.6h-0.05l-6 2.4v-1.85c0.066-1.2 0.166-2.3 0.3-3.3l0.2-1.2 6.4-2.2zm-12.5 4.2l0.25 6.45c-2.133 0.9-5.05 2.15-8.75 3.75-0.066 0-0.116 0.017-0.149 0.05-0.033 0-0.066 0.017-0.101 0.05h-0.05v-7.9c3.5-0.9 6.433-1.7 8.8-2.4z" fill="url(#bi)"/>
	<path d="m49.75 15.25l-0.05 1-5.2 2.05-0.85 0.35c0-0.367 0.017-0.7 0.05-1l6-2.4h0.05zm-20.15 9.45c-0.066 0.033-0.116 0.066-0.149 0.1l-1.15-1.45 1 0.25h0.099l0.05-0.05c0.033-0.033 0.083-0.05 0.149-0.05 3.7-1.6 6.617-2.85 8.75-3.75l0.051 1.1c-1.601 0.7-3.483 1.517-5.65 2.45-0.967 0.433-2.017 0.9-3.15 1.4z" fill="#2C3956"/>
		<linearGradient id="bj" x1="13.232" x2="45.082" y1="-44.299" y2="-44.299" gradientTransform="matrix(3.1397e-5 1 -1 -.001 -.0004152 -8.2004e-6)" gradientUnits="userSpaceOnUse">
		<stop stop-color="#A2AFBF" offset=".0078"/>
		<stop stop-color="#8DA1B9" offset="1"/>
	</linearGradient>
	<path d="m43.65 21.45v-2.8l0.85-0.35-0.15 0.2 0.601 3.8-1.301-0.85z" fill="url(#bj)"/>
		<linearGradient id="bk" x1="19.998" x2="42.523" y1="-39.748" y2="-39.748" gradientTransform="matrix(4.4395e-5 1 -1 -.001 .00027325 -9.1512e-6)" gradientUnits="userSpaceOnUse">
		<stop stop-color="#385989" offset=".0078"/>
		<stop stop-color="#33517C" offset="1"/>
	</linearGradient>
	<path d="m43.9 37.2l-0.2-13.45c-0.033-0.833-0.05-1.6-0.05-2.3l1.3 0.85-0.601-3.8 0.15-0.2 5.2-2.05c-0.033 3.133-0.033 5.217 0 6.25 0 0.233 0.017 0.55 0.05 0.95l-0.849 0.25-0.851-3.5-0.95 4-2.449 1.25 1.85 1.899-0.75 4.15 2.2-3.05 1.899 1.2v4.85l-0.6 0.35 0.6 0.601v3.649l-3.5 2c-0.666 0.367-1.283 0.7-1.85 1l-0.399-2.399 1.95-3.351-2.15 0.851zm5.9-11.7c0 0.9 0.017 2 0.05 3.3l-0.45-2.7 0.4-0.6zm-6.5 17.1l0.2 0.051c-0.597 0.298-1.104 0.54-1.525 0.725 0.328-0.157 0.687-0.365 1.075-0.625l0.05-0.05 0.2-0.101zm-13 6.1l0.55-0.8 0.601 0.3c-0.368 0.166-0.751 0.333-1.151 0.5zm8.1-3.8c-1.4 0.666-3.2 1.517-5.4 2.55l-0.45-2.25 2.15-3.7-2.8 1.15-1.101-3.7-0.75 3.25c-0.233-5.934-0.35-9.834-0.35-11.7l-0.05-3.8 1.25-1.55 2.451 1.45-0.6-3.3c2.167-0.933 4.05-1.75 5.65-2.45l0.05 0.85c0.066 2.233 0.116 4.217 0.149 5.95h-0.05l-0.949-3.75-1.05 4.35-2.8 1.35 2.15 2-0.8 4.45 2.45-3.35 1.101 0.649c0 0.434-0.017 0.817-0.051 1.15-0.133 3.435-0.2 6.901-0.2 10.401z" fill="url(#bk)"/>
		<linearGradient id="bx" x1="13.228" x2="45.078" y1="-47.248" y2="-47.248" gradientTransform="matrix(3.1397e-5 1 -1 -.001 -.0004152 -8.2004e-6)" gradientUnits="userSpaceOnUse">
		<stop stop-color="#A2AFBF" offset=".0078"/>
		<stop stop-color="#8DA1B9" offset="1"/>
	</linearGradient>
	<polygon points="49.75 23.45 49.8 25.5 49.4 26.1 49.85 28.8 49.85 29.65 47.95 28.45 45.75 31.5 46.5 27.35 44.65 25.45 47.1 24.2 48.05 20.2 48.9 23.7" fill="url(#bx)"/>
		<linearGradient id="bl" x1="13.226" x2="45.076" y1="-49.548" y2="-49.548" gradientTransform="matrix(3.1397e-5 1 -1 -.001 -.0004152 -8.2004e-6)" gradientUnits="userSpaceOnUse">
		<stop stop-color="#A2AFBF" offset=".0078"/>
		<stop stop-color="#8DA1B9" offset="1"/>
	</linearGradient>
	<polygon points="49.85 34.5 49.85 35.45 49.25 34.85" fill="url(#bl)"/>
		<linearGradient id="bm" x1="13.232" x2="45.082" y1="-43.298" y2="-43.298" gradientTransform="matrix(3.1397e-5 1 -1 -.001 -.0004152 -8.2004e-6)" gradientUnits="userSpaceOnUse">
		<stop stop-color="#A2AFBF" offset=".0078"/>
		<stop stop-color="#8DA1B9" offset="1"/>
	</linearGradient>
	<path d="m43.3 42.6l0.2-0.1 0.5-0.4c-0.033-1.733-0.066-3.366-0.1-4.899l2.149-0.851-1.949 3.35 0.4 2.399v0.051l-1 0.55v-0.05l-0.2-0.05zm-2.75 1.4l0.351-0.1-0.351 0.15v-0.05zm1.15-0.5l-0.05 0.1-0.75 0.3c0.1-0.067 0.199-0.134 0.3-0.2 0.166-0.033 0.333-0.1 0.5-0.2z" fill="url(#bm)"/>
		<linearGradient id="bn" x1="5.4141" x2="9.5397" y1="-31.818" y2="-31.818" gradientTransform="matrix(.0182 .9998 -.9998 .0182 -.00017034 -.00023587)" gradientUnits="userSpaceOnUse">
		<stop stop-color="#D8AD1C" offset="0"/>
		<stop stop-color="#F4D64A" offset=".4902"/>
		<stop stop-color="#D3A81B" offset=".7804"/>
		<stop stop-color="#B79116" offset="1"/>
	</linearGradient>
	<path d="m32.9 5.4c-0.534-0.467-1.534-0.467-3 0-0.134 0.033-0.267 0.067-0.4 0.1-0.1 0.033-0.184 0.083-0.25 0.15-0.233 0.067-0.517 0.217-0.85 0.45-0.267 0.133-0.483 0.25-0.65 0.35-0.134 0.033-0.217 0.066-0.25 0.1-0.066 0-0.134 0.017-0.2 0.05s-0.267 0.066-0.6 0.1c-0.101 0-0.2 0.017-0.3 0.05l0.55-0.25 0.15-0.05 0.5-0.2c0.167-0.1 0.45-0.283 0.851-0.55 0.033-0.034 0.05-0.067 0.05-0.1 0.434-0.3 0.816-0.517 1.15-0.65 1-0.333 2.166-0.45 3.5-0.35 2.366 0.133 3.716 0.6 4.05 1.4 0.1 0.3 0.184 0.583 0.25 0.85 0.033 0.133 0.05 0.267 0.05 0.4v0.05c-0.033 0.233-0.1 0.45-0.2 0.65-0.268 0.433-0.735 0.75-1.401 0.95-0.367 0.1-0.784 0.167-1.25 0.2-0.9 0.1-1.75 0.05-2.551-0.15-0.832-0.167-1.233-0.383-1.199-0.65h0.05c0.1 0 0.217 0.017 0.35 0.05 0.467 0 0.816-0.017 1.05-0.05 0.534 0 0.9-0.2 1.101-0.6 0.1-0.267 0.116-0.65 0.05-1.15-0.1-0.367-0.2-0.65-0.3-0.85-0.066-0.067-0.117-0.133-0.15-0.2-0.034-0.033-0.084-0.067-0.151-0.1z" fill="url(#bn)"/>
	<path d="m31.3 8.35c-0.133-0.033-0.25-0.05-0.35-0.05-0.134-0.066-0.2-0.133-0.2-0.2 0.2 0.067 0.384 0.15 0.55 0.25zm1.9-2.65c-0.233 0.067-0.516 0.167-0.85 0.3-0.399 0.067-0.833 0.05-1.3-0.05-0.267-0.034-0.7-0.117-1.3-0.25-0.167-0.034-0.333-0.05-0.5-0.05 0.066-0.066 0.15-0.117 0.25-0.15 0.134-0.033 0.267-0.067 0.4-0.1 0.466 0.067 0.8 0.133 1 0.2 0.533 0.1 1 0.117 1.399 0.05l0.601-0.25c0.066 0.033 0.116 0.067 0.149 0.1 0.034 0.067 0.085 0.133 0.151 0.2zm-4.75 0h-0.101c-0.133 0.033-0.316 0.15-0.55 0.35-0.199 0.167-0.415 0.25-0.649 0.25h-0.05c-0.166 0.034-0.416 0.067-0.75 0.1l0.601-0.3v-0.2c0.267 0.033 0.5-0.033 0.7-0.2 0.267-0.233 0.466-0.367 0.6-0.4h0.1c0.434-0.333 0.817-0.566 1.15-0.7 1.033-0.367 2.233-0.5 3.6-0.4 2.367 0.167 3.717 0.667 4.051 1.5 0.166 0.4 0.267 0.783 0.3 1.15-0.068-0.267-0.152-0.55-0.252-0.85-0.334-0.8-1.684-1.267-4.05-1.4-1.334-0.1-2.5 0.017-3.5 0.35-0.334 0.133-0.716 0.35-1.15 0.65 0 0.033-0.017 0.067-0.05 0.1zm-2.2 0.8h0.7l-0.55 0.25c0.1-0.033 0.2-0.05 0.3-0.05 0.333-0.034 0.533-0.067 0.6-0.1 0.267 0 0.55 0.083 0.851 0.25 0.203 0.116 0.387 0.208 0.55 0.275-0.231-0.089-0.498-0.165-0.801-0.225-0.233-0.033-0.834-0.05-1.801-0.05 0.035-0.1 0.085-0.217 0.151-0.35zm0.55-4.9c-0.3-0.6-0.866-0.967-1.7-1.1-0.633-0.1-1.3 0.033-2 0.4-0.767 0.333-1.217 0.767-1.35 1.3-0.033 0.133-0.05 0.267-0.05 0.4l-0.05-0.05c-0.5 0.4-0.683 1-0.55 1.8 0.066 0.267 0.133 0.517 0.2 0.75-0.267-0.067-0.583-0.133-0.95-0.2-2.5-0.6-4.15-0.4-4.95 0.6-0.367 0.5-0.483 1.033-0.35 1.6 0.067 0.333 0.2 0.617 0.4 0.85-0.3-0.267-0.5-0.567-0.6-0.9-0.033-0.1-0.067-0.183-0.1-0.25-0.133-0.6-0.017-1.15 0.35-1.65 0.566-0.7 1.433-1.033 2.6-1 0.833 0 1.983 0.184 3.45 0.55-0.2-0.5-0.283-0.967-0.25-1.4 0-0.533 0.184-0.933 0.55-1.2l0.05 0.05 0.05-0.4c0.133-0.567 0.583-1.017 1.35-1.35 0.733-0.333 1.417-0.45 2.05-0.35 1 0.167 1.616 0.683 1.85 1.55zm-7.5 4.9c0.067-0.133 0.15-0.233 0.25-0.3 0.467 0.066 0.85 0.1 1.15 0.1 0.4 0 0.833-0.066 1.3-0.2 0 0.033 0.017 0.05 0.05 0.05 0.1 0.1 0.2 0.184 0.3 0.25-0.633 0.133-1.117 0.2-1.45 0.2-0.467 0-1-0.033-1.6-0.1zm1.6 3.15c0-0.333 0.133-0.667 0.4-1 0.133-0.033 0.284-0.083 0.45-0.15-0.633 0.7-0.85 1.383-0.65 2.05 0.033 0.1 0.1 0.217 0.2 0.35-0.167-0.167-0.3-0.367-0.4-0.6-0.067-0.2-0.067-0.417 0-0.65zm8.2-2.3c0.167 0.066 0.317 0.133 0.45 0.2 0.066 0.1 0.117 0.184 0.15 0.25 0.033 0.067 0.066 0.133 0.1 0.2 0.066 0.167 0.117 0.317 0.15 0.45-0.033-0.067-0.05-0.117-0.05-0.15-0.167-0.4-0.433-0.717-0.8-0.95zm-10.45 0.95l-0.15-0.2 0.35 0.4h-0.05l-0.15-0.2zm0.05 0.4c-0.034-0.034-0.067-0.083-0.1-0.15 0.066 0.067 0.15 0.117 0.25 0.15h-0.15z" fill="#EDDE7E"/>
	<linearGradient id="bo" x1="27.1" x2="35.4" y1="7" y2="7" gradientUnits="userSpaceOnUse">
		<stop stop-color="#756321" offset="0"/>
		<stop stop-color="#D3A81B" offset=".7804"/>
		<stop stop-color="#B79116" offset="1"/>
	</linearGradient>
	<path d="m33.2 5.7c0.1 0.2 0.2 0.483 0.3 0.85 0.066 0.5 0.05 0.883-0.05 1.15-0.2 0.4-0.566 0.6-1.101 0.6-0.233 0.034-0.583 0.05-1.05 0.05-0.166-0.1-0.35-0.184-0.55-0.25-0.134-0.1-0.267-0.167-0.4-0.2-0.033-0.033-0.066-0.05-0.1-0.05-0.2-0.1-0.434-0.2-0.7-0.3-0.133-0.066-0.283-0.133-0.45-0.2-0.066-0.033-0.183-0.1-0.35-0.2-0.019-7e-3 -0.035-0.016-0.05-0.025-0.163-0.067-0.347-0.159-0.55-0.275-0.299-0.167-0.583-0.25-0.849-0.25 0.066-0.033 0.134-0.05 0.2-0.05 0.033-0.033 0.116-0.066 0.25-0.1 0.167-0.1 0.384-0.217 0.65-0.35 0.333-0.233 0.616-0.383 0.85-0.45 0.167 0 0.333 0.017 0.5 0.05 0.6 0.133 1.033 0.216 1.3 0.25 0.467 0.1 0.9 0.117 1.3 0.05 0.334-0.133 0.617-0.233 0.85-0.3zm-6.1 0.75v-0.15h0.051c0.233 0 0.449-0.083 0.649-0.25 0.233-0.2 0.417-0.316 0.55-0.35h0.101c-0.4 0.267-0.684 0.45-0.851 0.55l-0.5 0.2z" fill="url(#bo)"/>
	<path d="m29.95 8.45c-0.033-0.133-0.084-0.283-0.15-0.45-0.033-0.067-0.066-0.133-0.1-0.2h0.1c0.167 0 0.316 0.017 0.45 0.05 0.033 0 0.066 0.017 0.1 0.05 0.134 0.033 0.267 0.1 0.4 0.2 0 0.066 0.066 0.133 0.2 0.2h-0.05c-0.034 0.267 0.366 0.483 1.199 0.65 0.801 0.2 1.651 0.25 2.551 0.15 0.466-0.033 0.883-0.1 1.25-0.2 0.1 0.2 0.1 0.434 0 0.7 0 0.066-0.017 0.133-0.051 0.2v0.05c-0.366 0.533-1.149 0.816-2.35 0.85-1.866 0.066-2.884 0.133-3.05 0.2-0.267 0.133-0.601 0.3-1 0.5h-0.049c-0.101 0.067-0.2 0.117-0.301 0.15-0.233 0.1-0.449 0.217-0.649 0.35-0.3 0.067-0.584 0.133-0.851 0.2-0.666 0.133-1.866 0.167-3.6 0.1-0.467 0-0.833-0.05-1.1-0.15-0.3-0.1-0.5-0.267-0.6-0.5 1.067 0.333 2.867 0.233 5.4-0.3 0.866-0.2 1.517-0.533 1.95-1 0.434-0.533 0.535-1.133 0.301-1.8zm-9.05 1.2c-0.4 0.033-0.85 0.067-1.35 0.1-0.333 0.033-0.65 0.067-0.95 0.1h-0.15s-0.066 0-0.1 0c-0.7 0.033-1.267-0.017-1.7-0.15h-0.15c-0.033-0.067-0.033-0.133 0-0.2 0-0.133 0.067-0.283 0.2-0.45 0.033-0.1 0.083-0.167 0.15-0.2 0.233 0.033 0.483 0.066 0.75 0.1 0.733 0.033 1.217 0.05 1.45 0.05-0.133-0.067-0.25-0.167-0.35-0.3h0.15c-0.1-0.034-0.184-0.083-0.25-0.15-0.067-0.066-0.1-0.15-0.1-0.25h0.15l0.15 0.2h0.05l0.2 0.25c0.667 0.1 1.417 0.067 2.25-0.1-0.267 0.333-0.4 0.667-0.4 1z" fill="#5E4B07"/>
		<linearGradient id="bp" x1="37.597" x2="97.915" y1="9.9634" y2="9.9634" gradientTransform="matrix(.9993 .0377 -2.4789 .9072 .00049764 1.4946e-5)" gradientUnits="userSpaceOnUse">
		<stop stop-color="#E3EFFF" offset=".0078"/>
		<stop stop-color="#BFCFE5" offset=".5529"/>
		<stop stop-color="#E4F0FF" offset="1"/>
	</linearGradient>
	<path d="m32.7 11.9l-2.4 1-0.8-1.05-1.05 0.05c0.2-0.133 0.416-0.25 0.649-0.35 0.101-0.033 0.2-0.083 0.301-0.15h0.05c0.967 0.133 2.05 0.3 3.25 0.5zm3.4-2.05l1.4-0.25-0.7 0.35-0.7-0.1z" fill="url(#bp)"/>
		<linearGradient id="bq" x1="1.3506" x2="7.2769" y1="-24.29" y2="-24.29" gradientTransform="matrix(.0211 .9998 -.9998 .0211 .00043813 .00033435)" gradientUnits="userSpaceOnUse">
		<stop stop-color="#D8AD1C" offset="0"/>
		<stop stop-color="#F4D64A" offset=".4902"/>
		<stop stop-color="#D3A81B" offset=".7804"/>
		<stop stop-color="#B79116" offset="1"/>
	</linearGradient>
	<path d="m26.35 6.1c-0.033 0.133-0.066 0.267-0.1 0.4-0.066 0.133-0.116 0.25-0.15 0.35h-0.399l-0.251-0.15 0.2-0.2c-0.134 0-0.267 0.017-0.4 0.05l-0.5-0.3c-0.3-0.167-0.583-0.35-0.85-0.55-0.433-0.367-0.833-0.767-1.2-1.2-0.633-0.7-0.967-1.333-1-1.9 0-0.133 0.017-0.267 0.05-0.4 0.133-0.534 0.583-0.967 1.35-1.3 0.7-0.367 1.367-0.5 2-0.4 0.834 0.133 1.4 0.5 1.7 1.1 0.2 0.433 0.25 1 0.15 1.7s-0.3 1.633-0.6 2.8z" fill="url(#bq)"/>
	<linearGradient id="br" x1="21.087" x2="26.312" y1="4.75" y2="4.75" gradientUnits="userSpaceOnUse">
		<stop stop-color="#756321" offset="0"/>
		<stop stop-color="#D3A81B" offset=".7804"/>
		<stop stop-color="#B79116" offset="1"/>
	</linearGradient>
	<path d="m21.7 2.6c0.033 0.566 0.367 1.2 1 1.9 0.367 0.433 0.767 0.833 1.2 1.2-0.667-0.167-1.533-0.367-2.6-0.6-0.066-0.233-0.133-0.483-0.2-0.75-0.133-0.8 0.05-1.4 0.55-1.8l0.05 0.05zm0.3 3.5c-0.167-0.133-0.3-0.3-0.4-0.5l0.1 0.05c0.433 0.033 0.933 0.184 1.5 0.45 0.6 0.267 1.117 0.467 1.55 0.6-0.233 0.066-0.467 0.15-0.7 0.25-0.7-0.1-1.267-0.284-1.7-0.55-0.1-0.066-0.2-0.15-0.3-0.25-0.033 0-0.05-0.017-0.05-0.05zm3.3 0.7c0.033 0 0.084 0.017 0.15 0.05h-0.15v-0.05z" fill="url(#br)"/>
		<linearGradient id="bs" x1="38.25" x2="98.543" y1="5.1372" y2="5.1372" gradientTransform="matrix(.9993 .0377 -2.4761 .9072 .00083822 1.9375e-5)" gradientUnits="userSpaceOnUse">
		<stop stop-color="#E3EFFF" offset=".0078"/>
		<stop stop-color="#BFCFE5" offset=".5529"/>
		<stop stop-color="#E4F0FF" offset="1"/>
	</linearGradient>
	<path d="m22 6.1c-0.467 0.133-0.9 0.2-1.3 0.2-0.3 0-0.684-0.033-1.15-0.1 0.267-0.3 0.583-0.483 0.95-0.55 0.3-0.1 0.667-0.117 1.1-0.05 0.1 0.2 0.233 0.367 0.4 0.5z" fill="url(#bs)"/>
		<linearGradient id="bt" x1="5.0669" x2="9.0926" y1="-20.218" y2="-20.218" gradientTransform="matrix(.0186 .9998 -.9998 .0186 1.0995e-5 .00038716)" gradientUnits="userSpaceOnUse">
		<stop stop-color="#D8AD1C" offset="0"/>
		<stop stop-color="#F4D64A" offset=".4902"/>
		<stop stop-color="#D3A81B" offset=".7804"/>
		<stop stop-color="#B79116" offset="1"/>
	</linearGradient>
	<path d="m16.85 8.85c-0.333-0.1-0.6-0.217-0.8-0.35-0.233-0.133-0.433-0.317-0.6-0.55-0.2-0.233-0.333-0.517-0.4-0.85-0.133-0.567-0.017-1.1 0.35-1.6 0.8-1 2.45-1.2 4.95-0.6 0.367 0.067 0.683 0.133 0.95 0.2 1.067 0.233 1.934 0.433 2.6 0.6 0.267 0.2 0.55 0.383 0.85 0.55l0.5 0.3c-0.167 0.034-0.333 0.083-0.5 0.15-0.433-0.133-0.95-0.333-1.55-0.6-0.567-0.267-1.067-0.417-1.5-0.45l-0.1-0.05c-0.434-0.067-0.8-0.05-1.1 0.05-0.367 0.067-0.683 0.25-0.95 0.55-0.1 0.066-0.183 0.167-0.25 0.3-0.167 0.167-0.316 0.383-0.45 0.65-0.2 0.367-0.317 0.684-0.35 0.95v0.2c0 0.1 0.033 0.184 0.1 0.25 0.033 0.067 0.066 0.117 0.1 0.15 0.1 0.133 0.216 0.233 0.35 0.3-0.233 0-0.716-0.017-1.45-0.05-0.267-0.033-0.517-0.067-0.75-0.1zm8.6-2c-0.066-0.033-0.117-0.05-0.15-0.05l0.15-0.1 0.25 0.15h-0.25z" fill="url(#bt)"/>
		<linearGradient id="bu" x1="7.3218" x2="11.973" y1="-25.338" y2="-25.338" gradientTransform="matrix(.0215 .9998 -.9998 .0215 -.00047673 -.00017581)" gradientUnits="userSpaceOnUse">
		<stop stop-color="#D8AD1C" offset="0"/>
		<stop stop-color="#F4D64A" offset=".4902"/>
		<stop stop-color="#D3A81B" offset=".7804"/>
		<stop stop-color="#B79116" offset="1"/>
	</linearGradient>
	<path d="m25.45 6.85h0.649c0.967 0 1.567 0.017 1.801 0.05 0.303 0.061 0.569 0.136 0.8 0.225 0.015 9e-3 0.031 0.018 0.05 0.025 0.167 0.1 0.283 0.167 0.35 0.2 0.367 0.233 0.633 0.55 0.8 0.95 0 0.034 0.017 0.083 0.05 0.15 0.233 0.667 0.133 1.267-0.3 1.8-0.434 0.467-1.084 0.8-1.95 1-2.533 0.533-4.333 0.633-5.4 0.3-0.466-0.167-0.8-0.383-1-0.65-0.1-0.133-0.167-0.25-0.2-0.35-0.2-0.667 0.017-1.35 0.65-2.05 0.2-0.2 0.45-0.4 0.75-0.6 0.533-0.4 1.05-0.717 1.55-0.95 0.233-0.1 0.467-0.184 0.7-0.25 0.167-0.067 0.333-0.117 0.5-0.15 0.134-0.033 0.267-0.05 0.4-0.05l-0.2 0.2-0.15 0.1v0.05h0.15z" fill="url(#bu)"/>
	<linearGradient id="bw" x1="16.85" x2="24.65" y1="7.603" y2="7.603" gradientUnits="userSpaceOnUse">
		<stop stop-color="#756321" offset="0"/>
		<stop stop-color="#D3A81B" offset=".7804"/>
		<stop stop-color="#B79116" offset="1"/>
	</linearGradient>
	<path d="m18.5 8.1c0.033-0.267 0.15-0.583 0.35-0.95 0.133-0.267 0.283-0.483 0.45-0.65 0.6 0.067 1.133 0.1 1.6 0.1 0.333 0 0.817-0.067 1.45-0.2 0.433 0.267 1 0.45 1.7 0.55-0.5 0.233-1.017 0.55-1.55 0.95-0.3 0.2-0.55 0.4-0.75 0.6-0.167 0.067-0.317 0.117-0.45 0.15-0.833 0.167-1.583 0.2-2.25 0.1l-0.2-0.25-0.35-0.4z" fill="url(#bw)"/>
		<linearGradient id="am" x1="10.043" x2="26.476" y1="17.156" y2="17.156" gradientTransform="matrix(.9356 -.353 .353 .9356 -6.3062e-5 6.9708e-5)" gradientUnits="userSpaceOnUse">
		<stop stop-color="#F4D95E" offset="0"/>
		<stop stop-color="#F4D64A" offset=".4902"/>
		<stop stop-color="#D3A81B" offset=".9804"/>
	</linearGradient>
	<path d="m22.9 12.05c-1.033 0.333-2.117 0.717-3.25 1.15-0.233 0.066-0.467 0.15-0.7 0.25-0.067 0.033-0.15 0.05-0.25 0.05l-1.35-0.2c-0.5-0.066-1.184-0.15-2.05-0.25l-5.4-0.8c2.667-0.767 5.05-1.417 7.15-1.95 0.467-0.167 0.95-0.3 1.45-0.4 0.032-0.032 0.065-0.049 0.1-0.05 0.3-0.033 0.617-0.067 0.95-0.1 0.5-0.033 0.95-0.067 1.35-0.1-0.066 0.233-0.066 0.45 0 0.65 0.1 0.233 0.233 0.434 0.4 0.6 0.2 0.267 0.534 0.483 1 0.65 0.1 0.233 0.3 0.4 0.6 0.5zm6.8-4.25c-0.033-0.066-0.084-0.15-0.15-0.25 0.267 0.1 0.5 0.2 0.7 0.3-0.134-0.033-0.283-0.05-0.45-0.05h-0.1z" fill="url(#am)"/>
		<linearGradient id="an" x1="36.673" x2="96.991" y1="13.562" y2="13.562" gradientTransform="matrix(.9993 .0377 -2.4789 .9072 .00049764 1.4946e-5)" gradientUnits="userSpaceOnUse">
		<stop stop-color="#E3EFFF" offset=".0078"/>
		<stop stop-color="#BFCFE5" offset=".5529"/>
		<stop stop-color="#E4F0FF" offset="1"/>
	</linearGradient>
	<path d="m32.3 14.35c-1.066 0.233-2.233 0.483-3.5 0.75-0.967-0.167-1.95-0.35-2.95-0.55l-0.05-0.2 3.45 0.55 3.05-0.55z" fill="url(#an)"/>
	<linearGradient id="ao" x2="33.85" y1="17.15" y2="17.15" gradientUnits="userSpaceOnUse">
		<stop stop-color="#5D92E1" offset=".0078"/>
		<stop stop-color="#456CA7" offset="1"/>
	</linearGradient>
	<path d="m18.6 21.25l0.1-7.35c1.5 0.267 3.15 0.55 4.95 0.85l4.5 0.95c0.066 0.133 0.116 0.283 0.149 0.45s0.066 0.35 0.101 0.55l0.899 6.9-1-0.25-4.4-1c-1.833-0.4-3.417-0.733-4.75-1-0.166-0.033-0.349-0.067-0.549-0.1zm10.85 2.3l-0.05 0.05h-0.05c0.034-0.033 0.067-0.05 0.1-0.05zm-29.25-12.8c1.533 0.367 3.017 0.7 4.45 1 1.833 0.367 3.6 0.683 5.3 0.95l0.1 2.8c0.034 1.467 0.117 2.983 0.25 4.55l-7.5-0.95-2.15-0.3-0.1-1.1-0.15-2-0.4-5c0.067 0.033 0.133 0.05 0.2 0.05z" fill="url(#ao)"/>
	<path d="m19.25 22.5c-0.233-0.033-0.45-0.083-0.65-0.15v-1.1c0.2 0.033 0.383 0.067 0.55 0.1 1.333 0.267 2.917 0.6 4.75 1l4.4 1 1.15 1.45-0.8-0.2-2.65-0.75c-0.934-0.267-3.183-0.717-6.75-1.35zm-8.95-2.45v0.85c-1.2-0.233-2.466-0.45-3.8-0.65-1.2-0.233-2.417-0.45-3.65-0.65h-0.05v-0.5l7.5 0.95z" fill="#445989"/>
		<linearGradient id="ap" x1="20.03" x2="41.083" y1="-20.005" y2="-20.005" gradientTransform="matrix(-.0986 .9951 -.9951 -.0986 .00036391 .00023504)" gradientUnits="userSpaceOnUse">
		<stop stop-color="#5D92E1" offset=".0078"/>
		<stop stop-color="#456CA7" offset="1"/>
	</linearGradient>
	<path d="m28.65 24.6l-0.601 3 1.601-1.1v0.2l0.05 3.8c0 1.866 0.116 5.767 0.35 11.7l-0.05 0.05 0.05 0.25-0.45 1.45-3.149-0.4 2.399 3.3-0.3 1.45 0.7 0.175-4.55-0.975c-2.267-0.5-4.067-0.866-5.4-1.1l-0.25-1.4 2.4-2.5-3.1-0.9c-0.033-0.866-0.05-1.649-0.05-2.35l0.25-14.7 1.35 1.5-0.65-3.55c3.567 0.633 5.816 1.083 6.75 1.35l2.65 0.75zm-25.55 14.25c-0.133-3.566-0.15-6.366-0.05-8.399 0.067-1.533 0.034-4.5-0.1-8.9l1.35-1 2.8 3-0.6-3.3c1.333 0.2 2.6 0.417 3.8 0.65 0.034 0.8 0.1 1.6 0.2 2.4l-1.15 3.849-3.2-0.4 2.45 3.3-0.8 4.25 2.7-1.95 0.4 0.45c0.1 3.5 0.167 7.467 0.2 11.9 0.066 0.066 0.167 0.133 0.3 0.2-1.733-0.467-3.783-1.017-6.15-1.65l1.2 0.25-0.2-1 2.4-2.45-3.15-0.95-1.15-4.4-1.15 4.15h-0.1zm19.05-9.25l-3.2-0.399 2.45 3.3-0.8 4.2 2.7-1.851 2.8 3-0.9-4.55 2.399-2.5-3.149-0.9-1.15-4.4-1.15 4.1zm8.1 18.35c0.033 0.233 0.05 0.483 0.05 0.75l-0.149-0.025 0.099-0.725z" fill="url(#ap)"/>
		<linearGradient id="aq" x1="13.243" x2="45.093" y1="-31.473" y2="-31.473" gradientTransform="matrix(3.1397e-5 1 -1 -.001 -.0004152 -8.2004e-6)" gradientUnits="userSpaceOnUse">
		<stop stop-color="#A2AFBF" offset=".0078"/>
		<stop stop-color="#8DA1B9" offset="1"/>
	</linearGradient>
	<path d="m32.75 23.3l0.6 3.3-2.45-1.45-1.25 1.55v-0.2l-0.05-1.8c1.133-0.5 2.183-0.967 3.15-1.4z" fill="url(#aq)"/>
		<linearGradient id="ar" x1="37.804" x2="98.147" y1="9.1289" y2="9.1289" gradientTransform="matrix(.9993 .0377 -2.4753 .9073 .00030255 1.8582e-5)" gradientUnits="userSpaceOnUse">
		<stop stop-color="#E3EFFF" offset=".0078"/>
		<stop stop-color="#BFCFE5" offset=".5529"/>
		<stop stop-color="#E4F0FF" offset="1"/>
	</linearGradient>
	<path d="m18.5 9.9c-0.5 0.1-0.983 0.233-1.45 0.4l-0.4-0.6c0.434 0.133 1 0.183 1.7 0.15 0.035 1e-3 0.085 0.018 0.15 0.05zm-4.3-0.75c0.2 0.033 0.417 0.067 0.65 0.1l1.65 0.25-4.8 0.15 2.5-0.5z" fill="url(#ar)"/>
		<linearGradient id="as" x1="37.179" x2="97.497" y1="10.11" y2="10.11" gradientTransform="matrix(.9993 .0377 -2.4789 .9072 .00049764 1.4946e-5)" gradientUnits="userSpaceOnUse">
		<stop stop-color="#E3EFFF" offset=".0078"/>
		<stop stop-color="#BFCFE5" offset=".5529"/>
		<stop stop-color="#E4F0FF" offset="1"/>
	</linearGradient>
	<path d="m3.75 11.35c-1.167-0.167-2.35-0.367-3.55-0.6l-0.15-0.05 0.25-0.05 1.85-0.55h0.25l4.85-0.8-2.35 1.2 2.9 0.6-4.05 0.25z" fill="url(#as)"/>
		<linearGradient id="at" x1="14.228" x2="44.933" y1="-14.045" y2="-14.045" gradientTransform="matrix(.0195 .9998 -.9998 .0195 .00012836 .00038596)" gradientUnits="userSpaceOnUse">
		<stop stop-color="#D8AD1C" offset="0"/>
		<stop stop-color="#F4D64A" offset=".4902"/>
		<stop stop-color="#D3A81B" offset=".7804"/>
		<stop stop-color="#B79116" offset="1"/>
	</linearGradient>
	<path d="m18.35 41.6c0.066 1.4 0.15 2.967 0.25 4.7-0.533-0.066-1.033-0.133-1.5-0.2-0.5-0.066-1.167-0.183-2-0.35-0.967-0.2-2.2-0.483-3.7-0.85-0.133-0.067-0.233-0.134-0.3-0.2-0.033-4.434-0.1-8.4-0.2-11.9-0.1-3.233-0.233-6.066-0.4-8.5v-1c-0.1-0.8-0.167-1.6-0.2-2.4v-0.85c-0.133-1.566-0.216-3.083-0.25-4.55l-0.1-2.8-0.05-0.4v-0.05l5.4 0.8c0.867 0.1 1.55 0.184 2.05 0.25l1.35 0.2v0.4l-0.1 7.35v1.1l-0.05 2.2-0.25 14.7c0 0.7 0.017 1.483 0.05 2.35z" fill="url(#at)"/>
		<linearGradient id="au" x1="14.432" x2="46.157" y1="-4.9736" y2="-4.9736" gradientTransform="matrix(3.1521e-5 1 -1 -.001 -.00038444 -5.7595e-6)" gradientUnits="userSpaceOnUse">
		<stop stop-color="#E3EFFF" offset=".0078"/>
		<stop stop-color="#BFCFE5" offset="1"/>
	</linearGradient>
	<path d="m2.85 19.6c1.233 0.2 2.45 0.417 3.65 0.65l0.6 3.3-2.8-3-1.35 1-0.05 0.05-0.05-2z" fill="url(#au)"/>
		<linearGradient id="aw" x1="36.871" x2="97.164" y1="12.603" y2="12.603" gradientTransform="matrix(.9993 .0377 -2.4774 .9072 .00096005 -.00018781)" gradientUnits="userSpaceOnUse">
		<stop stop-color="#E3EFFF" offset=".0078"/>
		<stop stop-color="#BFCFE5" offset=".5529"/>
		<stop stop-color="#E4F0FF" offset="1"/>
	</linearGradient>
	<path d="m19.65 13.2l1.2 0.25-1.35 0.05c-0.2 0-0.383-0.017-0.55-0.05 0.233-0.1 0.467-0.183 0.7-0.25z" fill="url(#aw)"/>
		<linearGradient id="ax" x1="14.427" x2="46.152" y1="-8.5234" y2="-8.5234" gradientTransform="matrix(3.1521e-5 1 -1 -.001 -.00038444 -5.7595e-6)" gradientUnits="userSpaceOnUse">
		<stop stop-color="#E3EFFF" offset=".0078"/>
		<stop stop-color="#BFCFE5" offset="1"/>
	</linearGradient>
	<path d="m10.9 32.8l-0.4-0.45-2.7 1.95 0.8-4.25-2.45-3.3 3.2 0.4 1.15-3.85v1c0.167 2.433 0.3 5.266 0.4 8.5z" fill="url(#ax)"/>
		<linearGradient id="ay" x1="14.42" x2="46.145" y1="-19.898" y2="-19.898" gradientTransform="matrix(3.1521e-5 1 -1 -.001 -.00038444 -5.7595e-6)" gradientUnits="userSpaceOnUse">
		<stop stop-color="#E3EFFF" offset=".0078"/>
		<stop stop-color="#BFCFE5" offset="1"/>
	</linearGradient>
	<path d="m19.25 22.5l0.65 3.55-1.35-1.5 0.05-2.2c0.2 0.067 0.417 0.117 0.65 0.15zm-0.65 23.8c-0.1-1.733-0.184-3.3-0.25-4.7l3.1 0.9-2.4 2.5 0.25 1.4h-0.05c-0.233-0.067-0.45-0.1-0.65-0.1z" fill="url(#ay)"/>
		<linearGradient id="az" x1="14.432" x2="46.157" y1="-5.8232" y2="-5.8232" gradientTransform="matrix(3.1521e-5 1 -1 -.001 -.00038444 -5.7595e-6)" gradientUnits="userSpaceOnUse">
		<stop stop-color="#E3EFFF" offset=".0078"/>
		<stop stop-color="#BFCFE5" offset="1"/>
	</linearGradient>
	<polygon points="5.25 43.25 3.1 42.65 3 38.85 3.1 38.85 3.2 38.85 4.35 34.7 5.5 39.1 8.65 40.05 6.25 42.5 6.45 43.5" fill="url(#az)"/>
		<linearGradient id="ba" x1="13.237" x2="45.087" y1="-36.207" y2="-36.207" gradientTransform="matrix(3.1397e-5 1 -1 -.001 -.0004152 -8.2004e-6)" gradientUnits="userSpaceOnUse">
		<stop stop-color="#A2AFBF" offset=".0078"/>
		<stop stop-color="#8DA1B9" offset="1"/>
	</linearGradient>
	<path d="m38.65 33.35l-1.1-0.65-2.45 3.35 0.8-4.45-2.15-2 2.8-1.35 1.05-4.35 0.95 3.75h0.05c0.067 2.4 0.084 4.3 0.05 5.7z" fill="url(#ba)"/>
		<linearGradient id="bb" x1="14.408" x2="46.133" y1="-28.849" y2="-28.849" gradientTransform="matrix(3.1521e-5 1 -1 -.001 -.00038444 -5.7595e-6)" gradientUnits="userSpaceOnUse">
		<stop stop-color="#E3EFFF" offset=".0078"/>
		<stop stop-color="#BFCFE5" offset="1"/>
	</linearGradient>
	<path d="m29.45 24.8c0.033-0.033 0.083-0.066 0.149-0.1l0.051 1.8-1.601 1.1 0.601-3 0.8 0.2z" fill="url(#bb)"/>
		<linearGradient id="bc" x1="14.414" x2="46.139" y1="-23.273" y2="-23.273" gradientTransform="matrix(3.1521e-5 1 -1 -.001 -.00038444 -5.7595e-6)" gradientUnits="userSpaceOnUse">
		<stop stop-color="#E3EFFF" offset=".0078"/>
		<stop stop-color="#BFCFE5" offset="1"/>
	</linearGradient>
	<polygon points="22.15 29.6 23.3 25.5 24.45 29.9 27.6 30.8 25.2 33.3 26.1 37.85 23.3 34.85 20.6 36.7 21.4 32.5 18.95 29.2" fill="url(#bc)"/>
		<linearGradient id="bd" x1="13.243" x2="45.093" y1="-32.348" y2="-32.348" gradientTransform="matrix(3.1397e-5 1 -1 -.001 -.0004152 -8.2004e-6)" gradientUnits="userSpaceOnUse">
		<stop stop-color="#A2AFBF" offset=".0078"/>
		<stop stop-color="#8DA1B9" offset="1"/>
	</linearGradient>
	<path d="m31.45 48.2l-0.601-0.3-0.55 0.8c0-0.267-0.017-0.517-0.05-0.75v-0.3l-0.1-1.7c-0.034-1.233-0.067-2.384-0.101-3.45l-0.048-0.25 0.05-0.05 0.75-3.25 1.101 3.7 2.8-1.15-2.15 3.7 0.449 2.25v0.05l-1.5 0.7h-0.05z" fill="url(#bd)"/>
		<linearGradient id="be" x1="14.409" x2="46.134" y1="-28.348" y2="-28.348" gradientTransform="matrix(3.1521e-5 1 -1 -.001 -.00038444 -5.7595e-6)" gradientUnits="userSpaceOnUse">
		<stop stop-color="#E3EFFF" offset=".0078"/>
		<stop stop-color="#BFCFE5" offset="1"/>
	</linearGradient>
	<path d="m30.05 42.5c0.033 1.066 0.066 2.217 0.101 3.45l0.1 1.7v0.3l-0.1 0.725v0.025l-0.9-0.226-0.7-0.175 0.3-1.45-2.399-3.3 3.149 0.4 0.449-1.449z" fill="url(#be)"/>
</g>
</svg>
