<?xml version="1.0" encoding="UTF-8"?>
<svg enable-background="new 0 0 1642 1700.722" version="1.1" viewBox="0 0 1642 1700.722" xmlns="http://www.w3.org/2000/svg">
 <path d="m1434 574.6c-50.913-41.845-133-129.15-289.28-158.3-89.824-16.752-140.1 6.225-196.46-23.492-13.419-7.075 28.237-56.186 38.567-67.414 19.408-21.093 43.759-32.9 72.591-33.011 29.154-0.112 195.5-43.36 301.56-101.5 15.332-8.406 7.559-48.672-33.796-63.406-2.729-0.972-4.788-2.505-6.687-4.644-49.408-55.662-98.154-41.817-163.8-57.063-42.893-9.962-40.207-18.784-48.264-14.085-19.976 11.65-26.578 30.972-40.173 47.197-32.604 38.914-167.68 82.237-211.66 141.74-23.611 31.939-73.269 57.112-104.78 68.281-76.729 27.198-33.208 97.747-124.23 100.36-131.71 3.779-239.82-14.822-474.24 216.52-68.908 68.003-104.73 180.47-104.73 277.24 0.312 1 43.503 440.48 215.82 564.99 282.53 204.16 282.65 162.91 375.65 164.72 40.461 0.785 50.341 17.646 175.9 17.646 0 0 53.202-2.151 101.74-7.052 30.915-3.122 61.739-7.129 92.642-10.377 54.964-5.776 80.646 32.984 245.15-80.022 134.65-92.501 183.17-114.29 237.71-255.21 14.128-36.507 100.14-223.37 100.14-438.06-2.227-5.352-1.22-155.05-159.37-285.04zm-433.69-124.81c38.85-1.179 12.145 22.792-2.812 7.687-3.036-3.067-1.727-7.549 2.812-7.687zm-54.225 45.391c22.54 0.65 18.35 28.075 8.168 19.189-8.387-7.319-25.938 2.212-25.008-5.229 0.57-4.55 12.077-14.097 16.84-13.96zm-186.89-136.06c5.575 0.816 4.752 7.702-0.579 7.461-5.286-0.239-6.272-6.186 0.579-7.461zm-33.512 20.536c8.674 1.012 2.433 11.414-4.87 17.059-5.529 4.276-9.705-18.76 4.87-17.059zm7.176 29.02c3.928 8.439 10.162 18.697 13.689 10.119 4.404-10.712-1.768-7.83-0.763-24.823 0.479-8.095 7.417-2.273 11.697-11.446 6.933-14.856 40.938-6.78 45.248-8.869 2.877-1.394 1.144-5.257 2.58-7.467 6.714-10.335 6.133-23.748 14.257-33.451 3.571-4.265-19.406-12.322-32.427-11.033-3.968 0.393-4.216-0.45-1.57-3.433 16.432-18.535 49.195-22.13 59.338-35.524 69.383-91.624 137.57-98.077 185.33-132.4 30.182-21.686 33.331-26.102 39.696-28.049 25.035-7.657 17.862-53.919 53.122-42.969 11.509 3.574 22.442 8.812 34.358 11.305 39.812 8.331 108.08 6.773 131.36 37.275 10.457 13.702 23.842 23.493 40.545 28.469 13.58 4.046 18.667 23.196 1.656 30.34-161.7 67.914-233.04 78.347-232.04 77.66-19.943 13.705-42.727 11.813-66.907 10.018-4.73-0.351-49.126 14.922-86.547 65.316-20.425 27.506-20.98 48.316-46.294 41.761-12.96-3.356-16.225-9.701-16.994-3.802-3.479 26.684-13.771 27.268-7.024 31.137 3.135 1.798 3.158 5.714-2.177 5.721-20.493 0.027 10.703 25.707-11.025 29.855-13.667 2.61-6.48 30.439-16.914 31.284-5.542 0.449-16.005 1.166-15.929 6.839 0.11 8.202 10.295 4.215 21.773 17.865 10.468 12.447-28.984-4.272-110.33 6.525-7.077 0.939-8.315 7.146-12.825 1.501-1.589-1.988-2.674-4.245-2.924-6.797-2.892-29.596-14.212-44.502-13.367-67.111-0.868-23.962 12.741-44.426 21.402-25.818zm119.82 155.7c-1.454-6.732 13.626-4.778 14.226 0.223 0.811 6.759-12.368 8.38-14.226-0.223zm-42.93-0.664c0.386-6.349 11.041-5.893 12.06-0.17 0.807 4.54-12.502 7.43-12.06 0.17zm-66.963-2.358c-5.327 8.584-11.547-5.939-16.848-15.261-2.851-5.013 16.069-12.048 18.489 3.148 0.26 1.632 0.741 8.274-1.641 12.113zm-55.032-49.686c-10.284-1.206-10.509 7.657-18.244 2.089-11.249-8.098 31.539-40.442 45.003-23.077 5.873 7.574-0.172 24.107-26.759 20.988zm-48.851-63.233c51.289-3.17 57.023-2.321 61.593 7.672 10.699 23.393 4.944 22.312-41.256 22.734-17.469 0-19.654 1.511-26.273-3.917-24.649-20.213-35.252-23.944 5.936-26.489zm-235.55 41.81c-1.182 3.648-9.401 3.259-10.092 1.697-1.98-4.468 12.754-9.915 10.092-1.697zm-231.46 688.8c6.266 5.27 7.025 15.114 7.025 23.545l0.31 0.013c-2.707 36.853-33.803-45.819-7.335-23.558zm17.501 124.68c-13.947-13.788-12.344-18.931-21.906-44.167-8.295-21.891-0.469-17.662 1.975-14.037 38.872 57.627 25.625 63.832 19.931 58.204zm450.39 227.71c-6.303-1.589 2.423-3.751 2.38-1.226-0.028 1.648-1.676 0.814-2.38 1.226zm101.46 49.78c0.085-4.958 8.16-3.696 9.16-3.334 13.027 4.722-9.296 11.263-9.16 3.334zm674.01-317.87c5.464 18.964-17.499 55.508-17.91 57.697-6.247 33.25-40.238 83.449-48.75 98.472-2.601 4.59-17.918 16.828-31.094 24.891-7.399 4.528-8.9 2.238-12.11 5.3-17.752 16.93-32.163 19.82-40.259 24.574-7.008 4.116 1.643 3.878-2.495 8.259-7.028 7.439-16.33 12.318-18.523 10.618-6.292-4.876-7.976 0.931-45.026 24.654-132.18 84.635-114.6 41.591-161.28 20.101-4.447-2.048-10.083-9.904-7.45-13.751 3.778-5.518-2.539-2.487-14.143-3.571-6.082-0.568-13.619 4.532-16.037 10.349-3.284 7.902-25.819 16.33-28.859 32.194-4.611 24.068-106.9 36.466-112.47 37.591-10.762 2.172-19.815 0.294-29.32-4.767-21.82-11.617-81.094-17.237-123.12-36.234-60.162-27.192-58.531-23.568-60.505-29.705-0.776-2.411-1.334-2.064-34.872-7.868-26.479-4.583 11.737 9.509 1.089 20.683-12.533 13.15-26.478 24.543-42.031 33.947-9.207 5.567-54.951-14.867-64.809-19.225-35.983-15.906-69.488-36.09-101.32-59.129-9.626-6.967-12.201-8.243-15.537-5.472-3.501 2.909-14.666-5.74-18.983-10.236-4.535-4.724 4.893-4.344-3.173-8.738-14.641-7.977-18.168-5.38-38.62-23.305-1.267-1.11-2.528-2.187-4.149-2.713-58.74-19.073-89.799-130.38-91.516-132.76-11.764-16.361-18.153-44.4-14.882-53.255 3.472-9.399-5.977-14.027-6.075-16.731 0 0-18.674-72.761-26.733-146.27-7.419-67.668 8.568-89.266 13.163-123.77 12.307-92.401 50.342-132.64 80.538-182.76 34.587-57.406 22.41-47.294 61.996-87.909 162.81-167.04 99.116-104.91 94.62-110.79-2.812-3.683 43.524-49.696 44.524-50.414-2.13-0.134-3.138 1.59-4.406 2.775-55.439 51.823-46.354 47.792-126.94 117.52-52.71 45.611-42.776 56.352-74.426 88.091-11.702 11.735-12.547 13.804-14.536 18.01-12.647 26.729-7.645-8.457-35.829 65.015-16.465 42.92-67.935 112.51-73.404 113.86-14.768 3.633-38.934 58.941-41.723 20.247-1.782-24.729-7.15-48.828-12.426-72.953-1.158-5.297 17.815-126.83 50.571-167.64 1.988-2.477 3.916-5.147 5.187-8.03 8.194-18.58 21.615-33.526 33.787-49.37 34.283-44.629 66.219-58.795 107.56-95.45 14.193-12.584 12.582-7.684 38.885-24.783 6.194-4.026-5.083-7.07 2.885-9.966 24.116-8.764 30.154-7.99 25.407-13.568-1.833-2.153 0.302-4.827 2.484-5.056 11.931-1.252 18.627-13.02 37.573-18.22 8.019-2.201 3.985 6.638 9.429 4.191 5.84-2.626 10.747-5.983 14.926-11.374 13.957-18.003 28.01-12.05 32.483-15.794 3.372-2.823 7.298-4.612 11.358-6.014 17.4-6.008 33.807-14.106 49.732-23.251 1.708-0.981 3.403-1.752 5.482-1.589 52.508 4.109 64.053 2.138 118.44 41.281 10.307 7.419 6.727 24.944 17.704 24.578 1.569-0.052 3.403 0.313 4.184 1.519 2.252 3.481 6.031 3.459 9.288 4.797 22.174 9.104 46.203 30.27 43.022 35.702-5.644 9.639-105.63-41.55-116.58-47.767-13.857-7.869-46.961-9.919-52.818-6.247-38.481 24.121-44.435 31.582-54.457 42.577 5.344 1.128 57.905-62.558 123.48-5.539 19.82 17.235 14.353 5.342 28.473 12.303 26.891 13.256 54.589 24.1 84.669 27.509 5.073 0.575 10.236 0.117 14.778 3.349 2.647 1.883 14.256-2.364 16.491 2.47 3.301 7.136-22.444 18.244-35.447 17.369-11.299-0.761-81.957 64.33-98.877 102.29-2.006 4.5 2.37 10.02 7.246 4.769 11.972-12.892 24.449-40.772 75.856-72.04 115.69-70.37 88.482-83.668 226.05 7.345 42.218 27.931 57.078 57.578 63.162 63.351 8.69 8.247 28.252 4.833-49.727-77.109-9.229-9.698-7.306-4.361-29.754-23.34-12.309-10.407-19.274 0.695-43.201-16.135-5.277-3.712-4.622-9.444 3.301-8.889 6.699 0.47 55.176-4.31 109.35-30.838 14.031-6.871 10.443 4.774 29.34-13.097 15.04-14.223 48.131-20.769 84.661 1.084 55.805 33.384 48.418 59.528 119.29 116.45 7.668 6.159 20.466 7.592 22.077 23.682 0.772 7.705 6.586 3.097 8.347 11.246 1.682 7.784 13.037 12.859 9.448 19.273-5.269 9.413-22.532-4.351-36.417-4.897-8.601-0.338-8.432 26.441-24.046 45.393-21.138 25.657-24.384 17.545-27.578 12.722-12.057-18.207-25.515-35.395-38.761-52.732-32.853-43.001-32.342-42.127-39.287-40.055-13.424 4.005-14.637 7.525-28.569 66.408-10.739 45.387-62.137 89.728-100 116.1-12.134 8.45-14.502 11.044-9.55 13.692 51.554 27.578 101.78 24.216 128.09 29.096 16.573 3.074 32.567 83.87 32.479 97.929-0.077 12.304 17.87 34.75 5.396 126.88-9.678 71.494-29.933 62.933-39.836 94.819-5.137 16.54-22.742 14.516-187.75 44.938-103.51 19.085-108.76 9.328-339.88-34.857-31.573-6.036-29.906-4.022-32.874-7.465-2.133-2.474-2.12-7.494 3.159-7.78 7.89-0.427 16.392 5.328 11.134-9.46-9.593-26.986-20.872-30.75-26.953-76.007-1.942-14.455-20.399-85.426 27.459-220.45 1.824-5.147 4.851-7.83 10.291-8.819 32.699-5.944 69.278-0.77 123.71-26.625 16.399-7.79 0.274-7.086-39.784-41.966-101.99-88.809-58.763-158.24-98.929-157.35-3.644 0.081-104.75 119.65-104.16 163.53 0.133 9.787-0.992 30.317 2.51 34.15 12.269 13.429-26.829 15.976-44.827 35.496-3.828 4.151 1.184 2.003 8.19 12.108 24.19 34.89 22.486 50.72 17.76 65.622-7.193 22.681-20.316 41.517-37.659 57.585-12.574 11.65-12.965 12.354-12.041 14.07 4 7.432 53.36-5.776 56.432-22.091 2.408-12.791 6.795-25.23 6.816-38.453 2e-3 -1.441 1.202-6.133 3.874-7.565 1e-3 -2.039 0.429-4.104 1.116-6.074-2.782-7.105 1.032-17.327 4.525-24.196 13.019-25.605 5.369-18.308 15.093-28.414 11.535-11.988 40.293-38.874 58.888-34.486 35.151 8.296 10.829-2.922-13.367 113.93-4.133 19.958-1.651 24.373-9.728 73.788-2.608 15.958-1.134 40.283-7.979 71.08-4.103 18.462-14.834 23.733-17.889 45.424-1.103 7.829-5.809 11.427-13.518 9.682-37.092-8.394-108.18-5.292-144.53-30.367-32.321-22.296-86.999-47.543-89.697-44.598-1.616 1.764 78.298 179.68 89.696 204.06 32.571 69.675-43.855-3.941-59.437-25.045-12.976-17.576-1.739 34.281 58.412 61.729 40.203 18.348 37.106 55.991 93.073 92.888 98.371 64.851 80.16 32.582 160.99 51.497 4.208 0.985 17.462 6.342 17.867 2.066 0.137-1.445-1.694-1.603-2.817-1.957-6.961-2.192-127.65-25.191-155.62-51.641-32.927-31.13-62.993-64.739-86.115-104.04-16.261-27.638-46.1-128.06-44.885-153.34 0.521-10.827 12.66-23.032 13.771 0.975 0.9 19.448 13.84 84.166 47.305 136.43 69.058 107.85 71.293 87.76 94.478 109.17 4.217 3.894 5.272 5.988 4.06 8.768-1.939 4.45-19.708-2.828-20.518-1.534-1.616 2.58 23.815 14.205 24.683 4.451 0.318-3.577 2.616-5.897 5.889-6.856 44.06-12.911 50.927 5.252 60.392 11.761 6.321 4.348 7.627 10.152 6.199 17.126-4.376 21.381 49.094-67.706 70.454-29.999 11.19 19.754 11.933 27.195 23.15 26.161 6.138-0.565 6.844-2.141 3.433 20.649-0.646 4.318 1.389 3.131 10.089-0.475 6.625-2.746-5.917-2.208-2.787-15.273 4.782-19.955 18.529-33.119 34.004-44.83 13.974-10.575 24.743 16.744 41.131 21.259 17.111 4.715 11.084 40.639 13.934 42.527 1 0.663 7.126-3.943 5.137-11.002-13.141-46.648-0.893-56.27 31.002-57.992 74.132-4.003 59.95-40.677 65.397 75.329 1.104 23.523 5.186 29.938-8.628 29.279-64.832-3.093-71.56-25.475-150.72-15.667 0.271 1.206 78.865 17.053 111.22 18.504 128.42 5.764 208.68-17.508 209.2-18.508-114.01-4.557-20.396-1.066-125.65 12.028-17.195 2.139-24.788-27.899-29.282-50.486-7.667-38.537-1.397-29.68-0.795-46.269 0.826-22.756 21.732-9.15 32.864-6.806 25.431 5.355 65.38-2.979 64.93 25.579-0.595 37.851-8.74 37.514-1.895 44.126 9.906 9.569-3.452-35.171 16.457-40.507 18.03-4.831 26.454-32.852 42.96-20.521 52.411 39.155 16.351 55.971 37.063 68.958 5.352 3.356 12.653-21.854 23.27-43.352 5.829-11.803 29.589-22.379 39.41-14.251 9.751 8.07 19.164 16.514 25.509 27.729 2.158 3.813 4.575 0.346 9.944 6.184 4.344 4.721-1.414-5.226 8.168-10.373 13.001-6.983-2.245-35.454 57.772-21.878 7.62 1.723 9.701 9.668 9.125 18.387-0.808 12.231-10.607 8.304-31.007 15.752-26.001 9.492-52.783 16.03-79.89 21.374-26.573 5.238-13.351 7.901-6.97 5.739 35.787-12.127 87.411-8.816 99.322-14.563 144.43-69.689 110.64-104.24 158.42-129.58 69.714-36.975 69.476-67.802 67.812-68.542 0 0-37.826 46.724-64.644 57.64-9.905 4.032-6.705-8.499-2.862-18.476 3.842-9.975 95.56-213.01 93.979-214.59-3.268-3.271-43.26 19.703-59.829 25.034-9.01 2.899-10.754 2.142-10.714-7.025 1e-3 -0.142-6.084-43.676-6.995-83.298-0.668-29.029-16.341-14.693-13.916-47.44 0.651-8.793 9.21-26.335 5.779-28.344-2.46-1.441-2.248 1.144-19.13 17.477-5.951 5.758 6.71 15.075 17.137 68.526 9.875 50.622-0.642 51.685-3.386 44.917-3.311-8.167-4.383-30.379-9.335-30.361-19.819 0.071-39.891 0.755-25.147 23.416 5.635 8.66 20.428 36.136 19.628 39.266-13.592 53.202 4.179 29.941-123.38 51.625-62.705 10.659-64.408 9.129-65.694 5.381-1.258-3.662 4.716-7.057 6.745-7.803 13.86-5.095 17.915-16.316 18.745-29.632 0.706-11.325-1.42-22.414-2.715-33.573-1.185-10.21-1.868-20.453-2.316-30.721-10.943-251.04-91.213-199.95 9.776-221 37.608-7.836 50.183-15.29 48.781-32.292-1.178-14.284 1.94-25.035-4.567-41.075-14.039-34.604 20.459-17.422 20.281-45.952-0.042-6.694 1.965-24.819 8.736-28.37 12.278-6.438 18.657-18.912 33.366-17.711 9.897 0.808 15.403-9.955 24.47 10.001 15.488 34.092 55.273 46.324 110.27 143.97 13.1 23.261 3.713 21.872 12.747 30.249 37.536 34.807 30.971 76.352 39.467 133.48 10 67.243-33.291 223.2-33.291 223.2zm-253.72-424.27c-35.388-0.544-8.278-24.732-71.346-113.01-18.668-26.129 71.839 34.373 81.163 105.56 1.015 7.754-2.927 7.447-9.817 7.447zm-69.005 49.814c-33.646 6.454-60.582-7.809-115.18-17.77-17.791-3.245-4.787-9.834 11.813-9.2 13.451-0.145 25.217 2.219 37.13 2.979 101.03 6.441 99.872-33.585 140.68-22.591 15.639 4.214-13.068 34.809-74.441 46.582zm-9.802 350.99c9.193-0.504 11.321-6.136 18.611-4.84 0.385 0.068 0.897-6e-3 1.216-0.217 8.096-5.346 21.79-2.662 21.79-2.662 16.881-8.858 89.488 16.009-1.616 111.39-9.139 9.567-23.053 8.461-37.526 10.741-11.148 1.756-8.878-32.623-15.325-42.379-6.322-9.568 5.427-9.781 6.861-19.322 5.851-38.913-26.08-50.953 5.989-52.709zm-43.445 6.834c14.264-1.694 14.044 0.112 15.331 7.109 4.301 23.375 0.819 66.649-3.141 89.941-1.891 11.125-7.441 10.456-11.618 19.813-6.177 13.837-84.039-6.765-83.24-25.853 0.412-9.844 0.145-19.704 0.739-29.564 3.258-54.106-39.308-47.05 81.929-61.446zm-113.8 125.17c-4.136 10.278-9.041 17.14-19.73 18.668-14.158 2.024-28.127 2.81-41.836-2.685-7.152-2.866-15.06-2.349-22.464-4.077-20.347-4.748-18.722-14.973-19.039-46.7 0.054-50.612 3.342-51.267 8.466-52.648 30.831-8.307 61.797-15.941 93.631-19.351 12.155-1.302 11.837-0.709 23.258 44.404 5.518 21.795-8.295 27.627-22.286 62.389zm-136.02 12.127c-13.411 0.66-65.686 20.659-78.984-4.065-6.464-12.018-9.624-24.576-19.99-39.222-12.887-18.209-9.704-47.931-5.23-71.692 1.08-5.74 2.258-6.262 8.83-5.636 29.051 2.769 73.548 11.438 101.35 18.685 7.442 1.94 10.862 6.277 12.387 13.239 2.519 11.498 11.653 87.213-18.366 88.691zm-118.13-37.444c-9.182 6.636-18.85 12.993-29.881 15.201-37.761 7.557-46.545 11.161-49.008 2.883-3.143-10.563-11.11-6.846-13.38-28.799-1.109-10.73-6.723-57.526-1.723-81.778 1.575-7.641 2.26-8.557 9.663-7.817 28.743 2.875 57.208 7.395 85.422 13.533 8.035 1.748 8.743 2.445 6.909 10.41-11.844 51.414 2.856 68.519-8.002 76.367zm-108.6-20.856c-12.109 9.243-0.845 29.48-24.159 27.971-13.93-0.902-26.057-5.022-35.561-16.201-15.269-17.96-50.344-45.379-33.41-105.47 1.432-5.08 3.576-3.928 12.248-3.928 25.586 0.295 18.09 6.005 30.225 3.759 10.37-1.92 25.462 5.66 40.847 8.496 25.523 4.704 17.706 6.4 12.597 29.508-4.029 18.219 0.807 53.119-2.787 55.862zm-46.038-111.37c-0.045 2.869-3.312 2.053-4.06-1.001-0.604-2.461 4.117-2.637 4.06 1.001zm-26.82-352.34c14.399-0.576 20.332 4.57 51.237 5.556 65.139 2.078 74.877-5.457 93.251-6.34 8.845-0.425 22.155 17.46-70.016 21.884-68.524 3.29-51.034 3.426-85.609-7.686-4.052-1.303-6.168-12.722 11.137-13.414zm-32.189-5.996c56.78-149.51 114.65-154.45 80.927-105.21-17.926 26.174-29.445 55.296-39.651 85.046-3.443 10.036-1.026 13.656-9.411 18.544-5.64 3.287-37.84 17.351-31.865 1.62zm-96.41 361.02c-4.267-3.588-4.115-11.5 3.959-9.655 36.648 8.373 55.914 16.138 82.886 13.916 10.766-0.887 16.104 5.83 14.503 16.55-9.093 60.899 10.364 66.25-6.619 73.704-38.202 16.768-55.781-40.501-84.23-72.32-4.088-4.572-7.422-9.364-5.646-16.075 1.197-4.52-2.966-4.533-4.853-6.12zm848.65 245.07c-1.061-2.831-18.612 6.063-21.039 1-5.018-10.465 30.917-17.739 59.535-60.259 32.594-48.426 73.882-96.703 85.819-186.55 0.456-3.433 0.09-20.779 6.608-21.451 23.01-2.37-12.971 103.3-20.201 126.59-16.713 53.819-60.194 101.91-101.85 143.27-17.295 17.17-17.348 1.102-11.174-0.477 1.174-0.3 2.937-0.425 2.301-2.122zm56.276-235.84c0.639 2.885-0.309 5.684-2.113 7.814-36.153 42.683-48.085 89.302-85.705 78.774-17.703-4.955 10.776-67.618 11.554-87.898 0.08-2.069 1.526-2.938 3.38-2.927 33.381 0.199 76.66-21.319 79.659-12.639 3.658 10.588-9.478 4.675-6.775 16.876zm86.329-461.91c9.326 11.13-9.663 5.783-16.339-0.351-51.161-47.002-24.668-48.59 16.339 0.351zm138.17 169.41c-2.161-2.978-4.924-4.923-8.732-5.874-15.068-3.763-9.053-15.482-24.439-26.935-48.86-36.37-14.097-37.544-108.52-147.2-73.077-84.861-66.763-53.045-82.207-110.1-3.953-14.602-143.2-140.15-187.22-139.96-32.025 0.137-33.252-1.324-49.328 7.635-8.075 4.5-34.533 19.553-49.316 23.027-8.618 2.025-9.392-10.624-5.559-13.015 2.374-1.481 3.815-3.601 5.127-5.889 25.04-43.663 36.142-40.43 55.938-52.85 16.877-10.589 73.071-13.803 77.578-11.208 16.276 9.373 33.085 17.59 50.878 23.73 3.791 1.308 7.43 3.084 10.561 5.747 4.237 3.604 19.769-2.06 33.842 17.853 3.423 4.844 8.63 7.312 13.976 9.403 5.018 1.962 1.091-14.821 31.26 6.826 12.918 9.269 21.939 5.303 16.593 13.54-4.547 7.006 35.287 9.035 28.212 17.523-1.801 2.161-0.575 3.43 1.294 4.637 182.2 117.63 213.41 199.51 236.59 341.53-22.85 112.39-8.509 93.953-46.52 41.572z"/>
 <path d="m842.4 1144.9c-4.761-1.089 3.461-3.005-2.482-5.462-5.338-2.207-14.203-2.121-15.295 1.731-1.398 4.927-14.928 5.792-18.345-1.3-1.555-3.227-14.559-2.738-15.643 0.818-2.777 9.104-33.813 6.964-49.066-3.137-7.691-5.093-22.847 11.345-22.76 1.256 0.037-4.333-1.727-7.695-4.416-10.899-5.18-6.172-1.416-12.344-18.959-27.348-6.272-5.364-12.307-10.882-14.663-19.247-1.479-5.25-6.181-3.882-4.317-7.122 1.623-2.822 6.679-4.939 9.419-3.931 8.833 3.247 12.393 11.164 22.356-1.08 5.618-6.904 26.16-5.239 33.269-6.331 10.915-1.677 9.68-8.546 20.951-21.21 5.393-6.06 9.734-12.61 12.743-20.306 15.194-38.869 32.44-42.896 33.629-77.728 0.278-8.154 1.236-23.561 8.72-25.764 21.802-6.417-9.734 39.181 7.43 66.338 37.217 58.882 64.081 125.35 67.634 142.58 4.101 19.896-39.333 20.625-50.205 18.138z"/>
 <path d="m480.44 541.94c0.301 0.02 0.513 0.57 0.923 0.049s-0.174-0.597-0.265-0.885l0.027-0.184c-0.226 0.357-0.452 0.713-0.689 1.074-0.011 5e-3 4e-3 -0.054 4e-3 -0.054z"/>
 <path d="m491.97 546.37c0.019 0.096 0.038 0.191 0.057 0.287-0.044-0.061-0.088-0.123-0.141-0.181-0.01 3e-3 0.084-0.106 0.084-0.106z"/>
 <path d="m479.16 543.28c0.424-0.443 0.847-0.885 1.276-1.331 6e-3 -3e-3 -9e-3 0.055 2e-3 0.051-1.349 0.129-0.601 0.685-1.278 1.28z"/>
 <path d="m481.1 541.11c-0.065-0.076-0.13-0.152-0.195-0.228 0.072 0.02 0.143 0.039 0.219 0.052 3e-3 -7e-3 -0.024 0.176-0.024 0.176z"/>
 <path d="m1331.4 169.09c-6.913-4.831-31.934-19.454-37.291-17.062-3.86 1.723-4.995 1.1-5.35-3.092-0.785-9.269 6.008-18.56-34.849-33.176-11.508-4.117-23.582-4.903-35.519-6.543-5.843-0.803-10.897-4.147-16.672-5.121-27.853-4.696-43.926 0.81-65.089-11.009-6.309-3.523-13.098-6.068-20.168-7.713-7.375-1.716-10.902-0.061-14.047 6.773-7.321 15.909-10.629 42.311-5.142 36.474 13.471-14.333 48.358-15.794 65.967-17.491 7.801-0.752 7.753 8.582 22.751 11.864 15.002 3.283 17.051 7.928 29.128 9.769 11.253 1.715 22.406 3.768 33.393 6.815 23.702 6.573 38.078-1.452 38.142 16.547 0.02 5.657 0.015 5.767-5.655 5.517-35.396-1.564-35.073-2.743-36.283 0.099-4.298 10.091-6.271 12.19-3.418 12.912 6.516 1.65 12.462 5.118 19.505 5.235 20.664 0.341 21.47 8.209 15.766 10.489 0.318 0.667 0.511 1.401 0.57 2.153 18.681-2.273 36.94-6.289 54.234-14.104 4.563-2.064 8.159-3.653 0.027-9.336z"/>
 <path d="m1141.9 169.05c42.089 8.62 53.99-36.318 73.798-8.705 2.753 3.838 5.597 7.6 8.915 10.984 0.842 0.859 2.331 1.55 2.051 2.923-0.668 3.287-43.912 7.833-49.428 12.427-3.39 2.825-53.357-12.199-35.336-17.629z"/>
</svg>
