<?xml version="1.0" encoding="UTF-8"?>
<svg version="1.1" viewBox="0 0 492.13 271.92" xmlns="http://www.w3.org/2000/svg">
 <g transform="translate(-87.045 -219.29)" stroke="#000" stroke-width="14">
  <path d="m94.045 231.41s12.537-0.73458 31.113 4.2426c11.057 2.9626 22.451 13.789 24.749 31.643 1.5583 12.107-2.285 59.951-3.5355 91.747-0.75042 19.08 3.9084 30.923 9.0156 39.421 5.8336 7.6014 11.999 15.984 22.981 21.213 38.776 0.70193 235.82 0.17678 235.82 0.17678s4.9625 0.9012 15.556-6.8943c9.3692-6.8943 12.198-26.693 8.8388-39.598-2.4744-9.5067-13.678-54.246-13.965-60.281-0.35356-7.4246-0.36476-12.38 3.182-18.915 3.5071-6.4616 5.3033-8.3085 8.4853-13.612-6.4524-1.6794-13.789-4.0659-20.506-3.182-12.102 1.5924-21.39 6.8059-27.577 13.435-6.473 6.9354-18.827 37.742-36.416 51.265-17.807 13.69-27.839 16.567-56.038 13.877-17.025-1.6242-39.654-6.9245-53.829-17.589-24.662-18.556-36.681-55.066-42.868-68.324-5.7519-12.325-16.786-27.059-29.787-34.56-14.716-8.4902-23.6-9.7227-41.277-9.0156-17.678 0.7071-33.941 4.9497-33.941 4.9497z" stroke-linecap="round" stroke-linejoin="round"/>
  <path d="m486.05 383.26s1.7884-15.102 8.3085-20.771c4.0659-3.5355 8.8388-6.0988 17.236-6.0104 11.159 0.11747 27.721 4.1441 39.686 15.468 15.072 14.264 20.287 25.899 20.86 48.437 0.60677 23.888-7.8005 33.569-15.91 43.31-9.8616 11.846-27.289 20.833-35.886 20.506-8.6576-0.3292-409.77 0-409.77 0" fill="none" stroke-linecap="round"/>
  <path d="m224.48 481.91v-59.723" fill="none"/>
  <path d="m378.48 481.91v-59.723" fill="none"/>
 </g>
</svg>
