<?xml version="1.0" encoding="UTF-8"?>
<svg viewBox="0 0 640 480" xmlns="http://www.w3.org/2000/svg">
 <path d="m303.84 290.83c4.5182-5.0526 5.6356-5.0968 6.9162-0.27661 0.41678 1.5714 0.82745 2.8721 0.90906 2.8897 0.3291 0.067719 3.2014-0.33838 3.2285-0.45612 0.015137-0.070587-0.51648-2.4366-1.1808-5.2616-0.66452-2.822-1.0963-5.5706-0.96039-6.1061 0.13586-0.53558 3.1107-4.0845 6.611-7.8866 5.5994-6.0826 6.5114-6.8977 7.6229-6.7918 1.1809 0.11478 1.3319 0.41196 2.3013 4.6172 1.489 6.4416 1.5131 6.2003-0.81845 8.1278l-2.0265 1.6803 0.9966 1.1771c0.54968 0.6474 1.2896 1.13 1.643 1.0681 0.35632-0.058807 0.95432-0.1618 1.3289-0.2236 0.37753-0.064758 1.054 0.46494 1.504 1.1771 0.77014 1.2183 0.91513 1.2772 2.4434 0.99765 1.2774-0.23547 1.6067-0.49734 1.5372-1.2183-0.060272-0.63562 0.3414-1.1653 1.2987-1.7156 0.90002-0.51788 1.489-1.2624 1.6822-2.1247 0.31723-1.4272-0.19928-1.9893-2.2349-2.4218-0.67346-0.14117-1.5221-0.58554-1.8846-0.98282-0.82758-0.9064-3.7238-14.213-3.4067-15.635 0.12988-0.57681 2.1171-3.1105 4.4184-5.6324 3.7994-4.164 4.3008-4.5583 5.4514-4.3141 0.69772 0.1471 1.3169 0.56497 1.3742 0.92984 0.087555 0.55914 0.38959 0.61508 1.9782 0.36786l1.8755-0.2972-0.6372-3.2635c-0.38055-1.9452-0.44397-3.5607-0.16-3.9962 0.59799-0.91519 7.647-8.6457 8.4412-9.2578 0.32315-0.24713 1.0601-0.34726 1.64-0.2236 0.85468 0.17954 1.347 1.0918 2.5942 4.7937 0.84869 2.5131 1.7305 5.3646 1.9632 6.3298l0.4197 1.7597-2.5731 2.8692-2.5732 2.8692 1.3469 1.0152c1.335 1.0093 1.3591 1.0093 2.6307-0.076508 0.95734-0.82108 1.5764-1.0006 2.4372-0.70926 0.96951 0.32373 1.4618 1.3242 3.0504 6.2239 1.042 3.2134 1.8424 6.0678 1.7788 6.3445-0.060364 0.27661-2.9658 3.5136-6.4479 7.192l-6.3303 6.6917-3.5578-0.356c-3.437-0.34137-3.5668-0.31488-3.8085 0.80042-0.31705 1.4537-0.033173 2.1953 1.0057 2.6279 1.5886 0.66501 1.5976 1.9628 0.018158 3.6637-0.79733 0.85925-1.3923 1.6214-1.3229 1.6979 0.81845 0.91223 2.0779 2.0835 2.2892 2.1305 0.14804 0.029449 0.88794-0.62674 1.6491-1.4626 1.6158-1.7715 3.0655-2.0746 3.9776-0.8298 0.8063 1.0976 1.1748 1.1565 2.7363 0.43842l1.2684-0.5856-0.755-2.2453c-0.41385-1.2359-0.66443-2.6396-0.55872-3.1193 0.19022-0.85333 7.5262-8.9164 9.2597-10.179 0.5014-0.3649 1.3289-0.4856 1.9299-0.27957 0.86685 0.29718 1.6611 2.207 4.497 10.82 1.8966 5.753 3.5004 10.812 3.5698 11.235 0.066528 0.43259-1.0933 2.466-2.6154 4.5906-1.5041 2.0952-2.7696 3.9609-2.8088 4.1404-0.057434 0.26187 2.093 1.7921 2.7061 1.9216 0.090515 0.0177 0.66437-0.6915 1.2805-1.5772 1.202-1.7304 2.54-2.366 3.5789-1.7039 0.35336 0.22656 1.0329 1.6921 1.5101 3.2546l0.8669 2.8456 1.649-0.3796c0.90601-0.20599 1.6792-0.50317 1.7124-0.65619 0.033203-0.15601-0.57678-2.3336-1.3591-4.8437-1.8603-5.9767-1.6942-6.168 4.1558-4.7643l4.2976 1.03 0.3866-1.7215 0.3836-1.7244-2.7574-0.8329c-1.516-0.45908-4.4216-1.3506-6.454-1.9805l-3.6967-1.1447-3.0534-9.1372c-1.6792-5.0262-2.993-9.4609-2.9144-9.8552 0.31412-1.6332 1.4255-1.6038 7.1094 0.19424 2.9688 0.93872 5.7111 1.9598 6.0916 2.2718 0.38351 0.31189 0.72784 1.5066 0.76416 2.6572 0.069397 2.0246 0.11466 2.0893 1.5372 2.0923 1.9993 0.00592 2.1988-0.091248 2.4494-1.2212 0.28082-1.2594 1.2595-1.8627 2.5671-1.5862 0.72186 0.15305 1.0933-0.035278 1.2231-0.62091 0.10269-0.46194 0.37753-1.1241 0.61008-1.4713 0.28995-0.42963 0.084595-0.84454-0.64932-1.3094-0.70676-0.45029-0.99966-1.0094-0.85468-1.6509 0.22342-1.0094-0.94232-3.3371-1.7608-3.5106-0.25678-0.055969-1.3893 0.57376-2.5097 1.3948l-2.0385 1.4979-7.8827-2.4808c-4.334-1.3654-8.1877-2.6426-8.5652-2.8397-1.066-0.55615-4.811-12.495-4.2311-13.481 0.48618-0.82394 2.4342-1.1594 3.1017-0.53262 0.2023 0.19128 0.66739-0.34134 1.0299-1.183 0.81845-1.8863 0.57983-2.1393-3.153-3.3488-1.5766-0.51205-3.1077-1.083-3.4038-1.2713-0.63116-0.40314-4.2433-11.271-4.044-12.168 0.078522-0.34143 0.44702-0.77393 0.82455-0.96521 0.81531-0.41202 10.77 1.0299 12.34 1.7862 0.77918 0.37665 1.4435 1.5361 2.2862 3.9992 0.65228 1.9068 1.3258 3.5989 1.4919 3.7578 0.1691 0.15598 0.99667 0.073547 1.8393-0.18536l1.5312-0.4738-0.586-1.6126c-0.32312-0.89456-0.39862-2.1423-0.16904-2.7985 0.38049-1.0947 0.60702-1.1653 2.9506-0.94464 3.5548 0.33551 10.558 1.7951 11.096 2.313 0.55884 0.54141 6.4692 18.174 6.3182 18.851-0.063416 0.27365-0.99966 1.5626-2.0839 2.8662-1.0872 1.3036-1.9208 2.4366-1.8574 2.519 0.063416 0.082428 0.69162 0.60913 1.3983 1.1712 1.2262 0.97403 1.3168 0.98578 1.9631 0.24426 1.0813-1.236 2.8119-0.5856 3.4823 1.3095 0.31708 0.88574 0.59494 1.798 0.62213 2.0275 0.063416 0.53845 3.2255-0.28845 3.3555-0.87695 0.057312-0.24722-0.18121-1.3213-0.52554-2.3836-0.70676-2.1747-0.090698-3.3312 1.7064-3.2135 0.82452 0.052979 1.063-0.23251 1.3832-1.6597l0.3835-1.7215-2.8541-0.6033c-2.1594-0.45908-2.9778-0.82694-3.3644-1.5184-0.86075-1.5331-4.8141-13.872-4.6632-14.552 0.36243-1.6097 1.5494-1.542 13.412 0.77689l11.582 2.263 2.1927 4.6289c2.8298 5.9708 2.7483 5.8795 4.5845 4.9967l1.5101-0.7269-1.3561-2.7014c-2.3617-4.7084-1.5101-5.4058 4.9531-4.0345l4.657 0.9858 0.2779-1.8892 0.2779-1.8922-5.0165-0.9034c-4.2644-0.76514-5.1041-1.0359-5.6174-1.8127-0.72186-1.0977-0.24472-2.0452 2.12-4.2199 0.93329-0.85925 1.7186-1.6597 1.7457-1.7803 0.027283-0.1207-0.45898-0.76514-1.0811-1.4302l-1.1296-1.2094-4.053 3.855c-4.9168 4.676-4.2283 4.5995-16.517 1.8215l-8.7766-1.9863 0.1207-1.1212c0.084625-0.77978 1.205-2.0775 3.6846-4.264 1.9631-1.7273 3.905-3.2399 4.3157-3.3635 0.67053-0.1972 2.2048 0.28244 4.2252 1.3272 0.54968 0.2825 0.87283 0.008789 1.3892-1.183 0.57089-1.3124 0.54065-1.6979-0.18417-2.5189-0.70673-0.80339-0.746-1.2212-0.22653-2.419 0.55264-1.2742 0.49228-1.6008-0.50738-2.7102-0.62518-0.69447-1.1809-1.0623-1.2352-0.81804-0.14499 0.65028-2.407 0.60915-2.9386-0.052979-0.57382-0.71512-3.594-0.24724-3.7571 0.58264-0.063416 0.31486 0.069489 1.1271 0.28693 1.8039 0.77319 2.3894 0.14496 3.3046-5.9558 8.7134l-5.8833 5.2115-6.4389-1.18c-3.5427-0.65036-6.7772-1.4361-7.1849-1.748-0.54666-0.41788-0.61606-0.90344-0.25974-1.8246 0.38657-1.0005 0.27179-1.4831-0.55566-2.3718-0.57385-0.61498-1.1295-1.1358-1.2383-1.1564-0.10571-0.023529-1.3712 0.91521-2.8058 2.0864l-2.6153 2.1276-6.9041-1.1947c-3.7964-0.65628-7.1577-1.3566-7.4658-1.5538-1.4858-0.94752-0.70666-2.2276 4.9169-8.0866l5.6506-5.8914 4.4427 0.9417 4.4427 0.9417 0.3926-1.7509c0.38361-1.7186 0.35934-1.7598-1.2141-2.0952-2.1624-0.45612-3.1893-1.3948-2.9084-2.6573 0.12979-0.57376 2.1292-2.981 4.4426-5.3528l4.2101-4.3111 8.9034 2.0187c4.8956 1.1065 9.4893 2.2365 10.205 2.5101 1.0178 0.38553 1.5494 1.1418 2.4372 3.4518l1.1357 2.9575 1.658-0.5326c1.4225-0.45612 1.6702-0.72984 1.7547-1.9392 0.12085-1.7274 0.85172-2.0512 3.4249-1.5126l1.9117 0.3973 0.3926-1.7539 0.3896-1.7539-2.1926-0.4649c-2.4826-0.52383-3.2044-1.3773-2.5914-3.0663 0.3081-0.84462 0.12692-1.3684-0.77606-2.2365l-1.1779-1.133-2.0598 2.1394-2.0598 2.1423-7.7979-1.9422c-8.1666-2.0364-9.1965-2.5396-8.4867-4.161 0.38959-0.89464 14.352-15.749 15.587-16.585 0.41678-0.28244 2.9114-0.18536 6.4994 0.2502l5.8258 0.7092 0.2507-1.748 0.2506-1.7451-3.5879-0.818c-3.3916-0.77107-3.5818-0.87111-3.5064-1.8657 0.051422-0.65334 1.2292-2.2483 3.1108-4.2052l3.0321-3.1516-1.4013-1.1712c-0.80637-0.67389-1.513-0.99754-1.6671-0.768-0.1449 0.22066-1.7033 1.8539-3.4611 3.6254-2.8328 2.8603-3.3433 3.1928-4.512 2.9457-1.1688-0.24722-1.3984-0.61211-2.0205-3.184-0.38663-1.595-0.75198-2.9781-0.81247-3.0722-0.16-0.25307-3.1923 0.59442-3.2647 0.91225-0.033203 0.1471 0.4198 2.3983 1.0027 4.9997 0.58591 2.6042 0.96048 5.1939 0.83356 5.7589-0.12378 0.56496-3.1922 4.1051-6.8195 7.8659-6.1882 6.4239-6.6715 6.8212-7.9309 6.5534-1.2774-0.27077-1.3892-0.52383-2.25-5.0644-0.49826-2.6308-0.84259-5.1291-0.76709-5.5559 0.07547-0.42369 1.0088-1.3801 2.0779-2.1276l1.9388-1.3536-0.8094-1.1477c-0.63116-0.89752-1.1718-1.1653-2.4765-1.233-1.3712-0.073547-1.7548-0.2854-2.1504-1.2065-0.43799-1.024-0.6282-1.1035-2.2258-0.93864-1.3892 0.14117-1.7275 0.35896-1.6581 1.0682 0.054382 0.59442-0.35934 1.1448-1.2503 1.6568-0.79431 0.45612-1.5342 1.3654-1.8272 2.2423-0.48923 1.4684-0.47723 1.4831 1.643 2.26 1.1748 0.42963 2.3406 1.0946 2.5883 1.4802 0.62824 0.96818 3.1077 14.355 2.8601 15.458-0.1933 0.87111-6.8769 8.2455-8.6165 9.508-1.0631 0.77394-2.0266 0.59442-2.8541-0.53262-0.54056-0.73282-0.88492-0.8299-2.3013-0.64742l-1.6702 0.2178 0.4953 2.7808c0.27188 1.5273 0.38968 3.2577 0.25678 3.8403-0.12994 0.58553-2.2651 3.1811-4.7477 5.7736-6.2003 6.474-6.5659 6.4181-9.0876-1.4124-0.7189-2.2306-1.2111-4.4759-1.0964-4.9939 0.1178-0.5179 1.4164-2.1746 2.8874-3.6842l2.6758-2.7456-1.3802-1.1506c-1.2956-1.08-1.4164-1.1094-1.9782-0.49141-1.5221 1.6774-3.153 2.5219-3.9805 2.0599-1.1325-0.63556-4.7688-11.703-4.2404-12.913 0.21753-0.49437 3.3283-3.8991 6.9163-7.5657 7.0339-7.192 6.9251-7.1273 11.008-6.2738l2.3618 0.4972 0.3684-1.6567c0.32315-1.439 0.20837-1.7597-0.86685-2.4396-1.4858-0.93872-1.3711-2.004 0.40778-3.8755l1.2503-1.3154-1.3199-1.1889-1.3197-1.1918-1.6158 1.6626c-1.7215 1.7745-3.3795 1.9481-4.1799 0.44139-0.35642-0.67093-0.57983-0.71503-1.8574-0.38248-1.6973 0.44724-1.8786 0.91512-1.1446 2.978 1.1114 3.1251 1.0631 3.2223-4.3007 8.8075-5.9708 6.221-6.149 6.3593-7.4506 5.7296-0.77014-0.3708-1.791-2.9281-4.4095-11.035-1.8725-5.8031-3.3161-10.947-3.2074-11.432 0.10876-0.48854 1.6521-2.828 3.4309-5.2027l3.2346-4.317-1.4769-1.024-1.4798-1.0211-1.6762 2.3512c-3.0927 4.3347-4.34 3.9168-6.2488-2.0981l-1.3318-4.1905-1.4376 0.3766c-0.79126 0.20602-1.5644 0.50624-1.7184 0.6651-0.15411 0.15886 0.39853 2.3571 1.2321 4.8879 0.83359 2.5307 1.4588 4.8584 1.3893 5.1733-0.27179 1.2183-1.6792 1.3772-4.787 0.53847l-3.0775-0.8328-0.5316 1.6214c-0.64029 1.954-0.76416 1.8686 5.4665 3.6019 2.5913 0.71808 4.9017 1.4861 5.1312 1.7039 0.88187 0.8298 6.3725 18.483 6.0281 19.384-0.33511 0.88278-0.53143 0.87398-5.2036-0.22371-5.9225-1.3919-6.8558-2.0216-7.1458-4.8437-0.11777-1.1624-0.23852-2.1629-0.26874-2.2247-0.030243-0.058914-0.83966-0.044174-1.8 0.032333-1.4647 0.1207-1.8211 0.362-2.1896 1.4714-0.38065 1.1477-0.64038 1.3066-1.9057 1.1624-1.3289-0.15303-1.5131-0.017609-1.9661 1.4185-0.38666 1.2329-0.3201 1.7303 0.29898 2.2276 0.4379 0.35312 0.78223 1.183 0.76407 1.848-0.018158 0.6651 0.41983 1.7362 0.97247 2.3836l1.0028 1.1742 1.8181-1.4301c0.99963-0.78867 2.1081-1.4773 2.4614-1.5303 0.90906-0.13533 15.273 4.7967 15.783 5.4176 0.22949 0.28252 1.2623 3.0722 2.2952 6.2033 1.9963 6.059 1.9933 7.5039-0.005981 7.5304-0.99063 0.011765-1.2685 0.3031-1.7186 1.7862l-0.5375 1.7686 3.0715 0.974c2.0114 0.63861 3.2346 1.2683 3.5456 1.8334 0.85477 1.5508 4.4457 13.266 4.2856 13.984-0.084503 0.38257-0.59189 0.82109-1.1265 0.96818-1.036 0.2854-10.051-1.4802-11.649-2.2836-0.63126-0.31781-1.3259-1.7274-2.0749-4.2198-0.62213-2.057-1.1688-3.8226-1.2172-3.9197-0.048309-0.097168-0.80029 0.050034-1.6701 0.33246-1.6309 0.52383-1.6792 0.65918-1.2021 3.396 0.51337 2.9398 0.13583 3.0015-7.487 1.2448l-6.8407-1.5744-2.7664-9.0784c-1.5222-4.9908-2.7271-9.3314-2.6758-9.6432 0.051331-0.31198 0.96039-1.6126 2.0204-2.8869 1.0632-1.2742 1.9541-2.4159 1.9812-2.5395 0.027283-0.1207-0.50729-0.66806-1.1838-1.2154-1.1235-0.90335-1.3198-0.94754-2.1716-0.4679-1.655 0.92697-2.8208 0.2943-3.3976-1.8422l-0.5285-1.951-1.6097 0.4091c-0.88501 0.22658-1.7004 0.46204-1.8091 0.52086-0.11182 0.058823 0.069397 0.90929 0.40167 1.8892 0.91809 2.7073 0.12976 4.3818-1.8605 3.958-0.64627-0.13533-0.8909 0.18536-1.202 1.5832l-0.3926 1.7509 2.6124 0.5532c1.4376 0.30606 2.8752 0.86815 3.1983 1.2537 0.70068 0.83868 4.7266 14.302 4.5334 15.167-0.34436 1.5391-1.2806 1.4714-12.57-0.92104-6.1128-1.2978-11.404-2.5426-11.754-2.7662-0.35339-0.22369-1.5977-2.5013-2.7635-5.0615-1.1688-2.5573-2.2349-4.8556-2.3708-5.1027-0.13586-0.25011-0.96942-0.15303-1.8513 0.21481l-1.6037 0.6709 1.2443 2.8869c0.68259 1.589 1.196 3.1016 1.1386 3.3635-0.27484 1.2242-1.9359 1.3448-6.1822 0.44731l-4.3128-0.9152-0.5497 1.8186-0.5496 1.8215 5.5057 1.2948c5.4332 1.2801 5.5057 1.3125 5.4241 2.3806-0.05127 0.71214-0.8909 1.8098-2.4191 3.1782l-2.3407 2.0923 1.2806 1.2713 1.2835 1.2713 3.3674-3.0575c5.7564-5.2292 4.1649-4.9556 15.194-2.6191 5.2551 1.1153 9.8457 2.213 10.205 2.4424 1.353 0.86519 0.2023 2.7279-3.6816 5.9738-4.038 3.3752-4.2555 3.4341-7.3662 1.9981-1.5131-0.69742-1.634-0.67685-2.1232 0.36487-0.28388 0.60916-0.62824 1.3036-0.7641 1.5449s0.10571 0.77393 0.53754 1.183c0.63428 0.60333 0.67053 1.0594 0.18433 2.3689-0.52554 1.4096-0.46515 1.7716 0.46802 2.8103 0.6947 0.771 1.2111 1.0446 1.4708 0.78274 0.22046-0.22064 1.1266-0.19128 2.0115 0.067719 0.88794 0.25891 2.2954 0.45612 3.1318 0.43842l1.5192-0.0382-0.3806-2.5514c-0.45606-3.0781-0.7792-2.6455 6.4873-8.6869 3.3916-2.8191 5.9164-4.5847 6.5537-4.5877 0.57086 0 3.739 0.72095 7.037 1.6038l6.001 1.6067-0.1329 1.6567c-0.084595 1.0535 0.2084 2.0599 0.80942 2.7632l0.9423 1.1065 2.5761-2.0452 2.5763-2.0481 5.5721 1.0535c5.7232 1.08 6.7742 1.5773 6.436 3.0398-0.093567 0.39136-2.0597 2.7897-4.3732 5.3293l-4.2071 4.6142-4.4094-0.8033-4.4095-0.8034-0.3866 1.7362c-0.38654 1.7304-0.38046 1.7392 1.3742 2.1128 2.4795 0.52383 3.1016 1.0389 2.8148 2.3278-0.24167 1.083-6.3726 8.2513-8.1332 9.5079-0.77319 0.55328-1.8816 0.4061-10.272-1.3713-5.2067-1.1035-9.725-2.2599-10.124-2.5925-0.39569-0.32663-1.1507-1.7274-1.6792-3.1075-1.0269-2.6897-1.4074-2.9692-3.0443-2.2306-0.71576 0.32071-1.1628 0.98282-1.4104 2.0952l-0.3624 1.6244-2.3919-0.3678-2.3889-0.3707-0.3836 1.7215c-0.41681 1.8657-0.19635 2.0805 3.0896 3.0398 1.4708 0.43259 1.5281 0.52976 1.1446 2.0364-0.35339 1.3801-0.23248 1.7097 0.93024 2.5896l1.3348 1.0064 1.7669-2.0187 1.7668-2.0157 8.0638 1.5832c8.3447 1.6391 9.2658 2.0158 8.9063 3.6343-0.096588 0.43259-3.6362 4.5612-7.8645 9.1783l-7.6892 8.3927-4.5817-0.3678c-8.1635-0.65631-7.5715-0.70337-7.8584 0.62091-0.41983 1.9245-0.039276 2.2364 3.5699 2.9574 3.3795 0.67383 3.3825 0.67679 3.2527 1.9275-0.1178 1.1653-0.92123 2.2158-4.654 6.0826l-1.1718 1.2183 1.1083 0.9299c0.61005 0.51196 1.3138 0.98282 1.5614 1.0446 0.24768 0.064728 1.8574-1.4625 3.5819-3.39v0.002869z" fill="#fff" stroke="#000" stroke-width="2"/>
</svg>
