<?xml version="1.0" encoding="UTF-8"?>
<svg viewBox="0 0 1750 1000" xmlns="http://www.w3.org/2000/svg">
 <defs>
  <filter id="c">
   <feGaussianBlur stdDeviation="8.9872"/>
  </filter>
  <filter id="b" x="-.03695" y="-.28648" width="1.0739" height="1.573">
   <feGaussianBlur stdDeviation="12.1023"/>
  </filter>
  <linearGradient id="a" x2="0" y1="145.68" y2="875.06" gradientUnits="userSpaceOnUse">
   <stop stop-color="#00358f" offset="0"/>
   <stop stop-color="#b3d9ff" offset="1"/>
  </linearGradient>
 </defs>
 <path d="m0 0h1750v875h-1750z" fill="url(#a)"/>
 <g transform="matrix(1.1396 0 0 1.1396 -8.7141 -122.11)">
  <path d="m176.17 460.78c-10.923 0.01969-20.033 6.908-20.033 11.253 1e-5 6.0451-0.00495 10.086 8.391 10.086s7.073-3.1953 16.476-3.1953 13.754 4.1979 13.754 7.7242c0 0.14962 0.01077 0.31544 0.02779 0.47235-1.5998 0.56059-3.4107 1.3187-5.8904 2.3895-7.6666 3.31-14.628 9.7282-20.505 16.949s-4.3429 15.955-3.1675 18.977 6.8628 5.226 10.725 4.8902c0.14423-0.01255 0.27884-0.03339 0.41677-0.05557-0.22531 1.9719-0.53151 4.6851-0.75019 7.4186-0.45809 5.7308-20.13 28.55-22.145 34.259-0.65097 1.8444 0.08178 3.6607 1.6393 5.4181-1.5945 2.2626-2.9674 4.3968-4.001 6.335-5.2335 9.8128-8.3491 27.255-11.725 40.316l-14.643-0.50013-6.724 6.6962-3.612 23.812c-4.3721 3.0587-7.9106 5.634-8.5578 7.0018-0.28476 0.60285-0.33156 1.8601-0.11114 3.5565-20.522 15.786-31.158 28.96-32.703 33.314-1.8471 5.2055 2.8522 58.948 4.1955 60.627s2.6939-1.5136 2.8618-3.5287-2.1818-33.587-0.16671-34.259 5.6886 9.7512 6.6962 17.643 1.0015 8.8946-3.0286 23.839-14.438 29.549-15.782 35.426 1.0305 35.778 0.69462 40.816-3.0213 10.894-4.0288 18.282 1.6768 11.769 0.33342 13.448-2.3617 4.8624-2.3617 4.8624h26.701s0.00484-1.8507-0.66684-3.362-6.045-3.5129-7.7242-5.6959-3.0249-12.439-3.5287-17.477 3.0201-34.081 4.1955-35.593 3.0249-9.7561 3.5287-13.114 13.592-27.703 16.782-31.397c1.5463-1.7905 5.2784-4.4896 9.8637-7.5019 0.8002 5.4864 1.4597 10.9 1.3892 13.226-0.16792 5.5414-0.33458 16.292-4.0288 22.673s-5.1982 17.287-4.8624 20.478 8.8936 13.104 12.42 18.477 8.7462 20.154 9.5858 22.673 1.167 10.725 1.167 10.725c-2.183 2.5188-3.1953 5.8904-3.1953 5.8904h25.006s-0.49045-2.1817-1.8338-4.0288-4.8708-4.204-7.5575-6.8907-8.5505-15.941-9.558-20.811-3.3608-25.54-3.5287-28.563-0.83718-14.592-0.33342-17.782 8.5444-25.703 10.392-33.092c1.0922-4.3689 2.9517-12.833 4.39-20.561 8.5509-4.5716 17.197-8.6411 19.977-8.6411 4.3659 0 17.28 7.5405 33.064 13.754s37.448 7.2337 42.15 13.615-7.5539 40.295-8.0576 43.15-3.8524 7.7278-5.1958 11.086-0.02053 20.66-1.028 26.201-5.017 23.489-6.6962 25.84-2.0283 6.724-2.0283 6.724h26.368s-0.49649-0.84557-1.0003-3.0286-4.5434-3.0128-6.3905-5.1958 1.1827-12.931 2.8618-23.006 8.3814-18.982 9.7247-22.172 0.66804-5.3696 0.50013-12.086c-0.14566-5.8265 9.4314-21.629 19.866-36.787 6.6365 9.2059 17.489 29.683 18.088 30.73 0.67168 1.1754 3.7147 11.092 4.8902 14.115s7.549 10.588 8.7245 14.115 4.5302 18.462 4.3622 20.478 1.8398 14.771 1.0003 16.282-2.3339 6.5572-2.3339 6.5572h26.007s0.17155-1.1863-0.50013-2.3617-5.0242-3.0225-5.6959-3.8621-4.03-11.922-7.7242-19.311-4.8865-21.318-5.3903-24.173 1.0087-11.922-0.16671-15.448-5.5413-10.241-7.7242-11.92-1.6779-6.2212-7.8909-18.144c-3.7173-7.1332-6.6322-21.635-8.391-32.203 5.9862-9.1591 10.269-16.145 11.42-17.505 1.8471-2.183 12.427-5.0399 23.006-7.3908s27.876-16.096 30.73-18.783 3.1806-2.5377 12.92-24.367c7.2286-16.204 9.1049-33.496 9.5858-41.344 5.8127-0.08463 12.366-0.8588 17.449-3.3064 13.602-6.5489 13.41-14.089 16.476-13.781 3.3584 0.33584 12.581 1.0208 13.42-1.8338 0.30764-1.0465-1.9527-2.7669-4.9457-4.5012 2.4892-2.5443 5.1798-5.5779 5.4458-7.0852 0.50376-2.8546-12.761-9.9156-15.615-10.419s-16.463 4.3646-22.172 4.0288-18.627-4.3586-20.978-4.8624-8.7365 4.5265-10.919 4.8624-3.0164-1.353-4.6957-2.5284-6.2202-1.1537-6.724 0.86134c0 0 0.331 7.1974 0.66684 10.892s-4.7017 7.7326-7.7242 10.419c-2.3784 2.1141 1.1674 7.2576 3.2786 12.948l-49.263-9.3357c-0.19937-2.1387-0.65369-5.2455-1.6949-6.8073-0.95556-1.4334-5.256-2.0765-8.8078-2.3895 0.39475-1.677 0.29914-2.6861-0.7502-3.4731-0.81966-0.61474-15.747-1.9188-27.618-2.8896-0.03526-0.16158-0.0658-0.33633-0.11114-0.47235-1.1754-3.5263-15.776-15.129-20.478-20.839s-8.7365-25.52-14.782-35.259c-1.1864-1.9113-2.5279-3.4959-3.9455-4.8346 0.05468-1.8274 0.10274-3.4867 0.16671-3.8065 0.10902-0.54508-0.52377-3.0111-0.83355-4.8068 0.56479 0.04108 0.9883 0.06078 1.3337-0.05557 0.50242-0.16927 2.0198-0.08456 3.1119 0.08335s2.1902-0.07966 2.9452-0.50013 1.7694-0.31641 2.4451-0.9169c0.75497-0.67168 0.91326-1.5234 1.417-2.2784s-0.57978-1.771-1.0003-2.7785-0.13891-2.8619-0.13892-2.8618l0.25006-0.94469s-0.77412-0.44421-1.556-0.5557c0.01877-0.00438 0.09576-0.03563 0.25007-0.08335 0.63367-0.16302 1.1392-0.44455 1.1392-0.44456s0.99397-0.66435 0.97248-0.91691c-0.04971-0.59107-0.28573-1.954-1.167-2.6674 0 0 1.0775-0.24766 1.8338-0.58349s1.225-1.0486 0.97248-2.0561-3.3571-3.6628-4.0288-4.3345-0.47234-1.8338-0.47234-1.8338l-0.33342-0.86134 0.33342-0.58348-0.66684-1.5837 0.66684-1.0003s-0.08093-1.9341-0.41678-3.4453c-0.22236-1.0006-0.92506-2.6256-1.4726-3.8343 1.6056-1.3581 2.7621-6.33 3.223-7.2519 0.50376-1.0075-0.33221-2.6891-0.50013-3.5287s0.00485-1.0135-0.66683-3.0286c-0.6394-1.9182-4.47-4.6054-8.1688-4.6957-4.9108-6.9374-5.0159-14.459-15.837-21.005-4.396-2.6591-8.9514-3.7031-13.226-3.6954zm95.552 163.26c3.0324 0.74732 6.4287 1.751 6.335 2.5006-0.16792 1.3434-1.0124 2.8304 0.66684 3.3342 1.4856 0.44567 4.2895-2.1201 4.9457-2.7507l50.374 9.947c0.11925 0.51586 0.20749 1.04 0.27785 1.556 1.0075 7.3885-4.5553 33.227-20.172 37.593s-24.164-10.396-29.202-17.449-9.9023-18.812-12.253-22.506c-0.52971-0.8324-1.2739-1.5723-2.1672-2.2784 0.29897-2.707 0.74161-6.4718 1.1948-9.947z"/>
  <path d="m555.5 455.45c-0.74525-0.0034-1.5326-0.00972-2.3444 0.03006-8.893 0.43578-14.56 6.78-16.741 12.263-1.5346 0.52162-3.052 1.4175-4.4182 2.8553-3.4469 3.6213-2.8366 10.311-1.8935 12.684 0.61031 1.5347 2.4717 2.208 4.0876 2.705-0.1855 3.0207-0.28076 6.347-0.18033 9.1971 0.19472 5.5452 4.0213 11.393 2.3444 15.629-2.5169 6.3576-18.888 18.517-25.427 43.22-0.89793 3.3924 1.5736 5.0109 5.3199 6.5522-0.30866 1.8552-0.52688 3.7299-0.60112 5.6204-0.11022 2.8084-0.84969 5.7038-2.0438 8.6561l-4.6587-1.2022-13.826 4.3581-2.2542 6.1615h-4.6286l-14.727 23.233-7.0631 3.6668-0.4809 8.2654-5.35 8.4457 2.4345 12.323c-1.7633 1.263-3.0727 2.3371-3.5165 3.2761-0.19536 0.4132-0.31848 1.1306-0.33062 2.0438-23.834 17.909-36.108 33.048-37.84 37.931-1.9981 5.631 3.0853 63.766 4.5384 65.582s2.9141-1.6374 3.0958-3.8171-2.3601-36.332-0.18033-37.059 6.1536 10.548 7.2435 19.086 1.1135 9.6216-3.246 25.788-15.619 31.964-17.072 38.321 1.0846 38.703 0.72134 44.152-3.2682 11.784-4.3581 19.777 1.8138 12.731 0.36067 14.547-2.5547 5.2598-2.5548 5.2598h28.884s0.00524-2.002-0.72134-3.6368-6.5391-3.8-8.3555-6.1615-3.2722-13.456-3.8171-18.905 3.2669-36.867 4.5384-38.502 3.2722-10.554 3.8171-14.186 14.703-29.967 18.154-33.963c1.669-1.9325 5.7251-4.8353 10.67-8.085 0.86369 5.9247 1.5789 11.765 1.5028 14.277-0.18165 5.9943-0.36193 17.623-4.3581 24.526s-5.6231 18.7-5.2598 22.151 9.6205 14.175 13.435 19.987 9.4611 21.801 10.369 24.526 1.2623 11.602 1.2624 11.602c-2.3614 2.7247-3.4564 6.3718-3.4564 6.3718h27.08s-0.5606-2.36-2.0138-4.3581-5.2689-4.5476-8.1752-7.4539-9.2494-17.244-10.339-22.512-3.6354-27.628-3.8171-30.897-0.90561-15.785-0.36067-19.236 9.2428-27.804 11.241-35.797c1.1815-4.726 3.1929-13.881 4.7488-22.241 9.2498-4.9453 18.603-9.3474 21.61-9.3474 4.7228 0 18.692 8.1568 35.767 14.878s40.509 7.8249 45.595 14.727-8.1713 43.589-8.7162 46.677-4.1673 8.3594-5.6205 11.992 0.00784 22.348-1.082 28.343-5.4571 25.409-7.2735 27.952-2.1941 7.2735-2.1941 7.2735h28.523s-0.53708-0.91468-1.082-3.2761-4.9147-3.2591-6.9128-5.6205 1.2793-13.988 3.0958-24.886 9.0965-20.533 10.55-23.985 0.72267-5.8085 0.541-13.074c-0.1575-6.3001 10.208-23.372 21.49-39.764 7.1813 9.9756 18.89 32.08 19.536 33.212 0.72658 1.2715 4.0183 11.999 5.2898 15.268s8.166 11.454 9.4376 15.268 4.9004 19.971 4.7188 22.151 1.9903 15.978 1.082 17.613-2.5247 7.0932-2.5247 7.0932h28.162s0.15549-1.2833-0.57106-2.5548-5.4349-3.2696-6.1615-4.1778-4.3594-12.896-8.3556-20.889-5.2558-23.061-5.8008-26.149 1.0611-12.897-0.21039-16.711-5.9942-11.078-8.3555-12.894-1.815-6.7297-8.5359-19.627c-4.0211-7.7162-7.1743-23.403-9.0769-34.835 6.4755-9.9077 11.108-17.464 12.353-18.935 1.9981-2.3614 13.443-5.4518 24.886-7.9949s30.154-17.411 33.242-20.318 3.4707-2.7452 14.006-26.359c7.8194-17.528 9.819-36.234 10.339-44.723 6.2878-0.09155 13.406-0.92899 18.905-3.5766 14.713-7.0842 14.476-15.241 17.793-14.908 3.6329 0.36329 13.609 1.1042 14.517-1.9837 0.33277-1.132-2.1123-2.993-5.35-4.8691 2.6927-2.7523 5.6033-6.0338 5.891-7.6643 0.54494-3.088-13.803-10.726-16.891-11.271s-17.779 4.7214-23.955 4.3581-20.179-4.7148-22.722-5.2598-9.4506 4.8965-11.812 5.2598-3.263-1.4636-5.0794-2.7351-6.7286-1.248-7.2735 0.93174c0 0 0.38809 7.7857 0.7514 11.782s-5.0859 8.3646-8.3556 11.271c-2.5736 2.2877 1.2631 7.8485 3.5466 14.006l-53.289-10.099c-0.21565-2.3136-0.73715-5.6742-1.8635-7.3637-1.0337-1.5505-5.6855-2.2462-9.5277-2.5848 0.42702-1.8141 0.3236-2.9057-0.81151-3.757-0.88666-0.66499-17.034-2.0757-29.876-3.1258-0.03815-0.17479-0.07119-0.36382-0.12023-0.51095-1.2715-3.8145-17.065-16.366-22.151-22.542-3.9991-4.856-7.4136-22.038-11.872-34.294 0.51064 0.01956 0.92796-0.02251 1.0219-0.21039 0.27174-0.54349 3.5427-1.2637 4.1778-1.1722s2.1641-1.0781 2.2542-1.623 0.98783-1.9222 1.4427-2.0137 1.1108-0.98655 1.2924-1.623 0.99046-2.5495 1.082-3.2761-1.265-2.0098-0.90168-2.4646-1.0793-5.5277-1.3525-5.9811-1.44-0.4456-1.7132-1.1722c-0.18601-0.49698-0.93726-2.1054-2.3744-3.3362-0.12062-1.0448-0.12023-1.9837-0.12022-1.9837l-0.06011-0.99184-0.15028-0.06011-0.81151-0.36067 0.75139-0.27051s0.6544-0.50826 0.63118-0.78145c-0.05378-0.63939-0.30906-3.5865-1.2624-4.3581 0.04059-0.01426 0.91402-0.3364 1.7132-0.69128 0.81813-0.3633 2.1526-0.71067 1.7733-1.8935-1.0187-3.1795-3.7517-5.7354-4.4783-6.462s-0.75139-1.7733-0.75139-1.7733l-0.42079-0.60111 0.24045-0.69129-0.42078-1.2624s1.2492-1.0704 1.1722-1.7432c-0.18164-1.581-0.36323-1.2794-0.57106-3.1859-0.04026-0.37206-0.20445-0.85075-0.39073-1.3826 0.78355-0.05268 1.4733-0.07551 1.9236 0 1.629 0.27321 3.3406-2.7515 3.4264-3.9373s-1.043-8.2094-4.3882-10.309c-0.67342-0.42268-2.4729-0.68001-4.4182-0.72134-2.7983-5.0242-7.0867-8.0745-15.96-8.1151zm80.79 148.03c3.2803 0.8084 6.9541 1.8941 6.8528 2.705-0.18165 1.4532-1.0951 3.0618 0.72134 3.6067 1.6007 0.48021 4.6237-2.2787 5.35-2.9755l54.461 10.76c0.12977 0.56045 0.25418 1.1226 0.33062 1.6831 1.0899 7.9924-4.9276 35.943-21.821 40.666s-26.139-11.246-31.589-18.875-10.712-20.349-13.255-24.345c-0.57301-0.90043-1.378-1.7008-2.3444-2.4646 0.32341-2.9283 0.80222-7.0008 1.2924-10.76z"/>
  <path d="m932.87 428.17c-1.4379 0.00558-2.7649 0.23508-4.6732 0.47363-3.0533 0.38166-8.2947 4.286-9.5358 5.431s-3.8178 4.8667-8.5886 8.6833c-0.4634 0.37072-0.7913 0.74165-1.0104 1.1052l-6.3151-1.7682 11.367 16.135h0.28418c-0.67821 3.1868-1.4812 7.2918-1.7051 10.578-0.39692 5.8348 0.95005 10.228 0.56837 14.998-0.52058 6.5126-26.728 21.172-29.018 27.66-0.97597 2.7653 0.14889 6.5881 2.4313 10.483-3.2248 5.5641-5.5759 11.527-6.0625 17.556-0.98454 12.209-4.1182 28.747-9.7253 42.532l-5.7152-0.15788-12.788 4.5785-5.8099 27.092c-6.5212 7.3992-12.536 15.683-13.735 18.219-0.35157 0.74358-0.56375 2.2724-0.53679 4.3259-23.078 17.812-35.039 32.653-36.786 37.575-2.0991 5.9157 3.2413 66.99 4.7679 68.898s3.0615-1.7202 3.2523-4.0101-2.4794-38.17-0.18945-38.933 6.4963 11.082 7.6413 20.051 1.1382 10.108-3.4418 27.092-16.408 33.58-17.935 40.259 1.1395 40.66 0.75781 46.385-3.4335 12.38-4.5785 20.777 1.9056 13.374 0.37891 15.283-2.6839 5.5257-2.6839 5.5257h30.344s0.00548-2.1032-0.75782-3.8206-6.8698-3.9922-8.778-6.473-3.4376-14.136-4.0101-19.861 3.4321-38.731 4.7679-40.448 3.4376-11.087 4.0101-14.904 15.446-31.482 19.072-35.68c1.7534-2.0302 6.0146-5.0798 11.209-8.4938 0.90737 6.2243 1.6588 12.36 1.5788 14.998-0.19083 6.2974-0.38022 18.514-4.5785 25.766s-5.9074 19.645-5.5257 23.271 10.107 14.891 14.114 20.998 9.9395 22.903 10.894 25.766 1.3262 12.188 1.3262 12.188c-2.4808 2.8624-3.6312 6.694-3.6312 6.694h28.45s-0.58895-2.4794-2.1156-4.5785-5.5353-4.7775-8.5886-7.8308-9.7171-18.116-10.862-23.65-3.8193-29.025-4.0101-32.46-0.95136-16.583-0.37891-20.208 9.7418-29.21 11.841-37.607c1.2412-4.965 3.3228-14.583 4.9574-23.366 9.7182-5.1958 19.543-9.82 22.703-9.82 4.9616 0 19.637 8.5693 37.575 15.63s42.557 8.2206 47.9 15.472-8.5844 45.793-9.1569 49.037-4.378 8.7821-5.9046 12.599 0.00825 23.478-1.1367 29.776-5.733 26.694-7.6413 29.365-2.305 7.6413-2.305 7.6413h29.965s-0.56421-0.96093-1.1367-3.4418-5.1633-3.4239-7.2624-5.9046 1.344-14.695 3.2523-26.145 9.5564-21.572 11.083-25.197 0.75916-6.1022 0.56836-13.735c-0.16547-6.6187 10.724-24.554 22.577-41.775 7.5445 10.48 19.876 33.702 20.556 34.891 0.7633 1.3358 4.1899 12.606 5.5257 16.04s8.5789 12.033 9.9148 16.04 5.1482 20.981 4.9574 23.271 2.0909 16.786 1.1368 18.503-2.6525 7.4519-2.6524 7.4519h29.586s0.1634-1.3481-0.5999-2.6839-5.7095-3.4349-6.473-4.389-4.5798-13.549-8.778-21.945-5.5216-24.227-6.0942-27.471 1.1463-13.549-0.1893-17.556-6.2973-11.638-8.7782-13.546-1.9067-7.07-8.9675-20.619c-4.2277-8.1127-7.5375-24.616-9.5357-36.628 6.7897-10.39 11.64-18.318 12.946-19.861 2.0991-2.4808 14.122-5.7275 26.145-8.3991s31.679-18.292 34.923-21.345 3.6461-2.884 14.714-27.692c8.2164-18.414 10.317-38.066 10.862-46.985 6.6057-0.09618 14.084-0.97596 19.861-3.7575 15.457-7.4424 15.207-16.011 18.693-15.662 3.8166 0.38167 14.297 1.1601 15.251-2.084 0.3496-1.1893-2.219-3.1444-5.6203-5.1153 2.8287-2.8914 5.8865-6.3389 6.1888-8.0518 0.5725-3.2441-14.502-11.268-17.746-11.841s-18.678 4.9601-25.166 4.5785-21.2-4.9533-23.871-5.5257-9.9285 5.1441-12.409 5.5257-3.4279-1.5376-5.3363-2.8734-7.0688-1.3111-7.6413 0.97885c0 0 0.4077 8.1794 0.7893 12.378s-5.3431 8.7876-8.7779 11.841c-2.7038 2.4033 1.3269 8.2453 3.7258 14.714l-55.984-10.609c-0.2265-2.4305-0.7744-5.9611-1.9577-7.736-1.0846-1.627-5.9441-2.3592-9.9779-2.7155 0.4484-1.9052 0.3082-3.0527-0.8841-3.947-0.9307-0.69806-17.868-2.1808-31.355-3.2839-0.04036-0.18565-0.07429-0.38072-0.1263-0.53678-1.3358-4.0074-17.77-14.51-23.113-20.998s-6.8655-30.706-13.735-41.775c-0.02702-0.04354-0.06709-0.08295-0.09473-0.12631 0.70883 0.36881 1.2708 0.66719 1.5156 0.78939 0.95415 0.47632 3.4286 1.7388 4.1996 1.8945 1.432 0.28701 4.1885 1.167 5.6205 1.4525s3.5324-0.50102 4.1996-0.97884 2.0154-1.51 2.8734-2.084-0.01781-1.5334-1.9261-3.347-8.1054-8.8605-9.4411-10.673-2.9667-7.8458-3.0628-10.041-0.28419-5.7152-0.28418-5.7152l-0.9157-1.6735 0.47364-0.28418 0.09472-1.8945s-0.15554-1.4678-0.78939-1.863c0.18535-0.34039 0.61895-0.96622 1.4525-1.1052 0.9282-0.15571 2.1168-0.6864 1.8314-1.8314s-3.6888-4.9835-4.4522-5.7468-1.5156-1.4525-1.5156-1.4525l-0.66309-1.6735 0.41049-0.37891-0.37891-1.2314 0.09472-1.1999s-0.47086-0.74696-0.85254-2.4629c-0.35649-1.6028-1.2354-3.8013-1.3578-4.1048 0.33654-0.07645 0.88412-0.18945 0.88412-0.18945l6.4414-18.409-5.4626 3.0628c-1.057-1.4784-3.906-4.3694-5.8731-5.652-2.1938-1.4305-3.4624-1.8-5.0837-1.9893s-3.7247-1.5613-6.0941-2.0208c-1.1095-0.21469-2.0106-0.28754-2.8734-0.28418zm88.443 161.57c3.4462 0.84928 7.3057 1.9898 7.1992 2.8418-0.1907 1.5266-1.1503 3.2166 0.7578 3.7891 1.6817 0.50449 4.8576-2.3939 5.6206-3.126l57.215 11.304c0.1363 0.58878 0.267 1.1794 0.3473 1.7682 1.1449 8.3965-5.1453 37.76-22.892 42.722s-27.493-11.815-33.218-19.83-11.253-21.378-13.925-25.576c-0.602-0.94596-1.4478-1.7868-2.4629-2.5892 0.3398-3.0763 0.8428-7.3548 1.3577-11.304z"/>
 </g>
 <path d="m0 875h1750v125h-1750z"/>
 <g transform="translate(281.52 6.7672)" fill="#fff">
  <path transform="matrix(.99258 -.12156 .12156 .99258 -15.24 145.24)" d="m1218.5 89.514 28.875 78.375-56.125-3.7812 43.906 25.438-68.312 37 82.875-3.25-20.469 51.031 37.656-33.812 14.281 77.531 22.781-80.75 41.844 34.938-19.938-44.969 77.656 10.281-70.719-47.281 47.031-29.531-48.25 5 33.188-69.406-66.625 52.5-13.844-54.906-10.344 48.312-55.469-52.719z" filter="url(#c)"/>
  <path d="m1306.9 173.61-608.33-44.444 245.83 34.722-356.94-18.056 416.67 33.333-481.94 4.1667 506.94 8.3333-288.89 12.5h300l-229.17 26.389 497.22-36.111-1.3889-20.833z" fill-rule="evenodd" filter="url(#b)"/>
 </g>
</svg>
