<?xml version="1.0" encoding="UTF-8"?>
<svg enable-background="new 0 0 255.5372 296.5906" version="1.1" viewBox="0 0 255.5372 296.5906" xmlns="http://www.w3.org/2000/svg">
 <path d="m83.446 60.799c0.95653 6.2291 19.458 35.607 29.546 65.725s11.763 60.975-2.5597 60.975c-7.1613 0-41.222-3.7809-50.838-6.1515-10.798-2.6618-29.238-12.517-33.551-17.594-20.952-24.662-19.102-68.777-17.239-82.284 3.445-24.974 23.987-48.996 43.828-59.331 14.942-6.5341 53.651-17.658 66.71-14.457 1.441 1.5484 10.669 1.6161 19.854 4.1045 9.1846 2.4883 24.45 10.842 26.865 17.097-2.3694 2.427-5.4144 11.09-17.63 14.082 2.7505-8.5661-8.5818-3.3637-23.778 0.63128-12.477 3.2801-19.2-6.097-23.529-2.1681-8.6123 7.8163-13.6 12.56-17.678 19.371z" fill="#ff0" stroke-width=".03"/>
 <path d="m229.74 149.62 3.3161 15.917 2.3935-17.455 12.197 25.944 3.7081 26.083-4.7752 12.336-12.595 28.699-1.5917 26.661-8.4892 25.6-31.152-13.333-32.914-16.646s-0.57723 7.7814-3.7687 5.6119c-3.4092 1.55-11.221-0.56949-11.221-0.56949s-2.0638 3.2478 0.96812 8.8093c-5.4464-3.3446-5.9855-0.12781-2.3638 9.5348-6.5884-5.7407-13.144-21.848-15.028-32.87-2.2331 5.6529-1.754 23.133-1.754 23.133l-8.0853-26.568-1.4591 15.359-10.211-11.56s3.3487 19.127 2.6487 31.943c-7.9874-14.906-10.261-38.221-10.261-38.221l-0.09415 25.452-10.552-26.805-4.1797 12.102-17.961-22.277s10.345 22.152 8.6144 27.631c-6.0353-5.8792-10.595-20.864-11.99-31.106 0.2065 3.639 0.38268 14.198-3.5774 16.101-1.7765-4.2297-5.0998-20.861-5.0998-20.861l-7.1376 3.2257-5.6911-14.835-10.274 3.7246-11.504-8.2186 3.2679-15.782 6.7953-5.3579 1.101-3.923-4.8084-1.6744-7.8529 8.5767-4.236 1.3786-0.1211-5.8942 9.3273-12.363 9.3662 3.3734 10.357-1.5748 3.9899 3.7309 13.383 21.336 5.7382 4.9832 17.209 6.7425 15.394 3.7669 19.116-0.7712 11.157-1.54 11.733 4.4514 1.0732-9.9055-17.184-6.148-12.487-20.642-1.1683-22.161s7.2162-12.219 5.89-18.578c-1.8913-9.3818-4.6824-2.4272-4.6824-2.4272s5.4274-11.691 3.702-16.423c-1.7892 3.8165-10.918 13.357-11.34 24.784-2.224-1.988 1.5156-12.565 3.7176-19.202 4.6234-24.47-2.9147-9.8944-2.9147-9.8944l-9.3056 5.11-6.1527-0.36105-1.6156 4.2017-4.0758-1.3337s-1.3174 12.64-6.9238 11.886c0.45207-3.7707 0.91353-11.592 0.91353-11.592l-8.3212-1.3507 7.6288-9.1918s9.4608-0.1262 11.143-2.9622c3.9348-1.8988 8.2721-4.0235 10.971-7.2152 3.4972-1.2128 2.8935-7.412 2.8935-7.412l-7.826-5.3329s-14.314 9.2701-21.149 8.4672c-5.9369 3.6079-7.7919 5.689-11.544 4.0823-5.4688-2.3418-4.311-11.959-7.3052-16.284 3.9518-4.4966 14.866-13.734 14.866-13.734l15.192-9.5097 3.8549-11.591 18.321-15.755 19.507-8.01 1.6515 4.8082-5.8145 8.1091 18.182-9.2386 13.457-10.616-5.9467 16.844 2.8177-0.68461 7.3132-3.9316 13.795 1.6871 11.142 4.4353 11.432 11.894 4.7426 6.5884 0.90303 7.871 9.6498 13.62 0.19896 7.0778 5.4113 16.263s-13.469-12.191-20.12-14.204c0.64136 15.636 31.473 30.026 37.457 35.529-11.911-1.6287-28.919-13.576-28.919-13.576l32.82 26.391-24.395-9.8263 9.5503 8.1907z" fill="#b3b3b3" stroke-width=".03"/>
 <path d="m110.37 3.5176h6.3c15.93 0.82 32.14 5.72 44.53 16.01-0.01 3.15-3.21 1.72-4.65 0.49-13.88-9.37-31.12-11.7-47.52-11.51-8.12-0.31-16.16 0.96-24.11 2.42-4.19 0.9-8.11 2.79-12.38 3.35 1.52-1.19 3.11-2.31 4.93-3 10.59-3.88 21.54-7.27 32.9-7.76z" fill="#030303" stroke="#030303" stroke-miterlimit="10.43" stroke-width=".0938"/>
 <path d="m90.197 24.398c-2.4-3.53 1.71-5.98 4.2-7.73-0.63 2.08-1.53 4.06-2.47 6.03 2.98 0.67 6.02 0.89 9.04 1.22-3.57 0.33-7.73 3.73-10.77 0.48z" fill="#030303" stroke="#030303" stroke-miterlimit="10.43" stroke-width=".0938"/>
 <path d="m128.92 18.508c2.74-1.64 5.91-1.94 9.04-1.8-3.14 0.55-5.94 2.04-8.13 4.36 2.81 1.81 5.5 3.83 7.93 6.15-4.8201 1.14-10.32-3.66-8.84-8.71z" fill="#030303" stroke="#030303" stroke-miterlimit="10.43" stroke-width=".0938"/>
 <path d="m47.127 21.628c2.52-1.52 5.56-0.85 8.3-0.53-3.79 2.21-8.27 3.19-11.6 6.16-7.77 6.47-15.28 13.49-20.77 22.06-6.08 9.95-10.65 20.89-12.97 32.34-2.57 11.8-2.27 23.97-1.47 35.95 0.72 7.08 1.28 14.44 4.61 20.88 4.88 9.31 9.63 18.69 14.38 28.07-3.26-2.89-6.49-5.82-9.2-9.25-10.71-12.82-15.11-29.75-15.37-46.2v-4.23c0.41-19.56 5.14-39.31 15.69-55.94 5.22-8.08 11.26-15.87 19.09-21.59 3.18-2.48 5.84-5.62 9.31-7.72z" fill="#030303" stroke="#030303" stroke-miterlimit="10.43" stroke-width=".0938"/>
 <path d="m64.647 23.318c2.76-0.63 5.61-0.25 8.4-0.02-6.67 1.65-13.91 3.24-18.8 8.47-3.26 3.39-5.88 8.64-3.78 13.28 3.19 4.91 9.61 5.1 14.8 5.96-4.86 1.18-10.93 3.15-15.05-0.79-4.66-4.1-3.38-11.25-0.65-16.05 4.61-4.08 8.86-9.3 15.08-10.85z" fill="#030303" stroke="#030303" stroke-miterlimit="10.43" stroke-width=".0938"/>
 <path d="m77.017 27.438c1.45-3.2 5.22-4.13 8.28-5.06-2.53 2.64-5.64 4.9-7.01 8.43 1.29 2.03 3.39 3.35 5.05 5.06-2.24 1.26-4.79 0.39-6.38-1.44-0.51-2.29-0.52-4.71 0.06-6.99z" fill="#030303" stroke="#030303" stroke-miterlimit="10.43" stroke-width=".0938"/>
 <path d="m145.47 45.118c2.16-6.59 4.66-13.21 8.65-18.95-0.55 2.87-1.83 5.51-2.72 8.27-2.27 5.87-3.63 12.29-7.9 17.15-3.5 5.56-10.84 5.08-16.53 4.56 6.4301-2.99 14.87-4.14 18.5-11.03z" fill="#030303" stroke="#030303" stroke-miterlimit="10.43" stroke-width=".0938"/>
 <path d="m150.56 42.658c5.71-4.45 11.47-8.98 15.31-15.26 0.42 4.04-0.9 8.59-5.13 10.04 5.5 0.43 10.97 1.22 16.39 2.23 4.32 0.8 7.28 4.4 9.27 8.06-5.22-2.68-10.01-7.58-16.34-6.72-6.54-0.46-13.2-0.41-19.5 1.65z" fill="#030303" stroke="#030303" stroke-miterlimit="10.43" stroke-width=".0938"/>
 <path d="m68.517 35.498c-1.01-2.76 1.41-4.79 3.26-6.38-0.18 2.09-0.81 4.16-0.72 6.28 0.8 1.12 1.92 1.95 3.01 2.79 1.12 3.34 0.74 7.82-3.16 9.03 0.78-1.74 1.64-3.44 2.36-5.2-1.56-2.19-3.44-4.17-4.75-6.52z" fill="#030303" stroke="#030303" stroke-miterlimit="10.43" stroke-width=".0938"/>
 <path d="m84.787 58.078c6.66-9.74 17.67-15.78 23.26-26.37-0.18 2.86-0.53 5.72-0.24 8.59 5.29-4.36 12.05-9.47 19.28-7.1-4.51 1.93-9.44 2.97-13.56 5.77-3.99 2.2-6.7 6.05-10.63 8.32-4.6 2.86-9.03 6.06-12.94 9.82-3.12 3.3-3.67 8.12-2.78 12.41-3.02 2.02-5.93 4.23-9.22 5.8-3.52 1.75-7.42 3-10.25 5.85-1.88 1.77-3.18 4.03-4.82 6-3.54 2.8-7.97 4.09-11.82 6.37-0.61 2.45 0.86 4.74 0.99 7.17-4.3-0.19-3.99-5.55-2.46-8.33 2.21-3.87 7.18-4.06 10.38-6.72 6.42-4.84 11.03-12.09 18.55-15.44 1.75-0.93 3.94-1.21 5.31-2.73 0.09-3.13-1.23-6.69 0.95-9.41z" fill="#030303" stroke="#030303" stroke-miterlimit="10.43" stroke-width=".0938"/>
 <path d="m121.06 46.518c6.02-5.85 14.29-7.89 21.87-10.88-6.26 5.6-15.52 6.6-21.06 13.14-0.35 2.44 1.25 3.86 3.25 4.89-2.34 0.01-4.26-1.1-5.68-2.92 0.5-1.41 0.43-3.16 1.62-4.23z" fill="#030303" stroke="#030303" stroke-miterlimit="10.43" stroke-width=".0938"/>
 <path d="m119.46 36.828c2.95-0.95 6.08 0.22 8.82 1.35-5 0.34-9.89 1.65-13.76 4.97 0.51-2.81 2.64-4.86 4.94-6.32z" fill="#030303" stroke="#030303" stroke-miterlimit="10.43" stroke-width=".0938"/>
 <path d="m127.36 51.928c0.89-4.93 6.22-5.82 10.09-7.47-1.69 4.27-6.43 5.46-10.09 7.47z" fill="#030303" stroke="#030303" stroke-miterlimit="10.43" stroke-width=".0938"/>
 <path d="m167.17 44.648c6.87 0.59 13.52 2.63 20.04 4.75 6 2.02 10.88 7.05 12.06 13.36-4.13-4.25-8.22-9.15-14.25-10.63-6.42-1.26-12.08-4.58-17.85-7.48z" fill="#030303" stroke="#030303" stroke-miterlimit="10.43" stroke-width=".0938"/>
 <path d="m89.477 64.118c2.59-2.41 5.94-4.65 9.67-4.05-2.5 2.68-5.78 4.43-8.29 7.1 4.06 0.98 8.16-1.64 12.09 0.12 2.36-2.36 5.67-2.84 8.78-3.5-2.89 5.32-7.22 10.74-13.61 11.63-2.54 0.93-4.18-1.5-5.88-2.86-1.53 2.13-2.16 4.97-4.45 6.48-0.39-2.35 0.27-4.59 1.24-6.68-0.39-2.68-2.05-6.1 0.45-8.24zm4.01 6.59c1.89 0.98 3.9 1.71 5.99 2.11-1.3-0.94-2.45-2.03-3.32-3.39-0.9 0.39-1.8 0.82-2.67 1.28zm5.88-1.09c-1.08 1.32 1.19 2.19 1.98 1.14 1.12-1.25-1.26-2.28-1.98-1.14z" fill="#030303" stroke="#030303" stroke-miterlimit="10.43" stroke-width=".0938"/>
 <path d="m25.897 61.858c1.35 1.13 2.29 3.17 4.23 3.26 2.29-0.7 4.59-1.38 6.93-1.91 6.84 1.84 10.21 10.79 6.22 16.62-1.22-4.82-2.38-10.1-6.42-13.44-2.93 0.98-6.35 2.4-9.24 0.52-1.27-1.37-1.55-3.26-1.72-5.05z" fill="#030303" stroke="#030303" stroke-miterlimit="10.43" stroke-width=".0938"/>
 <path d="m181.89 62.668c10.21-0.37 20.08 5.21 25.61 13.68 2.33 3.4 4.5 7.65 2.83 11.82-3.05-4.42-4.6-9.72-7.76-14.06-5.73-5.58-13.3-8.68-20.68-11.44z" fill="#030303" stroke="#030303" stroke-miterlimit="10.43" stroke-width=".0938"/>
 <path d="m128.99 64.308c5.52 3.03 11 7.73 12.31 14.2-4.09-4.75-8.51-9.24-12.31-14.2z" fill="#030303" stroke="#030303" stroke-miterlimit="10.43" stroke-width=".0938"/>
 <path d="m20.507 70.268c3.83-1.07 9.45-3.28 12.16 0.95-2.96-0.84-6.31-1.17-8.79 1.05-7.21 4.58-6.63 14.38-12.26 20.19 2.01-7.6 1.49-17.42 8.89-22.19z" fill="#030303" stroke="#030303" stroke-miterlimit="10.43" stroke-width=".0938"/>
 <path d="m129.32 72.328c4.02 3.97 9.02 7.26 11.75 12.32 1.63 4.41 2.6 10.42-1.35 13.92 0.11-3.22 0.4-6.43 0.34-9.64-5.05-4.5-7.6-10.79-10.74-16.6z" fill="#030303" stroke="#030303" stroke-miterlimit="10.43" stroke-width=".0938"/>
 <path d="m33.117 75.438c5.1 4.85 7.42 12.08 7.11 19.01 0.22 6.25-1.57 12.83-6.4 17.07-3.19 0-6.38 0-9.57 0.01-1.78-1.88-3.35-3.92-4.86-6.01 4.02 2.78 9.77 4.91 14.07 1.51 6.9-9.05 5.8-22.43-0.35-31.59z" fill="#030303" stroke="#030303" stroke-miterlimit="10.43" stroke-width=".0938"/>
 <path d="m194.19 75.328c7.45 4.66 14.92 10.29 18.89 18.35 2.25 4.41 2.38 9.48 2.63 14.32-7.34-3.44-2.44-12.89-7.57-17.78-4.6899-4.92-10.02-9.28-13.95-14.89z" fill="#030303" stroke="#030303" stroke-miterlimit="10.43" stroke-width=".0938"/>
 <path d="m128.36 77.538c7.8 10.22 9.79 24.47 5.28 36.48-0.66 2.18-2.71 3.39-4.31 4.83 6.5701-12.94 4.5101-28.38-0.97-41.31z" fill="#030303" stroke="#030303" stroke-miterlimit="10.43" stroke-width=".0938"/>
 <path d="m87.697 86.408c3.74-3.83 9.39-5.36 14.56-3.98-4.89 1.33-10.2 0.96-14.56 3.98z" fill="#030303" stroke="#030303" stroke-miterlimit="10.43" stroke-width=".0938"/>
 <path d="m82.997 93.378c4.07-3.25 8.7-6.42 14.09-6.63 3.65-0.2 7.07 1.76 9.35 4.5-3.08-0.82-6.19-1.82-9.42-1.66-4.89 0.27-9.46 2.17-14.02 3.79z" fill="#030303" stroke="#030303" stroke-miterlimit="10.43" stroke-width=".0938"/>
 <path d="m170.14 98.578c1.48-3.54 1.34-7.44 2.22-11.12 1.13 7.32-0.58 14.83-4.14 21.26-2.25 3.84-5.74 7.16-10.23 8.05 5.14-5.23 9.6999-11.2 12.15-18.19z" fill="#030303" stroke="#030303" stroke-miterlimit="10.43" stroke-width=".0938"/>
 <path d="m160.77 92.558c0.46 7.46-1.65 14.9-5.01 21.51-3.75 6.29-8.45 11.95-13.24 17.47 6.49-12.78 14.88-24.86 18.25-38.98z" fill="#030303" stroke="#030303" stroke-miterlimit="10.43" stroke-width=".0938"/>
 <path d="m201.19 107.34c-3.37-3.93-5.27-8.83-6.15-13.89 3.88 7.47 10.08 13.23 15.69 19.36 6.38 6.42 14.97 9.97 21.55 16.17-11.37-5.52-22.91-11.76-31.09-21.64z" fill="#030303" stroke="#030303" stroke-miterlimit="10.43" stroke-width=".0938"/>
 <path d="m95.227 94.598c3.62-0.1 8.44 2.78 7.5 6.97-0.28 1.35-0.71 2.66-1.1 3.98-0.51-2.42-1.09-4.85-2.5-6.93-1.94 3.21-5.79 4.1-8.54 6.41-1.34 1.2-3 0.05-4.39-0.37 3.17-2.09 6.59-3.85 10.31-4.69 0.42-0.56 1.26-1.69 1.68-2.25-2.93-1.32-5.66 0.71-8.09 2.06-4.5 2.69-9.15 6.22-14.74 5.19-0.46 3.6 0.65 6.89 3.07 9.56-4.06 0.88-8.76-1.39-9.82-5.57-3.3 0.47-7.29 1.91-10.19-0.49-3.19-2.52-3.57-6.82-3.95-10.57-0.64-0.76-1.7148-1.387-1.7776-2.3065 0.84515-0.85268 2.4907-0.94549 3.3276-1.0235 1.1 4.64 2.34 9.7 5.96 13.06 2.47 0.36 4.81-0.99 7.19-1.49 1.22 1.44 1.93 4.39 4.24 4.08 0.63-1.73 0.98-3.55 1.45-5.33-0.43-0.25-1.29-0.77-1.72-1.03 4.16 0.11 8.3-1 11.71-3.4 3.23-2.33 6.56-4.63 10.38-5.86z" fill="#030303" stroke="#030303" stroke-miterlimit="10.43" stroke-width=".0938"/>
 <path d="m89.987 111.52c3.02-1.67 6.42-2.45 9.52-3.94-1.03 2.51-2.9 4.87-5.73 5.32-3.07 0.72-4.75 3.64-7.22 5.32-2.13 0.64-4.41 0.48-6.61 0.82-2.34 0.12-3.99 1.98-5.88 3.13 0.71-1.65 1.49-3.27 2.36-4.85 2.75 0.06 5.51-0.01 8.27-0.14 1.48-2.12 2.97-4.38 5.29-5.66z" fill="#030303" stroke="#030303" stroke-miterlimit="10.43" stroke-width=".0938"/>
 <path d="m176.81 110.13c0.01 0.2 0.01 0.59 0.01 0.79-8.09 2.92-14.33 9.22-19.79 15.63-4.39 6.5-7.88 14.07-7.94 22.05 1.17 8.22 4.69 15.87 8.45 23.2-8.69-5.45-12.59-16.28-11.9-26.18 2.9699-16.08 14.38-32.19 31.17-35.49z" fill="#030303" stroke="#030303" stroke-miterlimit="10.43" stroke-width=".0938"/>
 <path d="m60.207 126.78c4.38-2.85 3.98-9.59 9.29-11.45-3.74 4.73-5.29 11.01-9.97 15.02-1.21 1.11-2.44 2.21-3.62 3.36 4.88-0.36 9.43-3.36 11.85-7.57 1.27-1.98 2.16-4.17 3.46-6.13-0.37 5.73-4.52 10.2-8.89 13.48-2.63 2.07-6.02 3.32-9.4 2.77-3.71-0.24-6.51-2.93-9.28-5.11 5.48-1.58 11.72-0.96 16.56-4.37z" fill="#030303" stroke="#030303" stroke-miterlimit="10.43" stroke-width=".0938"/>
 <path d="m203.46 115.45c3.59 2.55 6.72 5.71 10.42 8.11 8.53 5.27 16.71 11.32 23.33 18.9-7.18-5.11-15.06-9.11-22.43-13.92-4.79-3.34-8.49-8.03-11.32-13.09z" fill="#030303" stroke="#030303" stroke-miterlimit="10.43" stroke-width=".0938"/>
 <path d="m106.89 128.37c1.46-3.52 1.8-7.34 2.6-11.03 0.22 3.43 0.57 6.91-0.03 10.34-0.75 5.14-3.64 9.69-4.29 14.87-0.29 2.71-0.38 5.44-0.54 8.17-0.75-3.72-1.88-7.5-1.3-11.33 0.43-3.88 2.25-7.4 3.56-11.02z" fill="#030303" stroke="#030303" stroke-miterlimit="10.43" stroke-width=".0938"/>
 <path d="m20.137 122.6c2.53-2.18 6.37-5.72 9.49-2.53-3.47 0.75-7.56 1.87-9.09 5.48-0.78 3.88-0.36 8.26 1.99 11.56 1.73 2.05 4.19 3.29 6.07 5.19-3.65-0.26-8.37-0.88-10.02-4.69-2.41-4.67-1.99-11.04 1.56-15.01z" fill="#030303" stroke="#030303" stroke-miterlimit="10.43" stroke-width=".0938"/>
 <path d="m95.607 125.71c2.88-2.26 6.69-7.94 10.49-4.17-0.9 1.76-2.1 3.34-3.19 4.98-0.96-0.4-1.93-0.76-2.92-1.09-1.29 0.73-2.33 1.88-3.77 2.34-1.35-0.31-2.69-0.63-4.03-0.95-1.42 1.23-2.69 2.6-4.02 3.92 0.31-1.62 0.64-3.24 0.97-4.85 0.46-0.29 1.39-0.88 1.85-1.17 1.52 0.42 3.06 0.75 4.62 0.99z" fill="#030303" stroke="#030303" stroke-miterlimit="10.43" stroke-width=".0938"/>
 <path d="m69.277 127.58c0.5-2.88 3.12-1.87 4.22-0.07h4.84c3.11 4.38 0.67 9.85-1.23 14.19-0.58-3.89 1.92-7.79-0.02-11.51-2.95 0.46-6.41 0.65-7.81-2.61z" fill="#030303" stroke="#030303" stroke-miterlimit="10.43" stroke-width=".0938"/>
 <path d="m112.14 141.61c-0.09-5.57 0.44-11.52 3.64-16.27 1.06 3.39 0.31 6.81-0.81 10.05-0.8 2.17-0.28 5.18-2.83 6.22z" fill="#030303" stroke="#030303" stroke-miterlimit="10.43" stroke-width=".0938"/>
 <path d="m84.017 128.68c1.61 3.23 0.26 6.64-2.24 8.95-1.18-3.25 0.97-6.12 2.24-8.95z" fill="#030303" stroke="#030303" stroke-miterlimit="10.43" stroke-width=".0938"/>
 <path d="m118.39 133.35c0.29-1.67 0.6-3.33 0.9-4.98 1.22 3.88 3.21 7.44 5.54 10.76-3.56 0.07-5.04-3.06-6.44-5.78z" fill="#030303" stroke="#030303" stroke-miterlimit="10.43" stroke-width=".0938"/>
 <path d="m124.4 129.32c4.16 3.61 7.41 8.6 7.64 14.25 0.15 4.59 1.6 9.36-0.15 13.82-1.44 3.76-4.55 6.51-6.53 9.96-1.38 0.24-2.76 0.48-4.14 0.71 6.57-5.36 11.33-13.82 9.48-22.5-1.64-5.58-4.07-10.88-6.3-16.24z" fill="#030303" stroke="#030303" stroke-miterlimit="10.43" stroke-width=".0938"/>
 <path d="m211.57 131.34c4.26 1.61 7.85 4.52 11.37 7.34 5.12 4.29 9.74 9.89 10.75 16.69 0.41 4.39 0.15 8.81-0.37 13.18-0.61-4.03-0.91-8.15-2.29-12.02-2.67-7.74-7.76-14.5-13.95-19.82-1.92-1.69-4.1401-3.15-5.51-5.37z" fill="#030303" stroke="#030303" stroke-miterlimit="10.43" stroke-width=".0938"/>
 <path d="m136.12 136.41c4.52 3.2 4.87 9.45 2.74 14.17-0.65 3.22-2.73 5.77-4.91 8.12 3.46-6.9 3.89-14.84 2.17-22.29z" fill="#030303" stroke="#030303" stroke-miterlimit="10.43" stroke-width=".0938"/>
 <path d="m116.78 144.13c2.48 3 1.33 7.25-0.76 10.13-5.62 9.59-4.62 21.1-3.33 31.67-3.15-7.35-4.33-15.76-2.17-23.55 1.16-5.09 3.65-9.71 6.29-14.15 0.99-1.24 0.09-2.76-0.03-4.1z" fill="#030303" stroke="#030303" stroke-miterlimit="10.43" stroke-width=".0938"/>
 <path d="m157.18 145.52c1.91 3.8 3.74 7.82 3.79 12.15 0.42 0.11 1.27 0.32 1.69 0.43-0.3-2.54-0.55-5.09-0.5-7.64 0.5 4.38 3.96 7.32 5.18 11.4-2.37 0.04-3.33-2.1-4.39-3.79-0.51 0.47-1.02 0.95-1.53 1.44 1.33 3.02 2.86 5.94 4.54 8.78-3.22-3.33-7.14-6.75-7.75-11.61-0.2401-3.73-0.71-7.44-1.03-11.16z" fill="#030303" stroke="#030303" stroke-miterlimit="10.43" stroke-width=".0938"/>
 <path d="m39.617 154.58c0.04-3.13 2.2-5.56 3.98-7.9-1.73 5.84-2.59 12.9 1.38 18.06 2.6 3.2 5.52 6.83 9.88 7.41 5.57 1.15 11.03-0.93 16.27-2.55-3.42 3.84-7.58 7.97-13.1 7.92-6.65-0.38-11.69-5.5-15.39-10.57-2.9-3.38-3.17-8.13-3.02-12.37z" fill="#030303" stroke="#030303" stroke-miterlimit="10.43" stroke-width=".0938"/>
 <path d="m235.1 147.46c12.44 14.12 18.22 33.33 17.31 51.98-0.83 8.66-5.93 15.98-10.17 23.3-3.94 7.2-7.58 14.88-8.09 23.2-0.21 2.92 1.19 5.63 1.44 8.51 1.53 10.86-2.02 21.73-7.11 31.2-1.46 2.53-2.59 5.35-4.82 7.33 1.38-4.8 3.04-9.52 4.1-14.41 1.34-6.01 3.84-11.85 3.8-18.1 0.18-17.59 4.48-35.53 14.43-50.22 2.72-3.64 3.17-8.3 3.78-12.66 1.52-17.91-6.7201-34.64-14.67-50.13z" fill="#030303" stroke="#030303" stroke-miterlimit="10.43" stroke-width=".0938"/>
 <path d="m165.85 148.4c4.79 4.89 9.25 10.1 13.95 15.08-6.37-3-12.63-7.7-13.95-15.08z" fill="#030303" stroke="#030303" stroke-miterlimit="10.43" stroke-width=".0938"/>
 <path d="m65.797 150.83c3.19-1.2 5.16 1.83 7.08 3.76 2.98 3.07 4.4 7.41 4.2 11.65-1.98-6.28-6.32-11.24-11.28-15.41z" fill="#030303" stroke="#030303" stroke-miterlimit="10.43" stroke-width=".0938"/>
 <path d="m79.787 153.26c1.2-1.19 2.83-1.82 4.28-2.65-1.81 3.22-3.33 6.94-1.64 10.57 2.51 1.16 5.33 1.95 7.14 4.19-0.71 3.1-3.11 5.18-4.92 7.62-1.53 2.12 0.95 4.19 2.07 5.87 3.19 4.08 8.39 5.22 13.23 5.96-4.48 0.74-9.24 1.59-13.53-0.44-2.98-3.27-5.88-7.27-5.47-11.95 0.11-2.82 2.64-4.37 4.4-6.2-1.61-1.02-3.23-2.02-4.84-3.02-0.22-3.31-2.48-6.72-0.72-9.95z" fill="#030303" stroke="#030303" stroke-miterlimit="10.43" stroke-width=".0938"/>
 <path d="m210.55 150.94c3.34 12.79 0.62 26.35-3.48 38.66-4.7 12.76-9.8 25.38-15.4 37.78-4.18 9.22-9.96 17.63-16.29 25.48-2.96 2.29-6.2 4.26-9.56 5.9 3.03-3.98 6.84-7.28 9.79-11.32 15.94-20.19 22.98-45.36 32.58-68.81 2.0401-9.04 2.6801-18.42 2.36-27.69z" fill="#030303" stroke="#030303" stroke-miterlimit="10.43" stroke-width=".0938"/>
 <path d="m103.93 165.5c-1.96-3.94-5.24-6.94-7.76-10.49 2.76 1.18 6.04 1.92 7.75 4.65 1.62 1.65 0.26 3.9 0.01 5.84z" fill="#030303" stroke="#030303" stroke-miterlimit="10.43" stroke-width=".0938"/>
 <path d="m219.51 154.61c3.43 6.47 2.91 14.07 1.11 20.94-2.15 7.8-7.28 14.6-13.8 19.31 9.08-11.31 12.86-25.92 12.69-40.25z" fill="#030303" stroke="#030303" stroke-miterlimit="10.43" stroke-width=".0938"/>
 <path d="m114.5 172.96c0.3 0.86 1.13 1.67 0.9 2.67-0.49 10.83 4.02 21.09 9.6 30.12-3.34-2.53-5.78-5.97-8.38-9.2-1.58-2.01-2.73-4.44-2.68-7.05-0.11-5.51-0.35-11.08 0.56-16.54z" fill="#030303" stroke="#030303" stroke-miterlimit="10.43" stroke-width=".0938"/>
 <path d="m21.447 174.84c7.47-0.94 15.4 5.33 22.82 1.21 3.77 3.39 6.41 7.78 8.11 12.53 1.94 5.69 5.31 10.71 8.29 15.89-6.86-4.03-8.59-12.3-12.03-18.89-1.02-2.94-3.69-4.68-5.62-6.96-6.02 3.36-13.25 1.69-19.17-1.02-2.84 4.26-7.21 7.44-9.1 12.32-1.23 2.03-0.12 4.32-0.12 6.49-0.35 2.23-1.61 4.14-2.75 6.04-1.52-4.64-2.92-10.38 0.29-14.63 3.23-4.23 6.26-8.6 9.28-12.98z" fill="#030303" stroke="#030303" stroke-miterlimit="10.43" stroke-width=".0938"/>
 <path d="m153.16 174.3c1.69 3.51 3.62 7.33 2.87 11.35-1.07 6.96-5.82 12.74-6.72 19.76-0.79 3.82 1.12 7.4 1.68 11.1-4.39-5-4.53-12.4-2.57-18.46 2.15-5.13 4.33-10.26 6.43-15.41-0.71-2.75-1.36-5.52-1.69-8.34z" fill="#030303" stroke="#030303" stroke-miterlimit="10.43" stroke-width=".0938"/>
 <path d="m120.3 181.63c1.54 6.69 4.88 12.81 8.32 18.68 4.24 4.03 9.24 7.21 13.48 11.27-6.77 0.68-13.46-3.22-16.63-9.13-3.15-6.46-5.53-13.54-5.17-20.82z" fill="#030303" stroke="#030303" stroke-miterlimit="10.43" stroke-width=".0938"/>
 <path d="m36.207 182.88c-1.23 3.91-4.44 6.77-6.26 10.4-1.44 3.25-5.98 4.28-6.1 8.2-0.32 3.46-0.34 7.14-2.54 10.05 3.01 3.17 7.72 3.49 10.91 6.45 1.98 0.16 3.96 0.23 5.94 0.23 1.47-4.16-1.06-7.99-3.17-11.37 2.08 1.41 4.29 2.8 5.62 5 2.84 4.5 2.94 10.05 5.12 14.82 0.92 1.59 2.45 3.02 4.33 3.31 2.24-0.28 4.41-0.96 6.65-1.29 2.35 3.66 2.43 8.08 1.57 12.23-0.72 3.04 0.69 5.9 1.59 8.72-4.49-4.74-4.99-11.47-3.92-17.62-2.7 1.73-5.86 3.44-9.02 1.7-5.79-2.42-5.83-9.27-7.66-14.35-2.42 1.24-5.16 3.48-7.97 1.93-4.75-2.86-12.37-3.43-13.36-10.09 2.69-3.95 2.96-8.85 3.14-13.47 4.08-2.41 7.24-6.02 9.73-10-1.25-0.43-2.48-0.93-3.76-1.26-2.42 1.14-3.29 3.99-5.05 5.86-1.34 1.75-3.7 1.87-5.67 2.31 3.8-1.87 5.47-6.03 8.7-8.55 2.19-1.92 4.46 1.94 6.73 0.22 1.51-1.11 2.92-2.34 4.45-3.43z" fill="#030303" stroke="#030303" stroke-miterlimit="10.43" stroke-width=".0938"/>
 <path d="m38.747 188.91c2.38-0.09 4.65 0.55 6.3 2.33 0 0.96 0.01 2.88 0.01 3.84-1.95-2.22-4.28-4.04-6.31-6.17z" fill="#030303" stroke="#030303" stroke-miterlimit="10.43" stroke-width=".0938"/>
 <path d="m32.717 198.71c2.02-0.97 4.27-1.47 6.52-1.17 2.53 2.24 2.46 5.97 2.29 9.06-1.15-2.71-2.3-5.43-4.08-7.81-1.58 0.62-3.16 0.59-4.73-0.08z" fill="#030303" stroke="#030303" stroke-miterlimit="10.43" stroke-width=".0938"/>
 <path d="m227.9 199.21c0.15-0.13 0.46-0.41 0.62-0.54-3.33 8.64-7.83 17.46-15.75 22.74-4.63 3.04-10.31 4.52-15.83 3.84 2.56-1.55 5.35-2.66 7.96-4.12 9.45-5.06 17.4-12.8 23-21.92z" fill="#030303" stroke="#030303" stroke-miterlimit="10.43" stroke-width=".0938"/>
 <path d="m171.59 201.31c1.03 7.13-0.2 14.23-2.12 21.09-0.15-1.5-0.3-2.99-0.46-4.48-0.42 3.21-3.67 3.51-6.02 4.41 2.88-4.51 3.88-9.77 5.3-14.83 0.34 2.55 0.47 5.13 0.51 7.71l1.06 0.13c0.96-4.63 1.23-9.35 1.73-14.03z" fill="#030303" stroke="#030303" stroke-miterlimit="10.43" stroke-width=".0938"/>
 <path d="m65.567 208.33c15.02 4.99 30.56 9.2 46.51 9.16 5.01 0.03 9.98-0.68 14.97-0.94 4.7-0.09 9.07 1.85 13.39 3.45 0.4 1.36 0.82 2.73 1.24 4.09-2.67-2.15-5.4-4.46-8.75-5.43-9.4-1.49-18.62 1.92-27.99 1.81-13.56-2.07-28.02-3.69-39.37-12.14z" fill="#030303" stroke="#030303" stroke-miterlimit="10.43" stroke-width=".0938"/>
 <path d="m229.93 217.28c-2.85 9.26-7.31 18.76-15.42 24.52-4.53 3.3-10.32 2.92-15.55 4.12-2.15 0.6-4.35 0.05-6.42-0.59 7.11-4.41 16.68-2.39 23.04-8.17 6.42-5.33 9.52-13.3 14.35-19.88z" fill="#030303" stroke="#030303" stroke-miterlimit="10.43" stroke-width=".0938"/>
 <path d="m134.84 230.2c5.8 4.89 9.83 12.86 7.11 20.45-1.53-7.09-4.0901-13.87-7.11-20.45z" fill="#030303" stroke="#030303" stroke-miterlimit="10.43" stroke-width=".0938"/>
 <path d="m63.557 233.67c0.74 11.3 5.79 21.68 12.11 30.88-5.6-3.5-10.81-8.41-12.64-14.95-1.74-5.22-0.94-10.77 0.53-15.93z" fill="#030303" stroke="#030303" stroke-miterlimit="10.43" stroke-width=".0938"/>
 <path d="m142.73 234.84c4.13 1.24 7.69 6.68 4.13 10.3-0.99-3.58-2.6-6.93-4.13-10.3z" fill="#030303" stroke="#030303" stroke-miterlimit="10.43" stroke-width=".0938"/>
 <path d="m66.267 235.64c2.63 4.48 5.97 8.45 9.66 12.09 2.96 3.92 6.14 7.69 8.94 11.74-9.57-4.44-16.31-13.63-18.6-23.83z" fill="#030303" stroke="#030303" stroke-miterlimit="10.43" stroke-width=".0938"/>
 <path d="m89.137 246.32c3.85 9.3 7.45 18.7 10.61 28.26-6.26-8.0301-10.81-17.91-10.61-28.26z" fill="#030303" stroke="#030303" stroke-miterlimit="10.43" stroke-width=".0938"/>
 <path d="m123.46 274.07c-3.22-8.79-6.01-18.04-5.05-27.52 1.73 10.68 5.99 20.72 8.71 31.15-1.46-0.94-3.08-1.88-3.66-3.63z" fill="#030303" stroke="#030303" stroke-miterlimit="10.43" stroke-width=".0938"/>
 <path d="m99.427 247.95c2.6 13.08 3.43 27.12 10.73 38.72-6.47-6.23-10.99-15.02-10.7-24.14 0.01-4.86-0.18-9.72-0.03-14.58z" fill="#030303" stroke="#030303" stroke-miterlimit="10.43" stroke-width=".0938"/>
 <path d="m210.87 253.55c2.71-1.25 4.51-3.68 6.19-6.03 0.91 3.05 0.08 6.54-2.71 8.3-6.41 4.22-14.88 2.99-21.51-0.08 6-0.57 12.43 0.58 18.03-2.19z" fill="#030303" stroke="#030303" stroke-miterlimit="10.43" stroke-width=".0938"/>
 <path d="m106.98 253.75c3.54 4.26 7.7 7.96 11.02 12.4-5.43-2.09-9.56-6.77-11.02-12.4z" fill="#030303" stroke="#030303" stroke-miterlimit="10.43" stroke-width=".0938"/>
 <path d="m128.45 254.48c1.7 5.54 2.73 11.31 5.24 16.58 2.44 6.12 6.36 11.45 10.56 16.46-7.23-3.85-13.26-10.58-14.61-18.86-0.46-4.73-1.79-9.41-1.19-14.18z" fill="#030303" stroke="#030303" stroke-miterlimit="10.43" stroke-width=".0938"/>
 <path d="m159.87 263.49c1.82 3.54 0.65 9.04-3.69 9.94-3.24 1.21-5.98-1.13-8.63-2.57-1.21-0.97-2.3 0.51-3.27 1.07 0.65 1.73 1.33 3.46 1.93 5.22-3.43-0.96-6.22-5.05-3.78-8.32 4.82-4.19 11.07 2.76 16.02-0.85 0.8499-1.3399 0.92-3.0099 1.42-4.49z" fill="#030303" stroke="#030303" stroke-miterlimit="10.43" stroke-width=".0938"/>
 <path d="m69.589 115.71c4.5167 3.391-1.6156 12.156-4.5146 14.28-7.9776 5.8451-13.017 3.9898-13.017 2.1929 4e-6 -1.7969 2.9134-3.2536 6.5072-3.2536s9.5869-14.298 11.024-13.219z" fill="#800000" stroke-width=".03"/>
 <circle cx="100.36" cy="70.293" r="1.262" fill="#f00" stroke-width=".03"/>
 <path d="m73.196 103.97 1.716 0.88926-1.4316 5.2918s-1.3342 0.5317-2.8085-1.5316c-0.5796-0.81117-1.6277-2.5092-1.6277-2.5092z" fill="#fff" stroke-width=".03"/>
 <path d="m51.04 93.528c0.80855-1.1877 2.9136-1.4775 3.8568-1.9247 0.59225 0.61698 1.1563 2.9148 1.1563 2.9148s-2.7022 0.27159-3.3673 1.0215c0.13968 0.88192 1.1581 1.6899 1.7557 2.3616 0.1619 0.92164 0.31663 1.6304 0.27432 2.7957-1.0702 0.17647-1.5364 0.21716-2.6346 0.0574-0.12447-0.48929-0.19279-1.2863-0.19279-1.2863l-0.58431-2.303s-0.37496-1.2528-0.41653-1.8998c-0.03728-0.58009-0.17473-1.2567 0.15238-1.7372z" fill="#800000" stroke-width=".03"/>
</svg>
