<?xml version="1.0" encoding="UTF-8"?>
<svg viewBox="0 0 2502.4968 2059.3335" xmlns="http://www.w3.org/2000/svg" xmlns:xlink="http://www.w3.org/1999/xlink">
 <g transform="matrix(4.0252 0 0 4.0252 485.71 -5806.9)" fill="#020202">
  <path d="m305.36 1758.2c19.49-7.9013-36.044-53.625-38.787-55.667-21.08-12.082-39.741 19.523-16.19 18.942 7.7051-2.3445 16.668-2.2352 22.176 0.4375 10.17 4.9796 18.21 15.53 22.714 29.808 1.8643 7.2402 3.0364 9.975 10.086 6.4794zm-65.684 194.89c-10.077-2.4966-12.684-6.6454-18.294-10.104-9.9934-6.1613-7.3905-5.8481-4.6606-21.194 0.56083-3.1527 0.2869-4.3525-1.0566-5.4675-4.9944-5.3204-8.7274 8.7265-11.192 17.802l-3.4568-0.9194c-1.2294-5.13 0.16848-9.7606 1.204-14.797 0.51573-2.5084 1.1318-6.9963-0.10335-13.133-0.34045-1.6914 0.0403-4.5776 2.0304-8.4949 2.9561-5.8189 6.6552-5.4809 8.3967-5.2416 2.2372 0.3073 2.2148 0.4308 1.5369-8.4851l-0.2112-2.7778-7.2109 0.6534c-8.8191 0.7992-16.326-1.2991-21.351-5.9685-1.8525-1.7211-9.8153-10.849-17.695-20.284-25.821-33.796-19.43-32.042-32.937-28.287-23.775 5.3752-49.024 10.911-64.944 17.198-0.60248-0.42-7.5659-20.55-7.5745-20.703-0.0039-0.069 0.33981-0.105 0.4095-0.1198 38.628-11.143 70.085-19.117 68.367-20.816 0 0-38.498-34.685-39.195-65.382-1.1018-38.747 31.933-47.91 49.523-59.545 14.432-9.4435 24.348-18.58 33.487-30.856 5.7995-7.7903 7.145-10.269 6.932-12.772-0.6779-7.9667-11.597-16.494-20.074-15.678-5.1651 0.4975-14.264 24.487-27.631 14.019-31.814-24.913-33.975 19.928-53.3 20.036-34.512-22.502-10.82 16.923-32.062 16.498-64.05-1.281-2.2486 66.531-28 69.775-59.519-33.429-45.589 87.56-113.9 41.535-45.458-46.85-17.324-37.06 6.0833-43.081 34.042-16.943 11.612-130.31 48-87.89 38.585 12.71 42.314-84.227 50.386-88.082 33.969-35.987 29.191 13.297 51.65 1.0661 30.201-17.734 53.546 10.766 63.687 11.878 19.657 11.234 37.64-1.6926 50.068-1.4081 32.937 3.2978 32.545 12.478 39.329 18.281 10.233 8.8533 30.356-11.011 37.374-11.011 4.4512 0 9.2338-1.6297 8.4595-2.8827-0.3014-0.4876-2.5064-1.1802-4.9002-1.5392-3.1082-0.4661-5.2009-1.5709-7.3213-3.8653-4.4013-4.7625-8.6467-11.817-7.6883-12.776 0.4615-0.4614 2.6387-0.4219 4.8382 0.088s7.1897 0.9378 11.089 0.9509c5.9213 0.02 8.0895-0.4755 13.151-3.0049 3.3337-1.6659 6.6107-3.6909 7.2822-4.5 1.0551-1.2713 0.2634-1.4712-5.8252-1.4712-12.479 0-22.23-2.901-27.949-8.3155-6.892-6.5249-4.0421-7.6956 19.263-7.9134 16.483-0.1541 18.722-0.374 20.178-1.9819 10.113-26.731 4.9028-62.255-4.7575-75.024-3.8477-7.0132-11.543-14.209-8.5052-14.493 37.704 15.349 53.729 37.988 69.024 86.986 1.7028 1.2329 15.493-0.1465 23.048-2.3056 17.782-5.0816 21.545-5.0036 18.022 0.3733-3.8793 5.9206-14.182 12.179-27.522 16.718-10.556 3.5916-10.598 3.6302-7.4628 6.7654 7.5324 4.538 9.0751 11.781 0.8455 14.02-2.8377 0.772-0.1596 3.8152 2.9458 7 6.064 6.2189 10.956 22.356 7.2127 23.793-2.52 0.967-3.4421 3.1997-7.6257-6.3973-3.9776-10.49-6.255-0.9031-8.7242 2.4867-0.65188 5.5089-2.2263 2.5039-3.4967 1.4495-0.8367-0.6943-2.6966-1.4756-4.1331-1.7361-2.3117-0.4192-4.0866 1.0541-4.5867 4.1334 0.23197 2.8819 1.0242 6.1782 6.2142 8.7001 5.9221-5.5309 7.4227-1.847 3.3958 3.5771-1.4093 5.6605 9.866 9.9627 0.21332 19.705-11.507 6.5168-14.911-19.158-24.127-21.914-11.557-9.9068-19.514 4.3665-23.804 10.607-8.1314 16.338 7.5554 5.3493 5.7161 30.494-1.6839 5.0915-1.6729 5.3857 0.421 11.284 5.5413 15.607 13.086 23.226 27.592 27.86 5.7195 1.8272 30.585 8.0257 40.654 10.134 17.26 3.6144 15.236 1.2463 19.355 10.221 1.7346 3.7797 2.224 8.4765 10.885 5.073 40.897-11.578 32.427 2.2879 48.058 1.3231 9.4478-3.0513 45.091-14.603 52.661-16.755 4.0922-1.1635 4.4633 2.7813 5.0121 4.0069 2.7219 4.9545-3.7827 5.6315-10.031 8.3321-45.511 15.31-45.103 12.025-40.19 22.771 2.7448 3.4973 1.8663 5.171-2.75 5.726-1.7797 0.214 1.452 3.9168-3.6706 3.2391-0.95497-0.1263 0.39854 4.7872-3.257 3.8264-2.2852 2.2853-2.4014 2.298-5.311 0.5792-2.9339-1.733-2.6382 6.389-5.743 0.8937-3.3384-5.8821-2.5617-9.5575-12.178-5.6853-0.7637-0.472-26.227 8.7788-31.091 11.295-13.986 4.8195-17.949 5.594-18.072 18.658-0.2692 16.854-3.7628 29.266-10.2 36.24-1.4572 1.5787-3.2173 2.25-5.8995 2.25-21.263-3.7575-25.91-37.208-39.019-33.793-15.913 14.891 2.3695 46.18 6.1905 54.478 11.154 17.587-34.663-1.0298-35.825 11.132 0.022 0.9258-0.4057 4.6083-0.951 8.1833-1.1242 7.3691-0.9616 7.994 2.0852 8.0153 4.9634 0.2897 4.3161 3.2902 2.9523 5.7334-1.2733 2.2656-2.0303 5.081-1.8303 6.8073-0.0972 8.3962 1.0721 14.87 6.6667 19.195 7.3134 8.3628 21.497 2.1476 23.523 8.8733 0.36306 8.4961 0.64923 9.0788-2.457 9.0994-4.8823 0.01-5.3713 0.3827-11.105-0.1524-6.7088-0.3085-20.595-0.175-27.897-12.336-1.7387-2.8957-3.1613-5.6385-3.1613-6.095s-0.8769-1.6236-1.9487-2.5935c-1.8825-1.7037-2.0166-1.6519-3.9482 1.5244-1.0997 1.8083-1.7946 3.6194-1.5441 4.0246-0.11667 5.4771-1.3994 7.8053-3.0701 8.2091-1.5186 0.367-2.1227-0.1504-3.698-2.0438 2.374-14.489-0.16282-23.821 0.0357-30.208-1.5354-3.2095 2.8257-10.066 6.5616-12.933 2.0997-1.6112 3.3983-0.5136 4.8159-0.3377 1.4865 0.3031 1.6501-0.3937 1.2813-5.4576-0.4714-6.4738-1.7676-8.0575-6.3359-7.7412-43.914 8.7491-36.067 26.815-37.296 47.203-0.3891 6.9291-0.27248 4.8186 4.7226 4.8461 13.439-1.1547-1.2686 23.198 2.5446 34.368-3.3916 11.502 14.671 12.278 15.057 20.995 0 1.1616-3.043 7.0728-4.0327 6.8787-0.3543-0.07-2.4442-0.5723-4.6442-1.1173z"/>
  <path d="m-63.496 1900c-1.7468-0.8008-4.5127-2.7335-6.1465-4.2948-2.8083-2.6838-2.9633-3.2478-2.8377-10.329 0.1301-7.3405 0.024-7.681-5.3174-16.991-3.6331-6.333-8.2124-12.368-13.736-18.102-8.0458-8.3526-9.6773-10.898-6.9855-10.898 2.0029 0 6.6828-2.3885 6.6916-3.4151 0-0.5033-2.7082-3.7435-6.0277-7.2004-4.6834-4.8774-7.2763-8.8858-11.574-17.893-5.997-12.568-6.0224-13.754-0.3213-15.006 1.612-0.3541 2.9309-1.0194 2.9309-1.4785s-2.2185-2.1999-4.9301-3.8683c-3.6934-2.2726-5.4493-4.2073-7-7.7129-3.1638-7.1523-2.737-7.6952 3.779-4.8065 7.1541 3.1716 9.7217 4.253 15.151 6.3814 3.025 1.1858 7.075 2.8493 9 3.6966 8.2193 3.618 9.821 4.2772 16 6.5859 3.575 1.3358 13.25 5.0008 21.5 8.1445 28.309 10.787 42.706 15.584 55.5 18.492 5.225 1.1876 10.625 2.4232 12 2.7458s6.325 0.8674 11 1.2107c5.5092 0.4046 11.385 1.0801 13.162 1.1583 8.991 0.3957 19.707-2.5421 23.775-3.475 0.24838-0.057 14.052 17.884 13.729 17.883-8.8851 3.4474-34.167 22.058-34.167 22.058l-13 9.7616c-14.877 11.171-20.275 14.025-37 19.557-20.02 6.6229-26.619 8.0339-40.747 8.7117-8.6431 0.4147-11.989 0.2023-14.429-0.916z"/>
 </g>
</svg>
